<?xml version="1.0" standalone="no"?>
 <!DOCTYPE svg PUBLIC "-//W3C//DTD SVG 1.1//EN" 
 "http://www.w3.org/Graphics/SVG/1.1/DTD/svg11.dtd"> 
<svg
  xmlns:svg="http://www.w3.org/2000/svg"
  xmlns="http://www.w3.org/2000/svg"
  xmlns:xlink="http://www.w3.org/1999/xlink"
  version="1.1"
  width="3.639820cm" height="5.062220cm" viewBox="0 0 36398200 50622200">
<title>SVG Picture created as EFR32MG22_module-F_Silkscreen.svg date 2022/11/16 11:48:34 </title>
  <desc>Picture generated by PCBNEW </desc>
<g style="fill:#000000; fill-opacity:1.000000;stroke:#000000; stroke-opacity:1.000000;
stroke-linecap:round; stroke-linejoin:round;"
 transform="translate(0 0) scale(1 1)">
</g>
<g style="fill:#000000; fill-opacity:0.0; 
stroke:#000000; stroke-width:0.000000; stroke-opacity:1; 
stroke-linecap:round; stroke-linejoin:round;">
</g>
<g style="fill:#F2EDA1; fill-opacity:0.0; 
stroke:#F2EDA1; stroke-width:0.000000; stroke-opacity:1; 
stroke-linecap:round; stroke-linejoin:round;">
</g>
<g style="fill:#F2EDA1; fill-opacity:0.0; 
stroke:#F2EDA1; stroke-width:150000.000000; stroke-opacity:1; 
stroke-linecap:round; stroke-linejoin:round;">
<g transform="rotate(-90.000000 20920000.000000 19587500.000000)">
<text x="20920000.000000" y="20087500.000000"
textLength="2102381.000000" font-size="1333333.000000" lengthAdjust="spacingAndGlyphs"
text-anchor="middle" opacity="0">C5</text>
</g>
<g class="stroked-text"><desc>C5</desc>
<path d="M21277142 19754166
L21324761 19801785
L21372380 19944642
L21372380 20039880
L21324761 20182738
L21229523 20277976
L21134285 20325595
L20943809 20373214
L20800952 20373214
L20610476 20325595
L20515238 20277976
L20420000 20182738
L20372380 20039880
L20372380 19944642
L20420000 19801785
L20467619 19754166
" />
<path d="M20372380 18849404
L20372380 19325595
L20848571 19373214
L20800952 19325595
L20753333 19230357
L20753333 18992261
L20800952 18897023
L20848571 18849404
L20943809 18801785
L21181904 18801785
L21277142 18849404
L21324761 18897023
L21372380 18992261
L21372380 19230357
L21324761 19325595
L21277142 19373214
" />
</g></g>
<g style="fill:#F2EDA1; fill-opacity:0.0; 
stroke:#F2EDA1; stroke-width:121920.000000; stroke-opacity:1; 
stroke-linecap:round; stroke-linejoin:round;">
<text x="20175000.000000" y="46070000.000000"
textLength="1100691.000000" font-size="650240.000000" lengthAdjust="spacingAndGlyphs"
text-anchor="middle" opacity="0">E1</text>
<g class="stroked-text"><desc>E1</desc>
<path d="M19838268 45791325
L20000828 45791325
" />
<path d="M20070497 46046777
L19838268 46046777
L19838268 45559097
L20070497 45559097
" />
<path d="M20534954 46046777
L20256280 46046777
" />
<path d="M20395617 46046777
L20395617 45559097
L20349171 45628765
L20302725 45675211
L20256280 45698434
" />
</g></g>
<g style="fill:#F2EDA1; fill-opacity:0.0; 
stroke:#F2EDA1; stroke-width:150000.000000; stroke-opacity:1; 
stroke-linecap:round; stroke-linejoin:round;">
<text x="32375000.000000" y="14770000.000000"
textLength="1872782.000000" font-size="1333333.000000" lengthAdjust="spacingAndGlyphs"
text-anchor="middle" opacity="0">J4</text>
<g class="stroked-text"><desc>J4</desc>
<path d="M32041666 13722380
L32041666 14436666
L31994047 14579523
L31898809 14674761
L31755952 14722380
L31660714 14722380
" />
<path d="M32946428 14055714
L32946428 14722380
" />
<path d="M32708333 13674761
L32470238 14389047
L33089285 14389047
" />
</g><text x="26500000.000000" y="8000000.000000"
textLength="3099762.000000" font-size="1333333.000000" lengthAdjust="spacingAndGlyphs"
text-anchor="middle" opacity="0">C21</text>
<g class="stroked-text"><desc>C21</desc>
<path d="M25857142 7857142
L25809523 7904761
L25666666 7952380
L25571428 7952380
L25428571 7904761
L25333333 7809523
L25285714 7714285
L25238095 7523809
L25238095 7380952
L25285714 7190476
L25333333 7095238
L25428571 7000000
L25571428 6952380
L25666666 6952380
L25809523 7000000
L25857142 7047619
" />
<path d="M26238095 7047619
L26285714 7000000
L26380952 6952380
L26619047 6952380
L26714285 7000000
L26761904 7047619
L26809523 7142857
L26809523 7238095
L26761904 7380952
L26190476 7952380
L26809523 7952380
" />
<path d="M27761904 7952380
L27190476 7952380
" />
<path d="M27476190 7952380
L27476190 6952380
L27380952 7095238
L27285714 7190476
L27190476 7238095
" />
</g><text x="21387000.000000" y="19852500.000000"
textLength="2147381.000000" font-size="1333333.000000" lengthAdjust="spacingAndGlyphs"
text-anchor="middle" opacity="0">C4</text>
<g class="stroked-text"><desc>C4</desc>
<path d="M21220333 19709642
L21172714 19757261
L21029857 19804880
L20934619 19804880
L20791761 19757261
L20696523 19662023
L20648904 19566785
L20601285 19376309
L20601285 19233452
L20648904 19042976
L20696523 18947738
L20791761 18852500
L20934619 18804880
L21029857 18804880
L21172714 18852500
L21220333 18900119
" />
<path d="M22077476 19138214
L22077476 19804880
" />
<path d="M21839380 18757261
L21601285 19471547
L22220333 19471547
" />
</g><text x="20837500.000000" y="21325000.000000"
textLength="2195000.000000" font-size="1333333.000000" lengthAdjust="spacingAndGlyphs"
text-anchor="middle" opacity="0">U1</text>
<g class="stroked-text"><desc>U1</desc>
<path d="M20075595 20277380
L20075595 21086904
L20123214 21182142
L20170833 21229761
L20266071 21277380
L20456547 21277380
L20551785 21229761
L20599404 21182142
L20647023 21086904
L20647023 20277380
" />
<path d="M21647023 21277380
L21075595 21277380
" />
<path d="M21361309 21277380
L21361309 20277380
L21266071 20420238
L21170833 20515476
L21075595 20563095
" />
</g><text x="27275000.000000" y="22220000.000000"
textLength="3099762.000000" font-size="1333333.000000" lengthAdjust="spacingAndGlyphs"
text-anchor="middle" opacity="0">C11</text>
<g class="stroked-text"><desc>C11</desc>
<path d="M26632142 22077142
L26584523 22124761
L26441666 22172380
L26346428 22172380
L26203571 22124761
L26108333 22029523
L26060714 21934285
L26013095 21743809
L26013095 21600952
L26060714 21410476
L26108333 21315238
L26203571 21220000
L26346428 21172380
L26441666 21172380
L26584523 21220000
L26632142 21267619
" />
<path d="M27584523 22172380
L27013095 22172380
" />
<path d="M27298809 22172380
L27298809 21172380
L27203571 21315238
L27108333 21410476
L27013095 21458095
" />
<path d="M28536904 22172380
L27965476 22172380
" />
<path d="M28251190 22172380
L28251190 21172380
L28155952 21315238
L28060714 21410476
L27965476 21458095
" />
</g><text x="18375000.000000" y="36100000.000000"
textLength="3099762.000000" font-size="1333333.000000" lengthAdjust="spacingAndGlyphs"
text-anchor="middle" opacity="0">C18</text>
<g class="stroked-text"><desc>C18</desc>
<path d="M17732142 35957142
L17684523 36004761
L17541666 36052380
L17446428 36052380
L17303571 36004761
L17208333 35909523
L17160714 35814285
L17113095 35623809
L17113095 35480952
L17160714 35290476
L17208333 35195238
L17303571 35100000
L17446428 35052380
L17541666 35052380
L17684523 35100000
L17732142 35147619
" />
<path d="M18684523 36052380
L18113095 36052380
" />
<path d="M18398809 36052380
L18398809 35052380
L18303571 35195238
L18208333 35290476
L18113095 35338095
" />
<path d="M19255952 35480952
L19160714 35433333
L19113095 35385714
L19065476 35290476
L19065476 35242857
L19113095 35147619
L19160714 35100000
L19255952 35052380
L19446428 35052380
L19541666 35100000
L19589285 35147619
L19636904 35242857
L19636904 35290476
L19589285 35385714
L19541666 35433333
L19446428 35480952
L19255952 35480952
L19160714 35528571
L19113095 35576190
L19065476 35671428
L19065476 35861904
L19113095 35957142
L19160714 36004761
L19255952 36052380
L19446428 36052380
L19541666 36004761
L19589285 35957142
L19636904 35861904
L19636904 35671428
L19589285 35576190
L19541666 35528571
L19446428 35480952
" />
</g><text x="1825000.000000" y="15295000.000000"
textLength="1909286.000000" font-size="1333333.000000" lengthAdjust="spacingAndGlyphs"
text-anchor="middle" opacity="0">J3</text>
<g class="stroked-text"><desc>J3</desc>
<path d="M1491666 14247380
L1491666 14961666
L1444047 15104523
L1348809 15199761
L1205952 15247380
L1110714 15247380
" />
<path d="M1872619 14247380
L2491666 14247380
L2158333 14628333
L2301190 14628333
L2396428 14675952
L2444047 14723571
L2491666 14818809
L2491666 15056904
L2444047 15152142
L2396428 15199761
L2301190 15247380
L2015476 15247380
L1920238 15199761
L1872619 15152142
" />
</g><text x="9375000.000000" y="14100000.000000"
textLength="1909286.000000" font-size="1333333.000000" lengthAdjust="spacingAndGlyphs"
text-anchor="middle" opacity="0">J2</text>
<g class="stroked-text"><desc>J2</desc>
<path d="M9041666 13052380
L9041666 13766666
L8994047 13909523
L8898809 14004761
L8755952 14052380
L8660714 14052380
" />
<path d="M9470238 13147619
L9517857 13100000
L9613095 13052380
L9851190 13052380
L9946428 13100000
L9994047 13147619
L10041666 13242857
L10041666 13338095
L9994047 13480952
L9422619 14052380
L10041666 14052380
" />
</g><text x="23275000.000000" y="32450000.000000"
textLength="3099762.000000" font-size="1333333.000000" lengthAdjust="spacingAndGlyphs"
text-anchor="middle" opacity="0">C16</text>
<g class="stroked-text"><desc>C16</desc>
<path d="M22632142 32307142
L22584523 32354761
L22441666 32402380
L22346428 32402380
L22203571 32354761
L22108333 32259523
L22060714 32164285
L22013095 31973809
L22013095 31830952
L22060714 31640476
L22108333 31545238
L22203571 31450000
L22346428 31402380
L22441666 31402380
L22584523 31450000
L22632142 31497619
" />
<path d="M23584523 32402380
L23013095 32402380
" />
<path d="M23298809 32402380
L23298809 31402380
L23203571 31545238
L23108333 31640476
L23013095 31688095
" />
<path d="M24441666 31402380
L24251190 31402380
L24155952 31450000
L24108333 31497619
L24013095 31640476
L23965476 31830952
L23965476 32211904
L24013095 32307142
L24060714 32354761
L24155952 32402380
L24346428 32402380
L24441666 32354761
L24489285 32307142
L24536904 32211904
L24536904 31973809
L24489285 31878571
L24441666 31830952
L24346428 31783333
L24155952 31783333
L24060714 31830952
L24013095 31878571
L23965476 31973809
" />
</g><g transform="rotate(-90.000000 22105000.000000 35900000.000000)">
<text x="22105000.000000" y="36400000.000000"
textLength="1956905.000000" font-size="1333333.000000" lengthAdjust="spacingAndGlyphs"
text-anchor="middle" opacity="0">L1</text>
</g>
<g class="stroked-text"><desc>L1</desc>
<path d="M22557380 36066666
L22557380 36542857
L21557380 36542857
" />
<path d="M22557380 35209523
L22557380 35780952
" />
<path d="M22557380 35495238
L21557380 35495238
L21700238 35590476
L21795476 35685714
L21843095 35780952
" />
</g><g transform="rotate(-90.000000 14487500.000000 29600000.000000)">
<text x="14487500.000000" y="30100000.000000"
textLength="3099762.000000" font-size="1333333.000000" lengthAdjust="spacingAndGlyphs"
text-anchor="middle" opacity="0">C15</text>
</g>
<g class="stroked-text"><desc>C15</desc>
<path d="M14844642 30242857
L14892261 30290476
L14939880 30433333
L14939880 30528571
L14892261 30671428
L14797023 30766666
L14701785 30814285
L14511309 30861904
L14368452 30861904
L14177976 30814285
L14082738 30766666
L13987500 30671428
L13939880 30528571
L13939880 30433333
L13987500 30290476
L14035119 30242857
" />
<path d="M14939880 29290476
L14939880 29861904
" />
<path d="M14939880 29576190
L13939880 29576190
L14082738 29671428
L14177976 29766666
L14225595 29861904
" />
<path d="M13939880 28385714
L13939880 28861904
L14416071 28909523
L14368452 28861904
L14320833 28766666
L14320833 28528571
L14368452 28433333
L14416071 28385714
L14511309 28338095
L14749404 28338095
L14844642 28385714
L14892261 28433333
L14939880 28528571
L14939880 28766666
L14892261 28861904
L14844642 28909523
" />
</g><g transform="rotate(-90.000000 18237000.000000 18093000.000000)">
<text x="18237000.000000" y="18593000.000000"
textLength="2147381.000000" font-size="1333333.000000" lengthAdjust="spacingAndGlyphs"
text-anchor="middle" opacity="0">C2</text>
</g>
<g class="stroked-text"><desc>C2</desc>
<path d="M18594142 18259666
L18641761 18307285
L18689380 18450142
L18689380 18545380
L18641761 18688238
L18546523 18783476
L18451285 18831095
L18260809 18878714
L18117952 18878714
L17927476 18831095
L17832238 18783476
L17737000 18688238
L17689380 18545380
L17689380 18450142
L17737000 18307285
L17784619 18259666
" />
<path d="M17784619 17878714
L17737000 17831095
L17689380 17735857
L17689380 17497761
L17737000 17402523
L17784619 17354904
L17879857 17307285
L17975095 17307285
L18117952 17354904
L18689380 17926333
L18689380 17307285
" />
</g><g transform="rotate(-90.000000 22395000.000000 19750000.000000)">
<text x="22395000.000000" y="20250000.000000"
textLength="2147381.000000" font-size="1333333.000000" lengthAdjust="spacingAndGlyphs"
text-anchor="middle" opacity="0">C7</text>
</g>
<g class="stroked-text"><desc>C7</desc>
<path d="M22752142 19916666
L22799761 19964285
L22847380 20107142
L22847380 20202380
L22799761 20345238
L22704523 20440476
L22609285 20488095
L22418809 20535714
L22275952 20535714
L22085476 20488095
L21990238 20440476
L21895000 20345238
L21847380 20202380
L21847380 20107142
L21895000 19964285
L21942619 19916666
" />
<path d="M21847380 19583333
L21847380 18916666
L22847380 19345238
" />
</g><g transform="rotate(-90.000000 23217500.000000 29200000.000000)">
<text x="23217500.000000" y="29700000.000000"
textLength="3004524.000000" font-size="1333333.000000" lengthAdjust="spacingAndGlyphs"
text-anchor="middle" opacity="0">FB2</text>
</g>
<g class="stroked-text"><desc>FB2</desc>
<path d="M23146071 30033333
L23146071 30366666
" />
<path d="M23669880 30366666
L22669880 30366666
L22669880 29890476
" />
<path d="M23146071 29176190
L23193690 29033333
L23241309 28985714
L23336547 28938095
L23479404 28938095
L23574642 28985714
L23622261 29033333
L23669880 29128571
L23669880 29509523
L22669880 29509523
L22669880 29176190
L22717500 29080952
L22765119 29033333
L22860357 28985714
L22955595 28985714
L23050833 29033333
L23098452 29080952
L23146071 29176190
L23146071 29509523
" />
<path d="M22765119 28557142
L22717500 28509523
L22669880 28414285
L22669880 28176190
L22717500 28080952
L22765119 28033333
L22860357 27985714
L22955595 27985714
L23098452 28033333
L23669880 28604761
L23669880 27985714
" />
</g><g transform="rotate(-90.000000 24495000.000000 19725000.000000)">
<text x="24495000.000000" y="20225000.000000"
textLength="2147381.000000" font-size="1333333.000000" lengthAdjust="spacingAndGlyphs"
text-anchor="middle" opacity="0">C9</text>
</g>
<g class="stroked-text"><desc>C9</desc>
<path d="M24852142 19891666
L24899761 19939285
L24947380 20082142
L24947380 20177380
L24899761 20320238
L24804523 20415476
L24709285 20463095
L24518809 20510714
L24375952 20510714
L24185476 20463095
L24090238 20415476
L23995000 20320238
L23947380 20177380
L23947380 20082142
L23995000 19939285
L24042619 19891666
" />
<path d="M24947380 19415476
L24947380 19225000
L24899761 19129761
L24852142 19082142
L24709285 18986904
L24518809 18939285
L24137857 18939285
L24042619 18986904
L23995000 19034523
L23947380 19129761
L23947380 19320238
L23995000 19415476
L24042619 19463095
L24137857 19510714
L24375952 19510714
L24471190 19463095
L24518809 19415476
L24566428 19320238
L24566428 19129761
L24518809 19034523
L24471190 18986904
L24375952 18939285
" />
</g><g transform="rotate(-90.000000 30555000.000000 12475000.000000)">
<text x="30555000.000000" y="12975000.000000"
textLength="3099762.000000" font-size="1333333.000000" lengthAdjust="spacingAndGlyphs"
text-anchor="middle" opacity="0">C22</text>
</g>
<g class="stroked-text"><desc>C22</desc>
<path d="M30912142 13117857
L30959761 13165476
L31007380 13308333
L31007380 13403571
L30959761 13546428
L30864523 13641666
L30769285 13689285
L30578809 13736904
L30435952 13736904
L30245476 13689285
L30150238 13641666
L30055000 13546428
L30007380 13403571
L30007380 13308333
L30055000 13165476
L30102619 13117857
" />
<path d="M30102619 12736904
L30055000 12689285
L30007380 12594047
L30007380 12355952
L30055000 12260714
L30102619 12213095
L30197857 12165476
L30293095 12165476
L30435952 12213095
L31007380 12784523
L31007380 12165476
" />
<path d="M30102619 11784523
L30055000 11736904
L30007380 11641666
L30007380 11403571
L30055000 11308333
L30102619 11260714
L30197857 11213095
L30293095 11213095
L30435952 11260714
L31007380 11832142
L31007380 11213095
" />
</g><text x="25187500.000000" y="27350000.000000"
textLength="3099762.000000" font-size="1333333.000000" lengthAdjust="spacingAndGlyphs"
text-anchor="middle" opacity="0">C17</text>
<g class="stroked-text"><desc>C17</desc>
<path d="M24544642 27207142
L24497023 27254761
L24354166 27302380
L24258928 27302380
L24116071 27254761
L24020833 27159523
L23973214 27064285
L23925595 26873809
L23925595 26730952
L23973214 26540476
L24020833 26445238
L24116071 26350000
L24258928 26302380
L24354166 26302380
L24497023 26350000
L24544642 26397619
" />
<path d="M25497023 27302380
L24925595 27302380
" />
<path d="M25211309 27302380
L25211309 26302380
L25116071 26445238
L25020833 26540476
L24925595 26588095
" />
<path d="M25830357 26302380
L26497023 26302380
L26068452 27302380
" />
</g><text x="24075000.000000" y="20970000.000000"
textLength="1956905.000000" font-size="1333333.000000" lengthAdjust="spacingAndGlyphs"
text-anchor="middle" opacity="0">L3</text>
<g class="stroked-text"><desc>L3</desc>
<path d="M23908333 20922380
L23432142 20922380
L23432142 19922380
" />
<path d="M24146428 19922380
L24765476 19922380
L24432142 20303333
L24575000 20303333
L24670238 20350952
L24717857 20398571
L24765476 20493809
L24765476 20731904
L24717857 20827142
L24670238 20874761
L24575000 20922380
L24289285 20922380
L24194047 20874761
L24146428 20827142
" />
</g><g transform="rotate(-90.000000 20792500.000000 29200000.000000)">
<text x="20792500.000000" y="29700000.000000"
textLength="3004524.000000" font-size="1333333.000000" lengthAdjust="spacingAndGlyphs"
text-anchor="middle" opacity="0">FB1</text>
</g>
<g class="stroked-text"><desc>FB1</desc>
<path d="M20721071 30033333
L20721071 30366666
" />
<path d="M21244880 30366666
L20244880 30366666
L20244880 29890476
" />
<path d="M20721071 29176190
L20768690 29033333
L20816309 28985714
L20911547 28938095
L21054404 28938095
L21149642 28985714
L21197261 29033333
L21244880 29128571
L21244880 29509523
L20244880 29509523
L20244880 29176190
L20292500 29080952
L20340119 29033333
L20435357 28985714
L20530595 28985714
L20625833 29033333
L20673452 29080952
L20721071 29176190
L20721071 29509523
" />
<path d="M21244880 27985714
L21244880 28557142
" />
<path d="M21244880 28271428
L20244880 28271428
L20387738 28366666
L20482976 28461904
L20530595 28557142
" />
</g><g transform="rotate(-90.000000 19445000.000000 19212500.000000)">
<text x="19445000.000000" y="19712500.000000"
textLength="2147381.000000" font-size="1333333.000000" lengthAdjust="spacingAndGlyphs"
text-anchor="middle" opacity="0">C3</text>
</g>
<g class="stroked-text"><desc>C3</desc>
<path d="M19802142 19379166
L19849761 19426785
L19897380 19569642
L19897380 19664880
L19849761 19807738
L19754523 19902976
L19659285 19950595
L19468809 19998214
L19325952 19998214
L19135476 19950595
L19040238 19902976
L18945000 19807738
L18897380 19664880
L18897380 19569642
L18945000 19426785
L18992619 19379166
" />
<path d="M18897380 19045833
L18897380 18426785
L19278333 18760119
L19278333 18617261
L19325952 18522023
L19373571 18474404
L19468809 18426785
L19706904 18426785
L19802142 18474404
L19849761 18522023
L19897380 18617261
L19897380 18902976
L19849761 18998214
L19802142 19045833
" />
</g><text x="27225000.000000" y="20970000.000000"
textLength="3099762.000000" font-size="1333333.000000" lengthAdjust="spacingAndGlyphs"
text-anchor="middle" opacity="0">C10</text>
<g class="stroked-text"><desc>C10</desc>
<path d="M26582142 20827142
L26534523 20874761
L26391666 20922380
L26296428 20922380
L26153571 20874761
L26058333 20779523
L26010714 20684285
L25963095 20493809
L25963095 20350952
L26010714 20160476
L26058333 20065238
L26153571 19970000
L26296428 19922380
L26391666 19922380
L26534523 19970000
L26582142 20017619
" />
<path d="M27534523 20922380
L26963095 20922380
" />
<path d="M27248809 20922380
L27248809 19922380
L27153571 20065238
L27058333 20160476
L26963095 20208095
" />
<path d="M28153571 19922380
L28248809 19922380
L28344047 19970000
L28391666 20017619
L28439285 20112857
L28486904 20303333
L28486904 20541428
L28439285 20731904
L28391666 20827142
L28344047 20874761
L28248809 20922380
L28153571 20922380
L28058333 20874761
L28010714 20827142
L27963095 20731904
L27915476 20541428
L27915476 20303333
L27963095 20112857
L28010714 20017619
L28058333 19970000
L28153571 19922380
" />
</g><text x="22215100.000000" y="14891200.000000"
textLength="2147381.000000" font-size="1333333.000000" lengthAdjust="spacingAndGlyphs"
text-anchor="middle" opacity="0">C8</text>
<g class="stroked-text"><desc>C8</desc>
<path d="M22048433 14748342
L22000814 14795961
L21857957 14843580
L21762719 14843580
L21619861 14795961
L21524623 14700723
L21477004 14605485
L21429385 14415009
L21429385 14272152
L21477004 14081676
L21524623 13986438
L21619861 13891200
L21762719 13843580
L21857957 13843580
L22000814 13891200
L22048433 13938819
" />
<path d="M22619861 14272152
L22524623 14224533
L22477004 14176914
L22429385 14081676
L22429385 14034057
L22477004 13938819
L22524623 13891200
L22619861 13843580
L22810338 13843580
L22905576 13891200
L22953195 13938819
L23000814 14034057
L23000814 14081676
L22953195 14176914
L22905576 14224533
L22810338 14272152
L22619861 14272152
L22524623 14319771
L22477004 14367390
L22429385 14462628
L22429385 14653104
L22477004 14748342
L22524623 14795961
L22619861 14843580
L22810338 14843580
L22905576 14795961
L22953195 14748342
L23000814 14653104
L23000814 14462628
L22953195 14367390
L22905576 14319771
L22810338 14272152
" />
</g><text x="23925000.000000" y="15000000.000000"
textLength="2195000.000000" font-size="1333333.000000" lengthAdjust="spacingAndGlyphs"
text-anchor="middle" opacity="0">U2</text>
<g class="stroked-text"><desc>U2</desc>
<path d="M23163095 13952380
L23163095 14761904
L23210714 14857142
L23258333 14904761
L23353571 14952380
L23544047 14952380
L23639285 14904761
L23686904 14857142
L23734523 14761904
L23734523 13952380
" />
<path d="M24163095 14047619
L24210714 14000000
L24305952 13952380
L24544047 13952380
L24639285 14000000
L24686904 14047619
L24734523 14142857
L24734523 14238095
L24686904 14380952
L24115476 14952380
L24734523 14952380
" />
</g><text x="16875000.000000" y="32005000.000000"
textLength="3099762.000000" font-size="1333333.000000" lengthAdjust="spacingAndGlyphs"
text-anchor="middle" opacity="0">C14</text>
<g class="stroked-text"><desc>C14</desc>
<path d="M16232142 31862142
L16184523 31909761
L16041666 31957380
L15946428 31957380
L15803571 31909761
L15708333 31814523
L15660714 31719285
L15613095 31528809
L15613095 31385952
L15660714 31195476
L15708333 31100238
L15803571 31005000
L15946428 30957380
L16041666 30957380
L16184523 31005000
L16232142 31052619
" />
<path d="M17184523 31957380
L16613095 31957380
" />
<path d="M16898809 31957380
L16898809 30957380
L16803571 31100238
L16708333 31195476
L16613095 31243095
" />
<path d="M18041666 31290714
L18041666 31957380
" />
<path d="M17803571 30909761
L17565476 31624047
L18184523 31624047
" />
</g><text x="20300000.000000" y="14210000.000000"
textLength="1909286.000000" font-size="1333333.000000" lengthAdjust="spacingAndGlyphs"
text-anchor="middle" opacity="0">J1</text>
<g class="stroked-text"><desc>J1</desc>
<path d="M19966666 13162380
L19966666 13876666
L19919047 14019523
L19823809 14114761
L19680952 14162380
L19585714 14162380
" />
<path d="M20966666 14162380
L20395238 14162380
" />
<path d="M20680952 14162380
L20680952 13162380
L20585714 13305238
L20490476 13400476
L20395238 13448095
" />
</g><g transform="rotate(-90.000000 18720000.000000 41900000.000000)">
<text x="18720000.000000" y="42400000.000000"
textLength="3099762.000000" font-size="1333333.000000" lengthAdjust="spacingAndGlyphs"
text-anchor="middle" opacity="0">C20</text>
</g>
<g class="stroked-text"><desc>C20</desc>
<path d="M19077142 42542857
L19124761 42590476
L19172380 42733333
L19172380 42828571
L19124761 42971428
L19029523 43066666
L18934285 43114285
L18743809 43161904
L18600952 43161904
L18410476 43114285
L18315238 43066666
L18220000 42971428
L18172380 42828571
L18172380 42733333
L18220000 42590476
L18267619 42542857
" />
<path d="M18267619 42161904
L18220000 42114285
L18172380 42019047
L18172380 41780952
L18220000 41685714
L18267619 41638095
L18362857 41590476
L18458095 41590476
L18600952 41638095
L19172380 42209523
L19172380 41590476
" />
<path d="M18172380 40971428
L18172380 40876190
L18220000 40780952
L18267619 40733333
L18362857 40685714
L18553333 40638095
L18791428 40638095
L18981904 40685714
L19077142 40733333
L19124761 40780952
L19172380 40876190
L19172380 40971428
L19124761 41066666
L19077142 41114285
L18981904 41161904
L18791428 41209523
L18553333 41209523
L18362857 41161904
L18267619 41114285
L18220000 41066666
L18172380 40971428
" />
</g><g transform="rotate(-90.000000 17945000.000000 19600000.000000)">
<text x="17945000.000000" y="20100000.000000"
textLength="2147381.000000" font-size="1333333.000000" lengthAdjust="spacingAndGlyphs"
text-anchor="middle" opacity="0">C1</text>
</g>
<g class="stroked-text"><desc>C1</desc>
<path d="M18302142 19766666
L18349761 19814285
L18397380 19957142
L18397380 20052380
L18349761 20195238
L18254523 20290476
L18159285 20338095
L17968809 20385714
L17825952 20385714
L17635476 20338095
L17540238 20290476
L17445000 20195238
L17397380 20052380
L17397380 19957142
L17445000 19814285
L17492619 19766666
" />
<path d="M18397380 18814285
L18397380 19385714
" />
<path d="M18397380 19100000
L17397380 19100000
L17540238 19195238
L17635476 19290476
L17683095 19385714
" />
</g><g transform="rotate(-90.000000 23371000.000000 15755000.000000)">
<text x="23371000.000000" y="16255000.000000"
textLength="2147381.000000" font-size="1333333.000000" lengthAdjust="spacingAndGlyphs"
text-anchor="middle" opacity="0">C6</text>
</g>
<g class="stroked-text"><desc>C6</desc>
<path d="M23728142 15921666
L23775761 15969285
L23823380 16112142
L23823380 16207380
L23775761 16350238
L23680523 16445476
L23585285 16493095
L23394809 16540714
L23251952 16540714
L23061476 16493095
L22966238 16445476
L22871000 16350238
L22823380 16207380
L22823380 16112142
L22871000 15969285
L22918619 15921666
" />
<path d="M22823380 15064523
L22823380 15255000
L22871000 15350238
L22918619 15397857
L23061476 15493095
L23251952 15540714
L23632904 15540714
L23728142 15493095
L23775761 15445476
L23823380 15350238
L23823380 15159761
L23775761 15064523
L23728142 15016904
L23632904 14969285
L23394809 14969285
L23299571 15016904
L23251952 15064523
L23204333 15159761
L23204333 15350238
L23251952 15445476
L23299571 15493095
L23394809 15540714
" />
</g><text x="19850000.000000" y="40305000.000000"
textLength="3099762.000000" font-size="1333333.000000" lengthAdjust="spacingAndGlyphs"
text-anchor="middle" opacity="0">C19</text>
<g class="stroked-text"><desc>C19</desc>
<path d="M19207142 40162142
L19159523 40209761
L19016666 40257380
L18921428 40257380
L18778571 40209761
L18683333 40114523
L18635714 40019285
L18588095 39828809
L18588095 39685952
L18635714 39495476
L18683333 39400238
L18778571 39305000
L18921428 39257380
L19016666 39257380
L19159523 39305000
L19207142 39352619
" />
<path d="M20159523 40257380
L19588095 40257380
" />
<path d="M19873809 40257380
L19873809 39257380
L19778571 39400238
L19683333 39495476
L19588095 39543095
" />
<path d="M20635714 40257380
L20826190 40257380
L20921428 40209761
L20969047 40162142
L21064285 40019285
L21111904 39828809
L21111904 39447857
L21064285 39352619
L21016666 39305000
L20921428 39257380
L20730952 39257380
L20635714 39305000
L20588095 39352619
L20540476 39447857
L20540476 39685952
L20588095 39781190
L20635714 39828809
L20730952 39876428
L20921428 39876428
L21016666 39828809
L21064285 39781190
L21111904 39685952
" />
</g><text x="15389000.000000" y="27308000.000000"
textLength="2004524.000000" font-size="1333333.000000" lengthAdjust="spacingAndGlyphs"
text-anchor="middle" opacity="0">Y1</text>
<g class="stroked-text"><desc>Y1</desc>
<path d="M14912809 26784190
L14912809 27260380
" />
<path d="M14579476 26260380
L14912809 26784190
L15246142 26260380
" />
<path d="M16103285 27260380
L15531857 27260380
" />
<path d="M15817571 27260380
L15817571 26260380
L15722333 26403238
L15627095 26498476
L15531857 26546095
" />
</g></g>
<g style="fill:#F2EDA1; fill-opacity:0.0; 
stroke:#F2EDA1; stroke-width:120000.000000; stroke-opacity:1; 
stroke-linecap:round; stroke-linejoin:round;">
<path d="M22860000 19733767
L22860000 19441233
" />
<path d="M21840000 19733767
L21840000 19441233
" />
<path d="M34705000 17870000
L34705000 40790000
" />
<path d="M32045000 40790000
L34705000 40790000
" />
<path d="M32045000 15270000
L33375000 15270000
" />
<path d="M32045000 17870000
L32045000 40790000
" />
<path d="M32045000 16600000
L32045000 15270000
" />
<path d="M32045000 17870000
L34705000 17870000
" />
<path d="M26646267 9710000
L26353733 9710000
" />
<path d="M26646267 8690000
L26353733 8690000
" />
<path d="M21360000 15803733
L21360000 16096267
" />
<path d="M20340000 15803733
L20340000 16096267
" />
<path d="M22597500 26235000
L22947500 26235000
" />
<path d="M18727500 26235000
L18727500 25885000
" />
<path d="M22947500 26235000
L22947500 25885000
" />
<path d="M22947500 22015000
L22947500 22365000
" />
<path d="M22597500 22015000
L22947500 22015000
" />
<path d="M19077500 26235000
L18727500 26235000
" />
<path d="M19077500 22015000
L18727500 22015000
" />
<path d="M27128733 23660000
L27421267 23660000
" />
<path d="M27128733 22640000
L27421267 22640000
" />
<path d="M19858767 32915000
L19566233 32915000
" />
<path d="M19858767 33935000
L19566233 33935000
" />
<path d="M495000 18395000
L495000 41315000
" />
<path d="M495000 15795000
L1825000 15795000
" />
<path d="M3155000 18395000
L3155000 41315000
" />
<path d="M495000 41315000
L3155000 41315000
" />
<path d="M495000 18395000
L3155000 18395000
" />
<path d="M495000 17125000
L495000 15795000
" />
<path d="M8045000 16175000
L8045000 14845000
" />
<path d="M8045000 40365000
L10705000 40365000
" />
<path d="M8045000 14845000
L9375000 14845000
" />
<path d="M10705000 17445000
L10705000 40365000
" />
<path d="M8045000 17445000
L10705000 17445000
" />
<path d="M8045000 17445000
L8045000 40365000
" />
<path d="M24203733 30485000
L24496267 30485000
" />
<path d="M24203733 29465000
L24496267 29465000
" />
<path d="M20165000 35728733
L20165000 36071267
" />
<path d="M21185000 35728733
L21185000 36071267
" />
<path d="M17046267 28860000
L16753733 28860000
" />
<path d="M17046267 27840000
L16753733 27840000
" />
<path d="M19885000 16203733
L19885000 16496267
" />
<path d="M18865000 16203733
L18865000 16496267
" />
<path d="M24335000 19896267
L24335000 19603733
" />
<path d="M23315000 19896267
L23315000 19603733
" />
<path d="M21277500 29028733
L21277500 29371267
" />
<path d="M22297500 29028733
L22297500 29371267
" />
<path d="M26435000 19871267
L26435000 19578733
" />
<path d="M25415000 19871267
L25415000 19578733
" />
<path d="M28615000 12328733
L28615000 12621267
" />
<path d="M29635000 12328733
L29635000 12621267
" />
<path d="M24141233 28760000
L24433767 28760000
" />
<path d="M24141233 27740000
L24433767 27740000
" />
<path d="M23903733 22410000
L24246267 22410000
" />
<path d="M23903733 21390000
L24246267 21390000
" />
<path d="M19872500 29028733
L19872500 29371267
" />
<path d="M18852500 29028733
L18852500 29371267
" />
<path d="M20365000 19358767
L20365000 19066233
" />
<path d="M21385000 19358767
L21385000 19066233
" />
<path d="M27078733 22410000
L27371267 22410000
" />
<path d="M27078733 21390000
L27371267 21390000
" />
<path d="M25303733 16365000
L25596267 16365000
" />
<path d="M25303733 17385000
L25596267 17385000
" />
<path d="M28060000 12375000
L28060000 13175000
" />
<path d="M24940000 12375000
L24940000 13175000
" />
<path d="M24940000 12375000
L24940000 11575000
" />
<path d="M28060000 12375000
L28060000 10575000
" />
<path d="M17021267 30585000
L16728733 30585000
" />
<path d="M17021267 29565000
L16728733 29565000
" />
<path d="M16540000 7920000
L16540000 7520000
" />
<path d="M16540000 9890000
L16540000 11870000
" />
<path d="M21610000 12550000
L22060000 12550000
" />
<path d="M24060000 7520000
L24060000 7920000
" />
<path d="M24060000 9890000
L24060000 11870000
" />
<path d="M24060000 11870000
L23640000 11870000
" />
<path d="M22060000 12100000
L22060000 12550000
" />
<path d="M16540000 11870000
L16960000 11870000
" />
<path d="M19640000 42046267
L19640000 41753733
" />
<path d="M20660000 42046267
L20660000 41753733
" />
<path d="M19885000 19746267
L19885000 19453733
" />
<path d="M18865000 19746267
L18865000 19453733
" />
<path d="M23185000 15978733
L23185000 16271267
" />
<path d="M22165000 15978733
L22165000 16271267
" />
<path d="M19996267 37865000
L19703733 37865000
" />
<path d="M19996267 38885000
L19703733 38885000
" />
<path d="M15725000 24800000
L15725000 27100000
" />
<path d="M15725000 27100000
L18425000 27100000
" />
<g >
</g>
<g >
</g>
<g >
</g>
<g >
</g>
<g >
</g>
<g >
</g>
<g >
</g>
<g >
</g>
<g >
</g>
<g >
</g>
<g >
</g>
<g >
</g>
<g >
</g>
<g >
</g>
<g >
</g>
<g >
</g>
<g >
</g>
<g >
</g>
<g >
</g>
<g >
</g>
<g >
</g>
<g >
</g>
<g >
</g>
<g >
</g>
<g >
</g>
<g >
</g>
<g >
</g>
<g >
</g>
<g >
</g>
<g >
</g>
<g >
</g>
<g >
</g>
<g >
</g>
<g >
</g>
<g >
</g>
</g>
<g style="fill:#000000; fill-opacity:0.0; 
stroke:#000000; stroke-width:120000.000000; stroke-opacity:1; 
stroke-linecap:round; stroke-linejoin:round;">
</g>
<g style="fill:#D0D2CD; fill-opacity:0.0; 
stroke:#D0D2CD; stroke-width:120000.000000; stroke-opacity:1; 
stroke-linecap:round; stroke-linejoin:round;">
</g>
<g style="fill:#D0D2CD; fill-opacity:0.0; 
stroke:#D0D2CD; stroke-width:50000.000000; stroke-opacity:1; 
stroke-linecap:round; stroke-linejoin:round;">
<path d="M6375000 600000
L36375000 600000
" />
<path d="M36375000 600000
L36375000 50600000
" />
<path d="M36375000 50600000
L6375000 50600000
" />
<path d="M6375000 50600000
L6375000 600000
" />
<g >
</g>
<g >
</g>
<g >
</g>
<g >
</g>
<g >
</g>
<g >
</g>
<g >
</g>
<g >
</g>
<g >
</g>
<g >
</g>
<g >
</g>
<g >
</g>
<g >
</g>
<g >
</g>
<g >
</g>
<g >
</g>
<g >
</g>
<g >
</g>
<g >
</g>
<g >
</g>
<g >
</g>
<g >
</g>
<g >
</g>
<g >
</g>
<g >
</g>
<g >
</g>
<g >
</g>
<g >
</g>
<g >
</g>
<g >
</g>
<g >
</g>
<g >
</g>
<g >
</g>
<g >
</g>
<g >
</g>
</g> 
</svg>
