%TF.GenerationSoftware,KiCad,Pcbnew,(6.0.9)*%
%TF.CreationDate,2022-11-19T16:26:50-05:00*%
%TF.ProjectId,EFR32MG22_module,45465233-324d-4473-9232-5f6d6f64756c,rev?*%
%TF.SameCoordinates,Original*%
%TF.FileFunction,Legend,Top*%
%TF.FilePolarity,Positive*%
%FSLAX46Y46*%
G04 Gerber Fmt 4.6, Leading zero omitted, Abs format (unit mm)*
G04 Created by KiCad (PCBNEW (6.0.9)) date 2022-11-19 16:26:50*
%MOMM*%
%LPD*%
G01*
G04 APERTURE LIST*
G04 Aperture macros list*
%AMRoundRect*
0 Rectangle with rounded corners*
0 $1 Rounding radius*
0 $2 $3 $4 $5 $6 $7 $8 $9 X,Y pos of 4 corners*
0 Add a 4 corners polygon primitive as box body*
4,1,4,$2,$3,$4,$5,$6,$7,$8,$9,$2,$3,0*
0 Add four circle primitives for the rounded corners*
1,1,$1+$1,$2,$3*
1,1,$1+$1,$4,$5*
1,1,$1+$1,$6,$7*
1,1,$1+$1,$8,$9*
0 Add four rect primitives between the rounded corners*
20,1,$1+$1,$2,$3,$4,$5,0*
20,1,$1+$1,$4,$5,$6,$7,0*
20,1,$1+$1,$6,$7,$8,$9,0*
20,1,$1+$1,$8,$9,$2,$3,0*%
G04 Aperture macros list end*
%ADD10C,0.150000*%
%ADD11C,0.121920*%
%ADD12C,0.250000*%
%ADD13C,0.120000*%
%ADD14C,0.100000*%
%ADD15RoundRect,0.237500X0.237500X-0.300000X0.237500X0.300000X-0.237500X0.300000X-0.237500X-0.300000X0*%
%ADD16R,1.700000X1.700000*%
%ADD17O,1.700000X1.700000*%
%ADD18RoundRect,0.237500X0.300000X0.237500X-0.300000X0.237500X-0.300000X-0.237500X0.300000X-0.237500X0*%
%ADD19RoundRect,0.237500X-0.237500X0.300000X-0.237500X-0.300000X0.237500X-0.300000X0.237500X0.300000X0*%
%ADD20RoundRect,0.050000X-0.300000X-0.050000X0.300000X-0.050000X0.300000X0.050000X-0.300000X0.050000X0*%
%ADD21RoundRect,0.050000X-0.050000X-0.300000X0.050000X-0.300000X0.050000X0.300000X-0.050000X0.300000X0*%
%ADD22R,2.900000X2.900000*%
%ADD23RoundRect,0.237500X-0.300000X-0.237500X0.300000X-0.237500X0.300000X0.237500X-0.300000X0.237500X0*%
%ADD24RoundRect,0.100000X0.130000X0.100000X-0.130000X0.100000X-0.130000X-0.100000X0.130000X-0.100000X0*%
%ADD25RoundRect,0.237500X-0.237500X0.287500X-0.237500X-0.287500X0.237500X-0.287500X0.237500X0.287500X0*%
%ADD26RoundRect,0.237500X-0.287500X-0.237500X0.287500X-0.237500X0.287500X0.237500X-0.287500X0.237500X0*%
%ADD27RoundRect,0.150000X-0.150000X0.512500X-0.150000X-0.512500X0.150000X-0.512500X0.150000X0.512500X0*%
%ADD28R,0.400000X1.350000*%
%ADD29R,1.200000X1.550000*%
%ADD30O,1.250000X0.950000*%
%ADD31R,1.500000X1.550000*%
%ADD32O,0.890000X1.550000*%
%ADD33R,1.200000X0.900000*%
%ADD34R,0.900000X0.800000*%
G04 APERTURE END LIST*
D10*
%TO.C,J3*%
X233957380Y-112133690D02*
X234671666Y-112133690D01*
X234814523Y-112181309D01*
X234909761Y-112276547D01*
X234957380Y-112419404D01*
X234957380Y-112514642D01*
X233957380Y-111752738D02*
X233957380Y-111133690D01*
X234338333Y-111467023D01*
X234338333Y-111324166D01*
X234385952Y-111228928D01*
X234433571Y-111181309D01*
X234528809Y-111133690D01*
X234766904Y-111133690D01*
X234862142Y-111181309D01*
X234909761Y-111228928D01*
X234957380Y-111324166D01*
X234957380Y-111609880D01*
X234909761Y-111705119D01*
X234862142Y-111752738D01*
X234469523Y-114031666D02*
X235074285Y-114031666D01*
X234348571Y-114394523D02*
X234771904Y-113124523D01*
X235195238Y-114394523D01*
X236344285Y-114394523D02*
X235920952Y-113789761D01*
X235618571Y-114394523D02*
X235618571Y-113124523D01*
X236102380Y-113124523D01*
X236223333Y-113185000D01*
X236283809Y-113245476D01*
X236344285Y-113366428D01*
X236344285Y-113547857D01*
X236283809Y-113668809D01*
X236223333Y-113729285D01*
X236102380Y-113789761D01*
X235618571Y-113789761D01*
X236888571Y-114394523D02*
X236888571Y-113124523D01*
X237311904Y-114031666D01*
X237735238Y-113124523D01*
X237735238Y-114394523D01*
X238037619Y-114515476D02*
X239005238Y-114515476D01*
X239247142Y-113245476D02*
X239307619Y-113185000D01*
X239428571Y-113124523D01*
X239730952Y-113124523D01*
X239851904Y-113185000D01*
X239912380Y-113245476D01*
X239972857Y-113366428D01*
X239972857Y-113487380D01*
X239912380Y-113668809D01*
X239186666Y-114394523D01*
X239972857Y-114394523D01*
X240396190Y-114394523D02*
X241061428Y-113547857D01*
X240396190Y-113547857D02*
X241061428Y-114394523D01*
X242150000Y-113124523D02*
X241545238Y-113124523D01*
X241484761Y-113729285D01*
X241545238Y-113668809D01*
X241666190Y-113608333D01*
X241968571Y-113608333D01*
X242089523Y-113668809D01*
X242150000Y-113729285D01*
X242210476Y-113850238D01*
X242210476Y-114152619D01*
X242150000Y-114273571D01*
X242089523Y-114334047D01*
X241968571Y-114394523D01*
X241666190Y-114394523D01*
X241545238Y-114334047D01*
X241484761Y-114273571D01*
%TO.C,C5*%
X225457142Y-94406666D02*
X225504761Y-94454285D01*
X225552380Y-94597142D01*
X225552380Y-94692380D01*
X225504761Y-94835238D01*
X225409523Y-94930476D01*
X225314285Y-94978095D01*
X225123809Y-95025714D01*
X224980952Y-95025714D01*
X224790476Y-94978095D01*
X224695238Y-94930476D01*
X224600000Y-94835238D01*
X224552380Y-94692380D01*
X224552380Y-94597142D01*
X224600000Y-94454285D01*
X224647619Y-94406666D01*
X224552380Y-93501904D02*
X224552380Y-93978095D01*
X225028571Y-94025714D01*
X224980952Y-93978095D01*
X224933333Y-93882857D01*
X224933333Y-93644761D01*
X224980952Y-93549523D01*
X225028571Y-93501904D01*
X225123809Y-93454285D01*
X225361904Y-93454285D01*
X225457142Y-93501904D01*
X225504761Y-93549523D01*
X225552380Y-93644761D01*
X225552380Y-93882857D01*
X225504761Y-93978095D01*
X225457142Y-94025714D01*
%TO.C,J4*%
X241206666Y-81232380D02*
X241206666Y-81946666D01*
X241159047Y-82089523D01*
X241063809Y-82184761D01*
X240920952Y-82232380D01*
X240825714Y-82232380D01*
X242111428Y-81565714D02*
X242111428Y-82232380D01*
X241873333Y-81184761D02*
X241635238Y-81899047D01*
X242254285Y-81899047D01*
%TO.C,C21*%
X237182142Y-81644642D02*
X237134523Y-81692261D01*
X236991666Y-81739880D01*
X236896428Y-81739880D01*
X236753571Y-81692261D01*
X236658333Y-81597023D01*
X236610714Y-81501785D01*
X236563095Y-81311309D01*
X236563095Y-81168452D01*
X236610714Y-80977976D01*
X236658333Y-80882738D01*
X236753571Y-80787500D01*
X236896428Y-80739880D01*
X236991666Y-80739880D01*
X237134523Y-80787500D01*
X237182142Y-80835119D01*
X237563095Y-80835119D02*
X237610714Y-80787500D01*
X237705952Y-80739880D01*
X237944047Y-80739880D01*
X238039285Y-80787500D01*
X238086904Y-80835119D01*
X238134523Y-80930357D01*
X238134523Y-81025595D01*
X238086904Y-81168452D01*
X237515476Y-81739880D01*
X238134523Y-81739880D01*
X239086904Y-81739880D02*
X238515476Y-81739880D01*
X238801190Y-81739880D02*
X238801190Y-80739880D01*
X238705952Y-80882738D01*
X238610714Y-80977976D01*
X238515476Y-81025595D01*
%TO.C,C4*%
X223397142Y-91056666D02*
X223444761Y-91104285D01*
X223492380Y-91247142D01*
X223492380Y-91342380D01*
X223444761Y-91485238D01*
X223349523Y-91580476D01*
X223254285Y-91628095D01*
X223063809Y-91675714D01*
X222920952Y-91675714D01*
X222730476Y-91628095D01*
X222635238Y-91580476D01*
X222540000Y-91485238D01*
X222492380Y-91342380D01*
X222492380Y-91247142D01*
X222540000Y-91104285D01*
X222587619Y-91056666D01*
X222825714Y-90199523D02*
X223492380Y-90199523D01*
X222444761Y-90437619D02*
X223159047Y-90675714D01*
X223159047Y-90056666D01*
%TO.C,U1*%
X225188095Y-96702380D02*
X225188095Y-97511904D01*
X225235714Y-97607142D01*
X225283333Y-97654761D01*
X225378571Y-97702380D01*
X225569047Y-97702380D01*
X225664285Y-97654761D01*
X225711904Y-97607142D01*
X225759523Y-97511904D01*
X225759523Y-96702380D01*
X226759523Y-97702380D02*
X226188095Y-97702380D01*
X226473809Y-97702380D02*
X226473809Y-96702380D01*
X226378571Y-96845238D01*
X226283333Y-96940476D01*
X226188095Y-96988095D01*
%TO.C,C11*%
X235697142Y-99787142D02*
X235649523Y-99834761D01*
X235506666Y-99882380D01*
X235411428Y-99882380D01*
X235268571Y-99834761D01*
X235173333Y-99739523D01*
X235125714Y-99644285D01*
X235078095Y-99453809D01*
X235078095Y-99310952D01*
X235125714Y-99120476D01*
X235173333Y-99025238D01*
X235268571Y-98930000D01*
X235411428Y-98882380D01*
X235506666Y-98882380D01*
X235649523Y-98930000D01*
X235697142Y-98977619D01*
X236649523Y-99882380D02*
X236078095Y-99882380D01*
X236363809Y-99882380D02*
X236363809Y-98882380D01*
X236268571Y-99025238D01*
X236173333Y-99120476D01*
X236078095Y-99168095D01*
X237601904Y-99882380D02*
X237030476Y-99882380D01*
X237316190Y-99882380D02*
X237316190Y-98882380D01*
X237220952Y-99025238D01*
X237125714Y-99120476D01*
X237030476Y-99168095D01*
%TO.C,D2*%
X232431904Y-88342380D02*
X232431904Y-87342380D01*
X232670000Y-87342380D01*
X232812857Y-87390000D01*
X232908095Y-87485238D01*
X232955714Y-87580476D01*
X233003333Y-87770952D01*
X233003333Y-87913809D01*
X232955714Y-88104285D01*
X232908095Y-88199523D01*
X232812857Y-88294761D01*
X232670000Y-88342380D01*
X232431904Y-88342380D01*
X233384285Y-87437619D02*
X233431904Y-87390000D01*
X233527142Y-87342380D01*
X233765238Y-87342380D01*
X233860476Y-87390000D01*
X233908095Y-87437619D01*
X233955714Y-87532857D01*
X233955714Y-87628095D01*
X233908095Y-87770952D01*
X233336666Y-88342380D01*
X233955714Y-88342380D01*
%TO.C,C20*%
X228307142Y-110205357D02*
X228354761Y-110252976D01*
X228402380Y-110395833D01*
X228402380Y-110491071D01*
X228354761Y-110633928D01*
X228259523Y-110729166D01*
X228164285Y-110776785D01*
X227973809Y-110824404D01*
X227830952Y-110824404D01*
X227640476Y-110776785D01*
X227545238Y-110729166D01*
X227450000Y-110633928D01*
X227402380Y-110491071D01*
X227402380Y-110395833D01*
X227450000Y-110252976D01*
X227497619Y-110205357D01*
X227497619Y-109824404D02*
X227450000Y-109776785D01*
X227402380Y-109681547D01*
X227402380Y-109443452D01*
X227450000Y-109348214D01*
X227497619Y-109300595D01*
X227592857Y-109252976D01*
X227688095Y-109252976D01*
X227830952Y-109300595D01*
X228402380Y-109872023D01*
X228402380Y-109252976D01*
X227402380Y-108633928D02*
X227402380Y-108538690D01*
X227450000Y-108443452D01*
X227497619Y-108395833D01*
X227592857Y-108348214D01*
X227783333Y-108300595D01*
X228021428Y-108300595D01*
X228211904Y-108348214D01*
X228307142Y-108395833D01*
X228354761Y-108443452D01*
X228402380Y-108538690D01*
X228402380Y-108633928D01*
X228354761Y-108729166D01*
X228307142Y-108776785D01*
X228211904Y-108824404D01*
X228021428Y-108872023D01*
X227783333Y-108872023D01*
X227592857Y-108824404D01*
X227497619Y-108776785D01*
X227450000Y-108729166D01*
X227402380Y-108633928D01*
%TO.C,J2*%
X217206666Y-80987380D02*
X217206666Y-81701666D01*
X217159047Y-81844523D01*
X217063809Y-81939761D01*
X216920952Y-81987380D01*
X216825714Y-81987380D01*
X217635238Y-81082619D02*
X217682857Y-81035000D01*
X217778095Y-80987380D01*
X218016190Y-80987380D01*
X218111428Y-81035000D01*
X218159047Y-81082619D01*
X218206666Y-81177857D01*
X218206666Y-81273095D01*
X218159047Y-81415952D01*
X217587619Y-81987380D01*
X218206666Y-81987380D01*
%TO.C,C16*%
X232707142Y-107397142D02*
X232659523Y-107444761D01*
X232516666Y-107492380D01*
X232421428Y-107492380D01*
X232278571Y-107444761D01*
X232183333Y-107349523D01*
X232135714Y-107254285D01*
X232088095Y-107063809D01*
X232088095Y-106920952D01*
X232135714Y-106730476D01*
X232183333Y-106635238D01*
X232278571Y-106540000D01*
X232421428Y-106492380D01*
X232516666Y-106492380D01*
X232659523Y-106540000D01*
X232707142Y-106587619D01*
X233659523Y-107492380D02*
X233088095Y-107492380D01*
X233373809Y-107492380D02*
X233373809Y-106492380D01*
X233278571Y-106635238D01*
X233183333Y-106730476D01*
X233088095Y-106778095D01*
X234516666Y-106492380D02*
X234326190Y-106492380D01*
X234230952Y-106540000D01*
X234183333Y-106587619D01*
X234088095Y-106730476D01*
X234040476Y-106920952D01*
X234040476Y-107301904D01*
X234088095Y-107397142D01*
X234135714Y-107444761D01*
X234230952Y-107492380D01*
X234421428Y-107492380D01*
X234516666Y-107444761D01*
X234564285Y-107397142D01*
X234611904Y-107301904D01*
X234611904Y-107063809D01*
X234564285Y-106968571D01*
X234516666Y-106920952D01*
X234421428Y-106873333D01*
X234230952Y-106873333D01*
X234135714Y-106920952D01*
X234088095Y-106968571D01*
X234040476Y-107063809D01*
%TO.C,C15*%
X221437142Y-105362857D02*
X221484761Y-105410476D01*
X221532380Y-105553333D01*
X221532380Y-105648571D01*
X221484761Y-105791428D01*
X221389523Y-105886666D01*
X221294285Y-105934285D01*
X221103809Y-105981904D01*
X220960952Y-105981904D01*
X220770476Y-105934285D01*
X220675238Y-105886666D01*
X220580000Y-105791428D01*
X220532380Y-105648571D01*
X220532380Y-105553333D01*
X220580000Y-105410476D01*
X220627619Y-105362857D01*
X221532380Y-104410476D02*
X221532380Y-104981904D01*
X221532380Y-104696190D02*
X220532380Y-104696190D01*
X220675238Y-104791428D01*
X220770476Y-104886666D01*
X220818095Y-104981904D01*
X220532380Y-103505714D02*
X220532380Y-103981904D01*
X221008571Y-104029523D01*
X220960952Y-103981904D01*
X220913333Y-103886666D01*
X220913333Y-103648571D01*
X220960952Y-103553333D01*
X221008571Y-103505714D01*
X221103809Y-103458095D01*
X221341904Y-103458095D01*
X221437142Y-103505714D01*
X221484761Y-103553333D01*
X221532380Y-103648571D01*
X221532380Y-103886666D01*
X221484761Y-103981904D01*
X221437142Y-104029523D01*
%TO.C,C2*%
X221917142Y-91046666D02*
X221964761Y-91094285D01*
X222012380Y-91237142D01*
X222012380Y-91332380D01*
X221964761Y-91475238D01*
X221869523Y-91570476D01*
X221774285Y-91618095D01*
X221583809Y-91665714D01*
X221440952Y-91665714D01*
X221250476Y-91618095D01*
X221155238Y-91570476D01*
X221060000Y-91475238D01*
X221012380Y-91332380D01*
X221012380Y-91237142D01*
X221060000Y-91094285D01*
X221107619Y-91046666D01*
X221107619Y-90665714D02*
X221060000Y-90618095D01*
X221012380Y-90522857D01*
X221012380Y-90284761D01*
X221060000Y-90189523D01*
X221107619Y-90141904D01*
X221202857Y-90094285D01*
X221298095Y-90094285D01*
X221440952Y-90141904D01*
X222012380Y-90713333D01*
X222012380Y-90094285D01*
%TO.C,C7*%
X231453333Y-92147142D02*
X231405714Y-92194761D01*
X231262857Y-92242380D01*
X231167619Y-92242380D01*
X231024761Y-92194761D01*
X230929523Y-92099523D01*
X230881904Y-92004285D01*
X230834285Y-91813809D01*
X230834285Y-91670952D01*
X230881904Y-91480476D01*
X230929523Y-91385238D01*
X231024761Y-91290000D01*
X231167619Y-91242380D01*
X231262857Y-91242380D01*
X231405714Y-91290000D01*
X231453333Y-91337619D01*
X231786666Y-91242380D02*
X232453333Y-91242380D01*
X232024761Y-92242380D01*
%TO.C,C19*%
X226454642Y-107452142D02*
X226407023Y-107499761D01*
X226264166Y-107547380D01*
X226168928Y-107547380D01*
X226026071Y-107499761D01*
X225930833Y-107404523D01*
X225883214Y-107309285D01*
X225835595Y-107118809D01*
X225835595Y-106975952D01*
X225883214Y-106785476D01*
X225930833Y-106690238D01*
X226026071Y-106595000D01*
X226168928Y-106547380D01*
X226264166Y-106547380D01*
X226407023Y-106595000D01*
X226454642Y-106642619D01*
X227407023Y-107547380D02*
X226835595Y-107547380D01*
X227121309Y-107547380D02*
X227121309Y-106547380D01*
X227026071Y-106690238D01*
X226930833Y-106785476D01*
X226835595Y-106833095D01*
X227883214Y-107547380D02*
X228073690Y-107547380D01*
X228168928Y-107499761D01*
X228216547Y-107452142D01*
X228311785Y-107309285D01*
X228359404Y-107118809D01*
X228359404Y-106737857D01*
X228311785Y-106642619D01*
X228264166Y-106595000D01*
X228168928Y-106547380D01*
X227978452Y-106547380D01*
X227883214Y-106595000D01*
X227835595Y-106642619D01*
X227787976Y-106737857D01*
X227787976Y-106975952D01*
X227835595Y-107071190D01*
X227883214Y-107118809D01*
X227978452Y-107166428D01*
X228168928Y-107166428D01*
X228264166Y-107118809D01*
X228311785Y-107071190D01*
X228359404Y-106975952D01*
%TO.C,L1*%
X228472380Y-105476666D02*
X228472380Y-105952857D01*
X227472380Y-105952857D01*
X228472380Y-104619523D02*
X228472380Y-105190952D01*
X228472380Y-104905238D02*
X227472380Y-104905238D01*
X227615238Y-105000476D01*
X227710476Y-105095714D01*
X227758095Y-105190952D01*
%TO.C,FB2*%
X230416666Y-105818571D02*
X230083333Y-105818571D01*
X230083333Y-106342380D02*
X230083333Y-105342380D01*
X230559523Y-105342380D01*
X231273809Y-105818571D02*
X231416666Y-105866190D01*
X231464285Y-105913809D01*
X231511904Y-106009047D01*
X231511904Y-106151904D01*
X231464285Y-106247142D01*
X231416666Y-106294761D01*
X231321428Y-106342380D01*
X230940476Y-106342380D01*
X230940476Y-105342380D01*
X231273809Y-105342380D01*
X231369047Y-105390000D01*
X231416666Y-105437619D01*
X231464285Y-105532857D01*
X231464285Y-105628095D01*
X231416666Y-105723333D01*
X231369047Y-105770952D01*
X231273809Y-105818571D01*
X230940476Y-105818571D01*
X231892857Y-105437619D02*
X231940476Y-105390000D01*
X232035714Y-105342380D01*
X232273809Y-105342380D01*
X232369047Y-105390000D01*
X232416666Y-105437619D01*
X232464285Y-105532857D01*
X232464285Y-105628095D01*
X232416666Y-105770952D01*
X231845238Y-106342380D01*
X232464285Y-106342380D01*
%TO.C,C9*%
X236382142Y-93841666D02*
X236429761Y-93889285D01*
X236477380Y-94032142D01*
X236477380Y-94127380D01*
X236429761Y-94270238D01*
X236334523Y-94365476D01*
X236239285Y-94413095D01*
X236048809Y-94460714D01*
X235905952Y-94460714D01*
X235715476Y-94413095D01*
X235620238Y-94365476D01*
X235525000Y-94270238D01*
X235477380Y-94127380D01*
X235477380Y-94032142D01*
X235525000Y-93889285D01*
X235572619Y-93841666D01*
X236477380Y-93365476D02*
X236477380Y-93175000D01*
X236429761Y-93079761D01*
X236382142Y-93032142D01*
X236239285Y-92936904D01*
X236048809Y-92889285D01*
X235667857Y-92889285D01*
X235572619Y-92936904D01*
X235525000Y-92984523D01*
X235477380Y-93079761D01*
X235477380Y-93270238D01*
X235525000Y-93365476D01*
X235572619Y-93413095D01*
X235667857Y-93460714D01*
X235905952Y-93460714D01*
X236001190Y-93413095D01*
X236048809Y-93365476D01*
X236096428Y-93270238D01*
X236096428Y-93079761D01*
X236048809Y-92984523D01*
X236001190Y-92936904D01*
X235905952Y-92889285D01*
%TO.C,C22*%
X238427142Y-90927142D02*
X238379523Y-90974761D01*
X238236666Y-91022380D01*
X238141428Y-91022380D01*
X237998571Y-90974761D01*
X237903333Y-90879523D01*
X237855714Y-90784285D01*
X237808095Y-90593809D01*
X237808095Y-90450952D01*
X237855714Y-90260476D01*
X237903333Y-90165238D01*
X237998571Y-90070000D01*
X238141428Y-90022380D01*
X238236666Y-90022380D01*
X238379523Y-90070000D01*
X238427142Y-90117619D01*
X238808095Y-90117619D02*
X238855714Y-90070000D01*
X238950952Y-90022380D01*
X239189047Y-90022380D01*
X239284285Y-90070000D01*
X239331904Y-90117619D01*
X239379523Y-90212857D01*
X239379523Y-90308095D01*
X239331904Y-90450952D01*
X238760476Y-91022380D01*
X239379523Y-91022380D01*
X239760476Y-90117619D02*
X239808095Y-90070000D01*
X239903333Y-90022380D01*
X240141428Y-90022380D01*
X240236666Y-90070000D01*
X240284285Y-90117619D01*
X240331904Y-90212857D01*
X240331904Y-90308095D01*
X240284285Y-90450952D01*
X239712857Y-91022380D01*
X240331904Y-91022380D01*
%TO.C,C17*%
X234507142Y-101877142D02*
X234459523Y-101924761D01*
X234316666Y-101972380D01*
X234221428Y-101972380D01*
X234078571Y-101924761D01*
X233983333Y-101829523D01*
X233935714Y-101734285D01*
X233888095Y-101543809D01*
X233888095Y-101400952D01*
X233935714Y-101210476D01*
X233983333Y-101115238D01*
X234078571Y-101020000D01*
X234221428Y-100972380D01*
X234316666Y-100972380D01*
X234459523Y-101020000D01*
X234507142Y-101067619D01*
X235459523Y-101972380D02*
X234888095Y-101972380D01*
X235173809Y-101972380D02*
X235173809Y-100972380D01*
X235078571Y-101115238D01*
X234983333Y-101210476D01*
X234888095Y-101258095D01*
X235792857Y-100972380D02*
X236459523Y-100972380D01*
X236030952Y-101972380D01*
%TO.C,L3*%
X233503333Y-98792380D02*
X233027142Y-98792380D01*
X233027142Y-97792380D01*
X233741428Y-97792380D02*
X234360476Y-97792380D01*
X234027142Y-98173333D01*
X234170000Y-98173333D01*
X234265238Y-98220952D01*
X234312857Y-98268571D01*
X234360476Y-98363809D01*
X234360476Y-98601904D01*
X234312857Y-98697142D01*
X234265238Y-98744761D01*
X234170000Y-98792380D01*
X233884285Y-98792380D01*
X233789047Y-98744761D01*
X233741428Y-98697142D01*
%TO.C,FB1*%
X225136666Y-105618571D02*
X224803333Y-105618571D01*
X224803333Y-106142380D02*
X224803333Y-105142380D01*
X225279523Y-105142380D01*
X225993809Y-105618571D02*
X226136666Y-105666190D01*
X226184285Y-105713809D01*
X226231904Y-105809047D01*
X226231904Y-105951904D01*
X226184285Y-106047142D01*
X226136666Y-106094761D01*
X226041428Y-106142380D01*
X225660476Y-106142380D01*
X225660476Y-105142380D01*
X225993809Y-105142380D01*
X226089047Y-105190000D01*
X226136666Y-105237619D01*
X226184285Y-105332857D01*
X226184285Y-105428095D01*
X226136666Y-105523333D01*
X226089047Y-105570952D01*
X225993809Y-105618571D01*
X225660476Y-105618571D01*
X227184285Y-106142380D02*
X226612857Y-106142380D01*
X226898571Y-106142380D02*
X226898571Y-105142380D01*
X226803333Y-105285238D01*
X226708095Y-105380476D01*
X226612857Y-105428095D01*
%TO.C,C3*%
X223747142Y-94426666D02*
X223794761Y-94474285D01*
X223842380Y-94617142D01*
X223842380Y-94712380D01*
X223794761Y-94855238D01*
X223699523Y-94950476D01*
X223604285Y-94998095D01*
X223413809Y-95045714D01*
X223270952Y-95045714D01*
X223080476Y-94998095D01*
X222985238Y-94950476D01*
X222890000Y-94855238D01*
X222842380Y-94712380D01*
X222842380Y-94617142D01*
X222890000Y-94474285D01*
X222937619Y-94426666D01*
X222842380Y-94093333D02*
X222842380Y-93474285D01*
X223223333Y-93807619D01*
X223223333Y-93664761D01*
X223270952Y-93569523D01*
X223318571Y-93521904D01*
X223413809Y-93474285D01*
X223651904Y-93474285D01*
X223747142Y-93521904D01*
X223794761Y-93569523D01*
X223842380Y-93664761D01*
X223842380Y-93950476D01*
X223794761Y-94045714D01*
X223747142Y-94093333D01*
%TO.C,C10*%
X236582142Y-95527142D02*
X236534523Y-95574761D01*
X236391666Y-95622380D01*
X236296428Y-95622380D01*
X236153571Y-95574761D01*
X236058333Y-95479523D01*
X236010714Y-95384285D01*
X235963095Y-95193809D01*
X235963095Y-95050952D01*
X236010714Y-94860476D01*
X236058333Y-94765238D01*
X236153571Y-94670000D01*
X236296428Y-94622380D01*
X236391666Y-94622380D01*
X236534523Y-94670000D01*
X236582142Y-94717619D01*
X237534523Y-95622380D02*
X236963095Y-95622380D01*
X237248809Y-95622380D02*
X237248809Y-94622380D01*
X237153571Y-94765238D01*
X237058333Y-94860476D01*
X236963095Y-94908095D01*
X238153571Y-94622380D02*
X238248809Y-94622380D01*
X238344047Y-94670000D01*
X238391666Y-94717619D01*
X238439285Y-94812857D01*
X238486904Y-95003333D01*
X238486904Y-95241428D01*
X238439285Y-95431904D01*
X238391666Y-95527142D01*
X238344047Y-95574761D01*
X238248809Y-95622380D01*
X238153571Y-95622380D01*
X238058333Y-95574761D01*
X238010714Y-95527142D01*
X237963095Y-95431904D01*
X237915476Y-95241428D01*
X237915476Y-95003333D01*
X237963095Y-94812857D01*
X238010714Y-94717619D01*
X238058333Y-94670000D01*
X238153571Y-94622380D01*
%TO.C,C8*%
X236708333Y-91757142D02*
X236660714Y-91804761D01*
X236517857Y-91852380D01*
X236422619Y-91852380D01*
X236279761Y-91804761D01*
X236184523Y-91709523D01*
X236136904Y-91614285D01*
X236089285Y-91423809D01*
X236089285Y-91280952D01*
X236136904Y-91090476D01*
X236184523Y-90995238D01*
X236279761Y-90900000D01*
X236422619Y-90852380D01*
X236517857Y-90852380D01*
X236660714Y-90900000D01*
X236708333Y-90947619D01*
X237279761Y-91280952D02*
X237184523Y-91233333D01*
X237136904Y-91185714D01*
X237089285Y-91090476D01*
X237089285Y-91042857D01*
X237136904Y-90947619D01*
X237184523Y-90900000D01*
X237279761Y-90852380D01*
X237470238Y-90852380D01*
X237565476Y-90900000D01*
X237613095Y-90947619D01*
X237660714Y-91042857D01*
X237660714Y-91090476D01*
X237613095Y-91185714D01*
X237565476Y-91233333D01*
X237470238Y-91280952D01*
X237279761Y-91280952D01*
X237184523Y-91328571D01*
X237136904Y-91376190D01*
X237089285Y-91471428D01*
X237089285Y-91661904D01*
X237136904Y-91757142D01*
X237184523Y-91804761D01*
X237279761Y-91852380D01*
X237470238Y-91852380D01*
X237565476Y-91804761D01*
X237613095Y-91757142D01*
X237660714Y-91661904D01*
X237660714Y-91471428D01*
X237613095Y-91376190D01*
X237565476Y-91328571D01*
X237470238Y-91280952D01*
%TO.C,U2*%
X235062380Y-88321904D02*
X235871904Y-88321904D01*
X235967142Y-88274285D01*
X236014761Y-88226666D01*
X236062380Y-88131428D01*
X236062380Y-87940952D01*
X236014761Y-87845714D01*
X235967142Y-87798095D01*
X235871904Y-87750476D01*
X235062380Y-87750476D01*
X235157619Y-87321904D02*
X235110000Y-87274285D01*
X235062380Y-87179047D01*
X235062380Y-86940952D01*
X235110000Y-86845714D01*
X235157619Y-86798095D01*
X235252857Y-86750476D01*
X235348095Y-86750476D01*
X235490952Y-86798095D01*
X236062380Y-87369523D01*
X236062380Y-86750476D01*
%TO.C,C14*%
X222397142Y-106077142D02*
X222349523Y-106124761D01*
X222206666Y-106172380D01*
X222111428Y-106172380D01*
X221968571Y-106124761D01*
X221873333Y-106029523D01*
X221825714Y-105934285D01*
X221778095Y-105743809D01*
X221778095Y-105600952D01*
X221825714Y-105410476D01*
X221873333Y-105315238D01*
X221968571Y-105220000D01*
X222111428Y-105172380D01*
X222206666Y-105172380D01*
X222349523Y-105220000D01*
X222397142Y-105267619D01*
X223349523Y-106172380D02*
X222778095Y-106172380D01*
X223063809Y-106172380D02*
X223063809Y-105172380D01*
X222968571Y-105315238D01*
X222873333Y-105410476D01*
X222778095Y-105458095D01*
X224206666Y-105505714D02*
X224206666Y-106172380D01*
X223968571Y-105124761D02*
X223730476Y-105839047D01*
X224349523Y-105839047D01*
%TO.C,J1*%
X228566666Y-80977380D02*
X228566666Y-81691666D01*
X228519047Y-81834523D01*
X228423809Y-81929761D01*
X228280952Y-81977380D01*
X228185714Y-81977380D01*
X229566666Y-81977380D02*
X228995238Y-81977380D01*
X229280952Y-81977380D02*
X229280952Y-80977380D01*
X229185714Y-81120238D01*
X229090476Y-81215476D01*
X228995238Y-81263095D01*
D11*
%TO.C,E1*%
X229913268Y-112971325D02*
X230075828Y-112971325D01*
X230145497Y-113226777D02*
X229913268Y-113226777D01*
X229913268Y-112739097D01*
X230145497Y-112739097D01*
X230609954Y-113226777D02*
X230331280Y-113226777D01*
X230470617Y-113226777D02*
X230470617Y-112739097D01*
X230424171Y-112808765D01*
X230377725Y-112855211D01*
X230331280Y-112878434D01*
D10*
%TO.C,D1*%
X233921904Y-81322380D02*
X233921904Y-80322380D01*
X234160000Y-80322380D01*
X234302857Y-80370000D01*
X234398095Y-80465238D01*
X234445714Y-80560476D01*
X234493333Y-80750952D01*
X234493333Y-80893809D01*
X234445714Y-81084285D01*
X234398095Y-81179523D01*
X234302857Y-81274761D01*
X234160000Y-81322380D01*
X233921904Y-81322380D01*
X235445714Y-81322380D02*
X234874285Y-81322380D01*
X235160000Y-81322380D02*
X235160000Y-80322380D01*
X235064761Y-80465238D01*
X234969523Y-80560476D01*
X234874285Y-80608095D01*
%TO.C,C18*%
X226667142Y-104247142D02*
X226619523Y-104294761D01*
X226476666Y-104342380D01*
X226381428Y-104342380D01*
X226238571Y-104294761D01*
X226143333Y-104199523D01*
X226095714Y-104104285D01*
X226048095Y-103913809D01*
X226048095Y-103770952D01*
X226095714Y-103580476D01*
X226143333Y-103485238D01*
X226238571Y-103390000D01*
X226381428Y-103342380D01*
X226476666Y-103342380D01*
X226619523Y-103390000D01*
X226667142Y-103437619D01*
X227619523Y-104342380D02*
X227048095Y-104342380D01*
X227333809Y-104342380D02*
X227333809Y-103342380D01*
X227238571Y-103485238D01*
X227143333Y-103580476D01*
X227048095Y-103628095D01*
X228190952Y-103770952D02*
X228095714Y-103723333D01*
X228048095Y-103675714D01*
X228000476Y-103580476D01*
X228000476Y-103532857D01*
X228048095Y-103437619D01*
X228095714Y-103390000D01*
X228190952Y-103342380D01*
X228381428Y-103342380D01*
X228476666Y-103390000D01*
X228524285Y-103437619D01*
X228571904Y-103532857D01*
X228571904Y-103580476D01*
X228524285Y-103675714D01*
X228476666Y-103723333D01*
X228381428Y-103770952D01*
X228190952Y-103770952D01*
X228095714Y-103818571D01*
X228048095Y-103866190D01*
X228000476Y-103961428D01*
X228000476Y-104151904D01*
X228048095Y-104247142D01*
X228095714Y-104294761D01*
X228190952Y-104342380D01*
X228381428Y-104342380D01*
X228476666Y-104294761D01*
X228524285Y-104247142D01*
X228571904Y-104151904D01*
X228571904Y-103961428D01*
X228524285Y-103866190D01*
X228476666Y-103818571D01*
X228381428Y-103770952D01*
%TO.C,C1*%
X222357142Y-94376666D02*
X222404761Y-94424285D01*
X222452380Y-94567142D01*
X222452380Y-94662380D01*
X222404761Y-94805238D01*
X222309523Y-94900476D01*
X222214285Y-94948095D01*
X222023809Y-94995714D01*
X221880952Y-94995714D01*
X221690476Y-94948095D01*
X221595238Y-94900476D01*
X221500000Y-94805238D01*
X221452380Y-94662380D01*
X221452380Y-94567142D01*
X221500000Y-94424285D01*
X221547619Y-94376666D01*
X222452380Y-93424285D02*
X222452380Y-93995714D01*
X222452380Y-93710000D02*
X221452380Y-93710000D01*
X221595238Y-93805238D01*
X221690476Y-93900476D01*
X221738095Y-93995714D01*
%TO.C,C6*%
X224947142Y-91006666D02*
X224994761Y-91054285D01*
X225042380Y-91197142D01*
X225042380Y-91292380D01*
X224994761Y-91435238D01*
X224899523Y-91530476D01*
X224804285Y-91578095D01*
X224613809Y-91625714D01*
X224470952Y-91625714D01*
X224280476Y-91578095D01*
X224185238Y-91530476D01*
X224090000Y-91435238D01*
X224042380Y-91292380D01*
X224042380Y-91197142D01*
X224090000Y-91054285D01*
X224137619Y-91006666D01*
X224042380Y-90149523D02*
X224042380Y-90340000D01*
X224090000Y-90435238D01*
X224137619Y-90482857D01*
X224280476Y-90578095D01*
X224470952Y-90625714D01*
X224851904Y-90625714D01*
X224947142Y-90578095D01*
X224994761Y-90530476D01*
X225042380Y-90435238D01*
X225042380Y-90244761D01*
X224994761Y-90149523D01*
X224947142Y-90101904D01*
X224851904Y-90054285D01*
X224613809Y-90054285D01*
X224518571Y-90101904D01*
X224470952Y-90149523D01*
X224423333Y-90244761D01*
X224423333Y-90435238D01*
X224470952Y-90530476D01*
X224518571Y-90578095D01*
X224613809Y-90625714D01*
%TO.C,Y1*%
X220664309Y-101654190D02*
X220664309Y-102130380D01*
X220330976Y-101130380D02*
X220664309Y-101654190D01*
X220997642Y-101130380D01*
X221854785Y-102130380D02*
X221283357Y-102130380D01*
X221569071Y-102130380D02*
X221569071Y-101130380D01*
X221473833Y-101273238D01*
X221378595Y-101368476D01*
X221283357Y-101416095D01*
D12*
%TO.C,J3*%
X241290000Y-108870000D02*
G75*
G03*
X241290000Y-108870000I-125000J0D01*
G01*
D10*
X240630000Y-99905000D02*
X235280000Y-99905000D01*
X235280000Y-112755000D02*
X235280000Y-99905000D01*
X240630000Y-112755000D02*
X240630000Y-99905000D01*
X240630000Y-112755000D02*
X235280000Y-112755000D01*
D13*
%TO.C,C5*%
X230550000Y-94056267D02*
X230550000Y-93763733D01*
X229530000Y-94056267D02*
X229530000Y-93763733D01*
%TO.C,J4*%
X243870000Y-85380000D02*
X243870000Y-108300000D01*
X241210000Y-108300000D02*
X243870000Y-108300000D01*
X241210000Y-82780000D02*
X242540000Y-82780000D01*
X241210000Y-85380000D02*
X241210000Y-108300000D01*
X241210000Y-84110000D02*
X241210000Y-82780000D01*
X241210000Y-85380000D02*
X243870000Y-85380000D01*
%TO.C,C21*%
X237971267Y-83497500D02*
X237678733Y-83497500D01*
X237971267Y-82477500D02*
X237678733Y-82477500D01*
%TO.C,C4*%
X228760000Y-90333733D02*
X228760000Y-90626267D01*
X227740000Y-90333733D02*
X227740000Y-90626267D01*
%TO.C,U1*%
X231222500Y-100635000D02*
X231572500Y-100635000D01*
X227352500Y-100635000D02*
X227352500Y-100285000D01*
X231572500Y-100635000D02*
X231572500Y-100285000D01*
X231572500Y-96415000D02*
X231572500Y-96765000D01*
X231222500Y-96415000D02*
X231572500Y-96415000D01*
X227702500Y-100635000D02*
X227352500Y-100635000D01*
X227702500Y-96415000D02*
X227352500Y-96415000D01*
%TO.C,C11*%
X237053733Y-98635000D02*
X237346267Y-98635000D01*
X237053733Y-97615000D02*
X237346267Y-97615000D01*
D14*
%TO.C,D2*%
X235120000Y-86840000D02*
G75*
G03*
X235120000Y-86840000I-50000J0D01*
G01*
D13*
%TO.C,C20*%
X228870000Y-109708767D02*
X228870000Y-109416233D01*
X229890000Y-109708767D02*
X229890000Y-109416233D01*
%TO.C,J2*%
X216210000Y-84110000D02*
X216210000Y-82780000D01*
X216210000Y-108300000D02*
X218870000Y-108300000D01*
X216210000Y-82780000D02*
X217540000Y-82780000D01*
X218870000Y-85380000D02*
X218870000Y-108300000D01*
X216210000Y-85380000D02*
X218870000Y-85380000D01*
X216210000Y-85380000D02*
X216210000Y-108300000D01*
%TO.C,C16*%
X233316233Y-104260000D02*
X233608767Y-104260000D01*
X233316233Y-105280000D02*
X233608767Y-105280000D01*
%TO.C,C15*%
X223628767Y-101760000D02*
X223336233Y-101760000D01*
X223628767Y-102780000D02*
X223336233Y-102780000D01*
%TO.C,C2*%
X227210000Y-90333733D02*
X227210000Y-90626267D01*
X226190000Y-90333733D02*
X226190000Y-90626267D01*
%TO.C,C7*%
X232960000Y-94296267D02*
X232960000Y-94003733D01*
X231940000Y-94296267D02*
X231940000Y-94003733D01*
%TO.C,C19*%
X230151233Y-107580000D02*
X230443767Y-107580000D01*
X230151233Y-106560000D02*
X230443767Y-106560000D01*
%TO.C,L1*%
X228870000Y-104447233D02*
X228870000Y-104789767D01*
X229890000Y-104447233D02*
X229890000Y-104789767D01*
%TO.C,FB2*%
X230442500Y-103708733D02*
X230442500Y-104051267D01*
X231462500Y-103708733D02*
X231462500Y-104051267D01*
%TO.C,C9*%
X235060000Y-94271267D02*
X235060000Y-93978733D01*
X234040000Y-94271267D02*
X234040000Y-93978733D01*
%TO.C,C22*%
X237723733Y-89680000D02*
X238016267Y-89680000D01*
X237723733Y-88660000D02*
X238016267Y-88660000D01*
%TO.C,C17*%
X233276233Y-103460000D02*
X233568767Y-103460000D01*
X233276233Y-102440000D02*
X233568767Y-102440000D01*
%TO.C,L3*%
X233666233Y-97135000D02*
X234008767Y-97135000D01*
X233666233Y-96115000D02*
X234008767Y-96115000D01*
%TO.C,FB1*%
X226492500Y-103023733D02*
X226492500Y-103366267D01*
X225472500Y-103023733D02*
X225472500Y-103366267D01*
%TO.C,C3*%
X227765000Y-94063767D02*
X227765000Y-93771233D01*
X228785000Y-94063767D02*
X228785000Y-93771233D01*
%TO.C,C10*%
X237078733Y-97110000D02*
X237371267Y-97110000D01*
X237078733Y-96090000D02*
X237371267Y-96090000D01*
%TO.C,C8*%
X233928733Y-90765000D02*
X234221267Y-90765000D01*
X233928733Y-91785000D02*
X234221267Y-91785000D01*
%TO.C,U2*%
X239385000Y-86162500D02*
X239385000Y-86962500D01*
X236265000Y-86162500D02*
X236265000Y-86962500D01*
X236265000Y-86162500D02*
X236265000Y-85362500D01*
X239385000Y-86162500D02*
X239385000Y-84362500D01*
%TO.C,C14*%
X223628767Y-103610000D02*
X223336233Y-103610000D01*
X223628767Y-104630000D02*
X223336233Y-104630000D01*
%TO.C,J1*%
X225165000Y-82320000D02*
X225165000Y-81920000D01*
X225165000Y-84290000D02*
X225165000Y-86270000D01*
X230235000Y-86950000D02*
X230685000Y-86950000D01*
X232685000Y-81920000D02*
X232685000Y-82320000D01*
X232685000Y-84290000D02*
X232685000Y-86270000D01*
X232685000Y-86270000D02*
X232265000Y-86270000D01*
X230685000Y-86500000D02*
X230685000Y-86950000D01*
X225165000Y-86270000D02*
X225585000Y-86270000D01*
%TO.C,D1*%
X233650000Y-81750000D02*
X233650000Y-85650000D01*
X235650000Y-81750000D02*
X233650000Y-81750000D01*
X235650000Y-81750000D02*
X235650000Y-85650000D01*
%TO.C,C18*%
X228626267Y-101652500D02*
X228333733Y-101652500D01*
X228626267Y-102672500D02*
X228333733Y-102672500D01*
%TO.C,C1*%
X227235000Y-94063767D02*
X227235000Y-93771233D01*
X226215000Y-94063767D02*
X226215000Y-93771233D01*
%TO.C,C6*%
X230535000Y-90296233D02*
X230535000Y-90588767D01*
X229515000Y-90296233D02*
X229515000Y-90588767D01*
%TO.C,Y1*%
X223604000Y-98750000D02*
X223604000Y-101050000D01*
X223604000Y-101050000D02*
X226304000Y-101050000D01*
%TD*%
%LPC*%
D14*
X215000000Y-80000000D02*
X245000000Y-80000000D01*
X245000000Y-80000000D02*
X245000000Y-117500000D01*
X245000000Y-117500000D02*
X215000000Y-117500000D01*
X215000000Y-117500000D02*
X215000000Y-80000000D01*
D15*
%TO.C,C5*%
X230040000Y-94772500D03*
X230040000Y-93047500D03*
%TD*%
D16*
%TO.C,J4*%
X242540000Y-84110000D03*
D17*
X242540000Y-86650000D03*
X242540000Y-89190000D03*
X242540000Y-91730000D03*
X242540000Y-94270000D03*
X242540000Y-96810000D03*
X242540000Y-99350000D03*
X242540000Y-101890000D03*
X242540000Y-104430000D03*
X242540000Y-106970000D03*
%TD*%
D18*
%TO.C,C21*%
X238687500Y-82987500D03*
X236962500Y-82987500D03*
%TD*%
D19*
%TO.C,C4*%
X228250000Y-89617500D03*
X228250000Y-91342500D03*
%TD*%
D20*
%TO.C,U1*%
X227462500Y-97125000D03*
X227462500Y-97525000D03*
X227462500Y-97925000D03*
X227462500Y-98325000D03*
X227462500Y-98725000D03*
X227462500Y-99125000D03*
X227462500Y-99525000D03*
X227462500Y-99925000D03*
D21*
X228062500Y-100525000D03*
X228462500Y-100525000D03*
X228862500Y-100525000D03*
X229262500Y-100525000D03*
X229662500Y-100525000D03*
X230062500Y-100525000D03*
X230462500Y-100525000D03*
X230862500Y-100525000D03*
D20*
X231462500Y-99925000D03*
X231462500Y-99525000D03*
X231462500Y-99125000D03*
X231462500Y-98725000D03*
X231462500Y-98325000D03*
X231462500Y-97925000D03*
X231462500Y-97525000D03*
X231462500Y-97125000D03*
D21*
X230862500Y-96525000D03*
X230462500Y-96525000D03*
X230062500Y-96525000D03*
X229662500Y-96525000D03*
X229262500Y-96525000D03*
X228862500Y-96525000D03*
X228462500Y-96525000D03*
X228062500Y-96525000D03*
D22*
X229462500Y-98525000D03*
%TD*%
D23*
%TO.C,C11*%
X236337500Y-98125000D03*
X238062500Y-98125000D03*
%TD*%
D24*
%TO.C,D2*%
X234530000Y-86840000D03*
X233890000Y-86840000D03*
%TD*%
D15*
%TO.C,C20*%
X229380000Y-110425000D03*
X229380000Y-108700000D03*
%TD*%
D16*
%TO.C,J2*%
X217540000Y-84110000D03*
D17*
X217540000Y-86650000D03*
X217540000Y-89190000D03*
X217540000Y-91730000D03*
X217540000Y-94270000D03*
X217540000Y-96810000D03*
X217540000Y-99350000D03*
X217540000Y-101890000D03*
X217540000Y-104430000D03*
X217540000Y-106970000D03*
%TD*%
D23*
%TO.C,C16*%
X234325000Y-104770000D03*
X232600000Y-104770000D03*
%TD*%
D18*
%TO.C,C15*%
X224345000Y-102270000D03*
X222620000Y-102270000D03*
%TD*%
D19*
%TO.C,C2*%
X226700000Y-89617500D03*
X226700000Y-91342500D03*
%TD*%
D15*
%TO.C,C7*%
X232450000Y-95012500D03*
X232450000Y-93287500D03*
%TD*%
D23*
%TO.C,C19*%
X229435000Y-107070000D03*
X231160000Y-107070000D03*
%TD*%
D25*
%TO.C,L1*%
X229380000Y-103743500D03*
X229380000Y-105493500D03*
%TD*%
%TO.C,FB2*%
X230952500Y-103005000D03*
X230952500Y-104755000D03*
%TD*%
D15*
%TO.C,C9*%
X234550000Y-94987500D03*
X234550000Y-93262500D03*
%TD*%
D23*
%TO.C,C22*%
X237007500Y-89170000D03*
X238732500Y-89170000D03*
%TD*%
%TO.C,C17*%
X232560000Y-102950000D03*
X234285000Y-102950000D03*
%TD*%
D26*
%TO.C,L3*%
X232962500Y-96625000D03*
X234712500Y-96625000D03*
%TD*%
D25*
%TO.C,FB1*%
X225982500Y-102320000D03*
X225982500Y-104070000D03*
%TD*%
D15*
%TO.C,C3*%
X228275000Y-94780000D03*
X228275000Y-93055000D03*
%TD*%
D23*
%TO.C,C10*%
X236362500Y-96600000D03*
X238087500Y-96600000D03*
%TD*%
%TO.C,C8*%
X233212500Y-91275000D03*
X234937500Y-91275000D03*
%TD*%
D27*
%TO.C,U2*%
X238775000Y-85025000D03*
X237825000Y-85025000D03*
X236875000Y-85025000D03*
X236875000Y-87300000D03*
X238775000Y-87300000D03*
%TD*%
D18*
%TO.C,C14*%
X224345000Y-104120000D03*
X222620000Y-104120000D03*
%TD*%
D28*
%TO.C,J1*%
X230225000Y-86010000D03*
X229575000Y-86010000D03*
X228925000Y-86010000D03*
X228275000Y-86010000D03*
X227625000Y-86010000D03*
D29*
X226025000Y-83310000D03*
D30*
X231425000Y-86010000D03*
D31*
X227925000Y-83310000D03*
X229925000Y-83310000D03*
D30*
X226425000Y-86010000D03*
D29*
X231825000Y-83310000D03*
D32*
X225425000Y-83310000D03*
X232425000Y-83310000D03*
%TD*%
D33*
%TO.C,D1*%
X234650000Y-82350000D03*
X234650000Y-85650000D03*
%TD*%
D18*
%TO.C,C18*%
X229342500Y-102162500D03*
X227617500Y-102162500D03*
%TD*%
D15*
%TO.C,C1*%
X226725000Y-94780000D03*
X226725000Y-93055000D03*
%TD*%
D19*
%TO.C,C6*%
X230025000Y-89580000D03*
X230025000Y-91305000D03*
%TD*%
D34*
%TO.C,Y1*%
X224254000Y-100450000D03*
X225654000Y-100450000D03*
X225654000Y-99350000D03*
X224254000Y-99350000D03*
%TD*%
M02*
