%TF.GenerationSoftware,KiCad,Pcbnew,(6.0.9)*%
%TF.CreationDate,2022-11-19T16:27:43-05:00*%
%TF.ProjectId,EFR32MG22_module,45465233-324d-4473-9232-5f6d6f64756c,rev?*%
%TF.SameCoordinates,Original*%
%TF.FileFunction,Drillmap*%
%TF.FilePolarity,Positive*%
%FSLAX45Y45*%
G04 Gerber Fmt 4.5, Leading zero omitted, Abs format (unit mm)*
G04 Created by KiCad (PCBNEW (6.0.9)) date 2022-11-19 16:27:43*
%MOMM*%
%LPD*%
G01*
G04 APERTURE LIST*
%ADD10C,0.050000*%
%ADD11C,0.200000*%
%ADD12C,0.020000*%
%ADD13C,0.040000*%
%ADD14C,0.055000*%
%ADD15C,0.070000*%
%ADD16C,0.100000*%
G04 APERTURE END LIST*
D10*
X21500000Y-8000000D02*
X24490000Y-8000000D01*
X24490000Y-8000000D02*
X24490000Y-11750000D01*
X24490000Y-11750000D02*
X21500000Y-11750000D01*
X21500000Y-11750000D02*
X21500000Y-8000000D01*
D11*
D12*
X22863750Y-9770000D02*
X22883750Y-9790000D01*
X22883750Y-9770000D02*
X22863750Y-9790000D01*
X22863750Y-9915000D02*
X22883750Y-9935000D01*
X22883750Y-9915000D02*
X22863750Y-9935000D01*
X23008750Y-9770000D02*
X23028750Y-9790000D01*
X23028750Y-9770000D02*
X23008750Y-9790000D01*
X23008750Y-9915000D02*
X23028750Y-9935000D01*
X23028750Y-9915000D02*
X23008750Y-9935000D01*
D13*
X22330000Y-10017350D02*
G75*
G03*
X22330000Y-10017350I-20000J0D01*
G01*
X22560000Y-9157000D02*
G75*
G03*
X22560000Y-9157000I-20000J0D01*
G01*
X23127000Y-10179000D02*
G75*
G03*
X23127000Y-10179000I-20000J0D01*
G01*
X23131000Y-10841000D02*
G75*
G03*
X23131000Y-10841000I-20000J0D01*
G01*
X23162585Y-9303350D02*
G75*
G03*
X23162585Y-9303350I-20000J0D01*
G01*
X23212000Y-9049000D02*
G75*
G03*
X23212000Y-9049000I-20000J0D01*
G01*
X23218000Y-8894000D02*
G75*
G03*
X23218000Y-8894000I-20000J0D01*
G01*
X23220000Y-10125000D02*
G75*
G03*
X23220000Y-10125000I-20000J0D01*
G01*
X23262624Y-9992400D02*
G75*
G03*
X23262624Y-9992400I-20000J0D01*
G01*
X23314300Y-10069300D02*
G75*
G03*
X23314300Y-10069300I-20000J0D01*
G01*
X23346076Y-10162350D02*
G75*
G03*
X23346076Y-10162350I-20000J0D01*
G01*
X23416851Y-10596798D02*
G75*
G03*
X23416851Y-10596798I-20000J0D01*
G01*
X23520000Y-10750000D02*
G75*
G03*
X23520000Y-10750000I-20000J0D01*
G01*
X23551512Y-9759087D02*
G75*
G03*
X23551512Y-9759087I-20000J0D01*
G01*
X23592000Y-8917000D02*
G75*
G03*
X23592000Y-8917000I-20000J0D01*
G01*
X23620000Y-9300000D02*
G75*
G03*
X23620000Y-9300000I-20000J0D01*
G01*
X23831000Y-9530000D02*
G75*
G03*
X23831000Y-9530000I-20000J0D01*
G01*
X23870000Y-10000000D02*
G75*
G03*
X23870000Y-10000000I-20000J0D01*
G01*
X23887000Y-10198000D02*
G75*
G03*
X23887000Y-10198000I-20000J0D01*
G01*
X23950000Y-9721000D02*
G75*
G03*
X23950000Y-9721000I-20000J0D01*
G01*
X24035000Y-8311250D02*
G75*
G03*
X24035000Y-8311250I-20000J0D01*
G01*
D10*
X22542500Y-8306000D02*
X22542500Y-8356000D01*
X22517500Y-8331000D02*
X22567500Y-8331000D01*
D11*
X22567500Y-8363500D02*
X22567500Y-8298500D01*
X22517500Y-8363500D02*
X22517500Y-8298500D01*
X22567500Y-8298500D02*
G75*
G03*
X22517500Y-8298500I-25000J0D01*
G01*
X22517500Y-8363500D02*
G75*
G03*
X22567500Y-8363500I25000J0D01*
G01*
D10*
X23242500Y-8306000D02*
X23242500Y-8356000D01*
X23217500Y-8331000D02*
X23267500Y-8331000D01*
D11*
X23267500Y-8363500D02*
X23267500Y-8298500D01*
X23217500Y-8363500D02*
X23217500Y-8298500D01*
X23267500Y-8298500D02*
G75*
G03*
X23217500Y-8298500I-25000J0D01*
G01*
X23217500Y-8363500D02*
G75*
G03*
X23267500Y-8363500I25000J0D01*
G01*
D14*
X22661946Y-8620446D02*
X22661946Y-8581554D01*
X22623054Y-8581554D01*
X22623054Y-8620446D01*
X22661946Y-8620446D01*
D11*
X22657500Y-8573500D02*
X22627500Y-8573500D01*
X22657500Y-8628500D02*
X22627500Y-8628500D01*
X22627500Y-8573500D02*
G75*
G03*
X22627500Y-8628500I0J-27500D01*
G01*
X22657500Y-8628500D02*
G75*
G03*
X22657500Y-8573500I0J27500D01*
G01*
D14*
X23161946Y-8620446D02*
X23161946Y-8581554D01*
X23123054Y-8581554D01*
X23123054Y-8620446D01*
X23161946Y-8620446D01*
D11*
X23157500Y-8573500D02*
X23127500Y-8573500D01*
X23157500Y-8628500D02*
X23127500Y-8628500D01*
X23127500Y-8573500D02*
G75*
G03*
X23127500Y-8628500I0J-27500D01*
G01*
X23157500Y-8628500D02*
G75*
G03*
X23157500Y-8573500I0J27500D01*
G01*
D15*
X23732000Y-10414000D02*
X23767000Y-10379000D01*
X23732000Y-10344000D01*
X23697000Y-10379000D01*
X23732000Y-10414000D01*
X23732000Y-10541000D02*
X23767000Y-10506000D01*
X23732000Y-10471000D01*
X23697000Y-10506000D01*
X23732000Y-10541000D01*
X23732000Y-10668000D02*
X23767000Y-10633000D01*
X23732000Y-10598000D01*
X23697000Y-10633000D01*
X23732000Y-10668000D01*
X23732000Y-10795000D02*
X23767000Y-10760000D01*
X23732000Y-10725000D01*
X23697000Y-10760000D01*
X23732000Y-10795000D01*
X23732000Y-10922000D02*
X23767000Y-10887000D01*
X23732000Y-10852000D01*
X23697000Y-10887000D01*
X23732000Y-10922000D01*
X23859000Y-10414000D02*
X23894000Y-10379000D01*
X23859000Y-10344000D01*
X23824000Y-10379000D01*
X23859000Y-10414000D01*
X23859000Y-10541000D02*
X23894000Y-10506000D01*
X23859000Y-10471000D01*
X23824000Y-10506000D01*
X23859000Y-10541000D01*
X23859000Y-10668000D02*
X23894000Y-10633000D01*
X23859000Y-10598000D01*
X23824000Y-10633000D01*
X23859000Y-10668000D01*
X23859000Y-10795000D02*
X23894000Y-10760000D01*
X23859000Y-10725000D01*
X23824000Y-10760000D01*
X23859000Y-10795000D01*
X23859000Y-10922000D02*
X23894000Y-10887000D01*
X23859000Y-10852000D01*
X23824000Y-10887000D01*
X23859000Y-10922000D01*
D16*
X21704000Y-8361000D02*
X21804000Y-8461000D01*
X21804000Y-8361000D02*
X21704000Y-8461000D01*
X21804000Y-8411000D02*
G75*
G03*
X21804000Y-8411000I-50000J0D01*
G01*
X21704000Y-8615000D02*
X21804000Y-8715000D01*
X21804000Y-8615000D02*
X21704000Y-8715000D01*
X21804000Y-8665000D02*
G75*
G03*
X21804000Y-8665000I-50000J0D01*
G01*
X21704000Y-8869000D02*
X21804000Y-8969000D01*
X21804000Y-8869000D02*
X21704000Y-8969000D01*
X21804000Y-8919000D02*
G75*
G03*
X21804000Y-8919000I-50000J0D01*
G01*
X21704000Y-9123000D02*
X21804000Y-9223000D01*
X21804000Y-9123000D02*
X21704000Y-9223000D01*
X21804000Y-9173000D02*
G75*
G03*
X21804000Y-9173000I-50000J0D01*
G01*
X21704000Y-9377000D02*
X21804000Y-9477000D01*
X21804000Y-9377000D02*
X21704000Y-9477000D01*
X21804000Y-9427000D02*
G75*
G03*
X21804000Y-9427000I-50000J0D01*
G01*
X21704000Y-9631000D02*
X21804000Y-9731000D01*
X21804000Y-9631000D02*
X21704000Y-9731000D01*
X21804000Y-9681000D02*
G75*
G03*
X21804000Y-9681000I-50000J0D01*
G01*
X21704000Y-9885000D02*
X21804000Y-9985000D01*
X21804000Y-9885000D02*
X21704000Y-9985000D01*
X21804000Y-9935000D02*
G75*
G03*
X21804000Y-9935000I-50000J0D01*
G01*
X21704000Y-10139000D02*
X21804000Y-10239000D01*
X21804000Y-10139000D02*
X21704000Y-10239000D01*
X21804000Y-10189000D02*
G75*
G03*
X21804000Y-10189000I-50000J0D01*
G01*
X21704000Y-10393000D02*
X21804000Y-10493000D01*
X21804000Y-10393000D02*
X21704000Y-10493000D01*
X21804000Y-10443000D02*
G75*
G03*
X21804000Y-10443000I-50000J0D01*
G01*
X21704000Y-10647000D02*
X21804000Y-10747000D01*
X21804000Y-10647000D02*
X21704000Y-10747000D01*
X21804000Y-10697000D02*
G75*
G03*
X21804000Y-10697000I-50000J0D01*
G01*
X24204000Y-8361000D02*
X24304000Y-8461000D01*
X24304000Y-8361000D02*
X24204000Y-8461000D01*
X24304000Y-8411000D02*
G75*
G03*
X24304000Y-8411000I-50000J0D01*
G01*
X24204000Y-8615000D02*
X24304000Y-8715000D01*
X24304000Y-8615000D02*
X24204000Y-8715000D01*
X24304000Y-8665000D02*
G75*
G03*
X24304000Y-8665000I-50000J0D01*
G01*
X24204000Y-8869000D02*
X24304000Y-8969000D01*
X24304000Y-8869000D02*
X24204000Y-8969000D01*
X24304000Y-8919000D02*
G75*
G03*
X24304000Y-8919000I-50000J0D01*
G01*
X24204000Y-9123000D02*
X24304000Y-9223000D01*
X24304000Y-9123000D02*
X24204000Y-9223000D01*
X24304000Y-9173000D02*
G75*
G03*
X24304000Y-9173000I-50000J0D01*
G01*
X24204000Y-9377000D02*
X24304000Y-9477000D01*
X24304000Y-9377000D02*
X24204000Y-9477000D01*
X24304000Y-9427000D02*
G75*
G03*
X24304000Y-9427000I-50000J0D01*
G01*
X24204000Y-9631000D02*
X24304000Y-9731000D01*
X24304000Y-9631000D02*
X24204000Y-9731000D01*
X24304000Y-9681000D02*
G75*
G03*
X24304000Y-9681000I-50000J0D01*
G01*
X24204000Y-9885000D02*
X24304000Y-9985000D01*
X24304000Y-9885000D02*
X24204000Y-9985000D01*
X24304000Y-9935000D02*
G75*
G03*
X24304000Y-9935000I-50000J0D01*
G01*
X24204000Y-10139000D02*
X24304000Y-10239000D01*
X24304000Y-10139000D02*
X24204000Y-10239000D01*
X24304000Y-10189000D02*
G75*
G03*
X24304000Y-10189000I-50000J0D01*
G01*
X24204000Y-10393000D02*
X24304000Y-10493000D01*
X24304000Y-10393000D02*
X24204000Y-10493000D01*
X24304000Y-10443000D02*
G75*
G03*
X24304000Y-10443000I-50000J0D01*
G01*
X24204000Y-10647000D02*
X24304000Y-10747000D01*
X24304000Y-10647000D02*
X24204000Y-10747000D01*
X24304000Y-10697000D02*
G75*
G03*
X24304000Y-10697000I-50000J0D01*
G01*
D11*
X21755119Y-12062976D02*
X21755119Y-11862976D01*
X21802738Y-11862976D01*
X21831310Y-11872500D01*
X21850357Y-11891548D01*
X21859881Y-11910595D01*
X21869405Y-11948690D01*
X21869405Y-11977262D01*
X21859881Y-12015357D01*
X21850357Y-12034405D01*
X21831310Y-12053452D01*
X21802738Y-12062976D01*
X21755119Y-12062976D01*
X21955119Y-12062976D02*
X21955119Y-11929643D01*
X21955119Y-11967738D02*
X21964643Y-11948690D01*
X21974167Y-11939167D01*
X21993214Y-11929643D01*
X22012262Y-11929643D01*
X22078929Y-12062976D02*
X22078929Y-11929643D01*
X22078929Y-11862976D02*
X22069405Y-11872500D01*
X22078929Y-11882024D01*
X22088452Y-11872500D01*
X22078929Y-11862976D01*
X22078929Y-11882024D01*
X22202738Y-12062976D02*
X22183690Y-12053452D01*
X22174167Y-12034405D01*
X22174167Y-11862976D01*
X22307500Y-12062976D02*
X22288452Y-12053452D01*
X22278929Y-12034405D01*
X22278929Y-11862976D01*
X22536071Y-12062976D02*
X22536071Y-11862976D01*
X22602738Y-12005833D01*
X22669405Y-11862976D01*
X22669405Y-12062976D01*
X22850357Y-12062976D02*
X22850357Y-11958214D01*
X22840833Y-11939167D01*
X22821786Y-11929643D01*
X22783690Y-11929643D01*
X22764643Y-11939167D01*
X22850357Y-12053452D02*
X22831309Y-12062976D01*
X22783690Y-12062976D01*
X22764643Y-12053452D01*
X22755119Y-12034405D01*
X22755119Y-12015357D01*
X22764643Y-11996309D01*
X22783690Y-11986786D01*
X22831309Y-11986786D01*
X22850357Y-11977262D01*
X22945595Y-11929643D02*
X22945595Y-12129643D01*
X22945595Y-11939167D02*
X22964643Y-11929643D01*
X23002738Y-11929643D01*
X23021786Y-11939167D01*
X23031309Y-11948690D01*
X23040833Y-11967738D01*
X23040833Y-12024881D01*
X23031309Y-12043928D01*
X23021786Y-12053452D01*
X23002738Y-12062976D01*
X22964643Y-12062976D01*
X22945595Y-12053452D01*
X23126548Y-12043928D02*
X23136071Y-12053452D01*
X23126548Y-12062976D01*
X23117024Y-12053452D01*
X23126548Y-12043928D01*
X23126548Y-12062976D01*
X23126548Y-11939167D02*
X23136071Y-11948690D01*
X23126548Y-11958214D01*
X23117024Y-11948690D01*
X23126548Y-11939167D01*
X23126548Y-11958214D01*
D12*
X21477500Y-12382500D02*
X21497500Y-12402500D01*
X21497500Y-12382500D02*
X21477500Y-12402500D01*
D11*
X21793214Y-12282976D02*
X21812262Y-12282976D01*
X21831310Y-12292500D01*
X21840833Y-12302024D01*
X21850357Y-12321071D01*
X21859881Y-12359167D01*
X21859881Y-12406786D01*
X21850357Y-12444881D01*
X21840833Y-12463928D01*
X21831310Y-12473452D01*
X21812262Y-12482976D01*
X21793214Y-12482976D01*
X21774167Y-12473452D01*
X21764643Y-12463928D01*
X21755119Y-12444881D01*
X21745595Y-12406786D01*
X21745595Y-12359167D01*
X21755119Y-12321071D01*
X21764643Y-12302024D01*
X21774167Y-12292500D01*
X21793214Y-12282976D01*
X21945595Y-12463928D02*
X21955119Y-12473452D01*
X21945595Y-12482976D01*
X21936071Y-12473452D01*
X21945595Y-12463928D01*
X21945595Y-12482976D01*
X22031310Y-12302024D02*
X22040833Y-12292500D01*
X22059881Y-12282976D01*
X22107500Y-12282976D01*
X22126548Y-12292500D01*
X22136071Y-12302024D01*
X22145595Y-12321071D01*
X22145595Y-12340119D01*
X22136071Y-12368690D01*
X22021786Y-12482976D01*
X22145595Y-12482976D01*
X22269405Y-12282976D02*
X22288452Y-12282976D01*
X22307500Y-12292500D01*
X22317024Y-12302024D01*
X22326548Y-12321071D01*
X22336071Y-12359167D01*
X22336071Y-12406786D01*
X22326548Y-12444881D01*
X22317024Y-12463928D01*
X22307500Y-12473452D01*
X22288452Y-12482976D01*
X22269405Y-12482976D01*
X22250357Y-12473452D01*
X22240833Y-12463928D01*
X22231310Y-12444881D01*
X22221786Y-12406786D01*
X22221786Y-12359167D01*
X22231310Y-12321071D01*
X22240833Y-12302024D01*
X22250357Y-12292500D01*
X22269405Y-12282976D01*
X22459881Y-12282976D02*
X22478928Y-12282976D01*
X22497976Y-12292500D01*
X22507500Y-12302024D01*
X22517024Y-12321071D01*
X22526548Y-12359167D01*
X22526548Y-12406786D01*
X22517024Y-12444881D01*
X22507500Y-12463928D01*
X22497976Y-12473452D01*
X22478928Y-12482976D01*
X22459881Y-12482976D01*
X22440833Y-12473452D01*
X22431309Y-12463928D01*
X22421786Y-12444881D01*
X22412262Y-12406786D01*
X22412262Y-12359167D01*
X22421786Y-12321071D01*
X22431309Y-12302024D01*
X22440833Y-12292500D01*
X22459881Y-12282976D01*
X22612262Y-12482976D02*
X22612262Y-12349643D01*
X22612262Y-12368690D02*
X22621786Y-12359167D01*
X22640833Y-12349643D01*
X22669405Y-12349643D01*
X22688452Y-12359167D01*
X22697976Y-12378214D01*
X22697976Y-12482976D01*
X22697976Y-12378214D02*
X22707500Y-12359167D01*
X22726548Y-12349643D01*
X22755119Y-12349643D01*
X22774167Y-12359167D01*
X22783690Y-12378214D01*
X22783690Y-12482976D01*
X22878928Y-12482976D02*
X22878928Y-12349643D01*
X22878928Y-12368690D02*
X22888452Y-12359167D01*
X22907500Y-12349643D01*
X22936071Y-12349643D01*
X22955119Y-12359167D01*
X22964643Y-12378214D01*
X22964643Y-12482976D01*
X22964643Y-12378214D02*
X22974167Y-12359167D01*
X22993214Y-12349643D01*
X23021786Y-12349643D01*
X23040833Y-12359167D01*
X23050357Y-12378214D01*
X23050357Y-12482976D01*
X23440833Y-12273452D02*
X23269405Y-12530595D01*
X23697976Y-12282976D02*
X23717024Y-12282976D01*
X23736071Y-12292500D01*
X23745595Y-12302024D01*
X23755119Y-12321071D01*
X23764643Y-12359167D01*
X23764643Y-12406786D01*
X23755119Y-12444881D01*
X23745595Y-12463928D01*
X23736071Y-12473452D01*
X23717024Y-12482976D01*
X23697976Y-12482976D01*
X23678928Y-12473452D01*
X23669405Y-12463928D01*
X23659881Y-12444881D01*
X23650357Y-12406786D01*
X23650357Y-12359167D01*
X23659881Y-12321071D01*
X23669405Y-12302024D01*
X23678928Y-12292500D01*
X23697976Y-12282976D01*
X23850357Y-12463928D02*
X23859881Y-12473452D01*
X23850357Y-12482976D01*
X23840833Y-12473452D01*
X23850357Y-12463928D01*
X23850357Y-12482976D01*
X23983690Y-12282976D02*
X24002738Y-12282976D01*
X24021786Y-12292500D01*
X24031309Y-12302024D01*
X24040833Y-12321071D01*
X24050357Y-12359167D01*
X24050357Y-12406786D01*
X24040833Y-12444881D01*
X24031309Y-12463928D01*
X24021786Y-12473452D01*
X24002738Y-12482976D01*
X23983690Y-12482976D01*
X23964643Y-12473452D01*
X23955119Y-12463928D01*
X23945595Y-12444881D01*
X23936071Y-12406786D01*
X23936071Y-12359167D01*
X23945595Y-12321071D01*
X23955119Y-12302024D01*
X23964643Y-12292500D01*
X23983690Y-12282976D01*
X24174167Y-12282976D02*
X24193214Y-12282976D01*
X24212262Y-12292500D01*
X24221786Y-12302024D01*
X24231309Y-12321071D01*
X24240833Y-12359167D01*
X24240833Y-12406786D01*
X24231309Y-12444881D01*
X24221786Y-12463928D01*
X24212262Y-12473452D01*
X24193214Y-12482976D01*
X24174167Y-12482976D01*
X24155119Y-12473452D01*
X24145595Y-12463928D01*
X24136071Y-12444881D01*
X24126548Y-12406786D01*
X24126548Y-12359167D01*
X24136071Y-12321071D01*
X24145595Y-12302024D01*
X24155119Y-12292500D01*
X24174167Y-12282976D01*
X24307500Y-12282976D02*
X24440833Y-12282976D01*
X24355119Y-12482976D01*
X24526548Y-12482976D02*
X24564643Y-12482976D01*
X24583690Y-12473452D01*
X24593214Y-12463928D01*
X24612262Y-12435357D01*
X24621786Y-12397262D01*
X24621786Y-12321071D01*
X24612262Y-12302024D01*
X24602738Y-12292500D01*
X24583690Y-12282976D01*
X24545595Y-12282976D01*
X24526548Y-12292500D01*
X24517024Y-12302024D01*
X24507500Y-12321071D01*
X24507500Y-12368690D01*
X24517024Y-12387738D01*
X24526548Y-12397262D01*
X24545595Y-12406786D01*
X24583690Y-12406786D01*
X24602738Y-12397262D01*
X24612262Y-12387738D01*
X24621786Y-12368690D01*
X24697976Y-12282976D02*
X24697976Y-12321071D01*
X24774167Y-12282976D02*
X24774167Y-12321071D01*
X25069405Y-12559167D02*
X25059881Y-12549643D01*
X25040833Y-12521071D01*
X25031309Y-12502024D01*
X25021786Y-12473452D01*
X25012262Y-12425833D01*
X25012262Y-12387738D01*
X25021786Y-12340119D01*
X25031309Y-12311548D01*
X25040833Y-12292500D01*
X25059881Y-12263928D01*
X25069405Y-12254405D01*
X25231309Y-12349643D02*
X25231309Y-12482976D01*
X25183690Y-12273452D02*
X25136071Y-12416309D01*
X25259881Y-12416309D01*
X25488452Y-12482976D02*
X25488452Y-12282976D01*
X25574167Y-12482976D02*
X25574167Y-12378214D01*
X25564643Y-12359167D01*
X25545595Y-12349643D01*
X25517024Y-12349643D01*
X25497976Y-12359167D01*
X25488452Y-12368690D01*
X25697976Y-12482976D02*
X25678928Y-12473452D01*
X25669405Y-12463928D01*
X25659881Y-12444881D01*
X25659881Y-12387738D01*
X25669405Y-12368690D01*
X25678928Y-12359167D01*
X25697976Y-12349643D01*
X25726548Y-12349643D01*
X25745595Y-12359167D01*
X25755119Y-12368690D01*
X25764643Y-12387738D01*
X25764643Y-12444881D01*
X25755119Y-12463928D01*
X25745595Y-12473452D01*
X25726548Y-12482976D01*
X25697976Y-12482976D01*
X25878928Y-12482976D02*
X25859881Y-12473452D01*
X25850357Y-12454405D01*
X25850357Y-12282976D01*
X26031309Y-12473452D02*
X26012262Y-12482976D01*
X25974167Y-12482976D01*
X25955119Y-12473452D01*
X25945595Y-12454405D01*
X25945595Y-12378214D01*
X25955119Y-12359167D01*
X25974167Y-12349643D01*
X26012262Y-12349643D01*
X26031309Y-12359167D01*
X26040833Y-12378214D01*
X26040833Y-12397262D01*
X25945595Y-12416309D01*
X26117024Y-12473452D02*
X26136071Y-12482976D01*
X26174167Y-12482976D01*
X26193214Y-12473452D01*
X26202738Y-12454405D01*
X26202738Y-12444881D01*
X26193214Y-12425833D01*
X26174167Y-12416309D01*
X26145595Y-12416309D01*
X26126548Y-12406786D01*
X26117024Y-12387738D01*
X26117024Y-12378214D01*
X26126548Y-12359167D01*
X26145595Y-12349643D01*
X26174167Y-12349643D01*
X26193214Y-12359167D01*
X26269405Y-12559167D02*
X26278928Y-12549643D01*
X26297976Y-12521071D01*
X26307500Y-12502024D01*
X26317024Y-12473452D01*
X26326548Y-12425833D01*
X26326548Y-12387738D01*
X26317024Y-12340119D01*
X26307500Y-12311548D01*
X26297976Y-12292500D01*
X26278928Y-12263928D01*
X26269405Y-12254405D01*
D13*
X21497500Y-12656500D02*
G75*
G03*
X21497500Y-12656500I-20000J0D01*
G01*
D11*
X21793214Y-12546976D02*
X21812262Y-12546976D01*
X21831310Y-12556500D01*
X21840833Y-12566024D01*
X21850357Y-12585071D01*
X21859881Y-12623167D01*
X21859881Y-12670786D01*
X21850357Y-12708881D01*
X21840833Y-12727928D01*
X21831310Y-12737452D01*
X21812262Y-12746976D01*
X21793214Y-12746976D01*
X21774167Y-12737452D01*
X21764643Y-12727928D01*
X21755119Y-12708881D01*
X21745595Y-12670786D01*
X21745595Y-12623167D01*
X21755119Y-12585071D01*
X21764643Y-12566024D01*
X21774167Y-12556500D01*
X21793214Y-12546976D01*
X21945595Y-12727928D02*
X21955119Y-12737452D01*
X21945595Y-12746976D01*
X21936071Y-12737452D01*
X21945595Y-12727928D01*
X21945595Y-12746976D01*
X22126548Y-12613643D02*
X22126548Y-12746976D01*
X22078929Y-12537452D02*
X22031310Y-12680309D01*
X22155119Y-12680309D01*
X22269405Y-12546976D02*
X22288452Y-12546976D01*
X22307500Y-12556500D01*
X22317024Y-12566024D01*
X22326548Y-12585071D01*
X22336071Y-12623167D01*
X22336071Y-12670786D01*
X22326548Y-12708881D01*
X22317024Y-12727928D01*
X22307500Y-12737452D01*
X22288452Y-12746976D01*
X22269405Y-12746976D01*
X22250357Y-12737452D01*
X22240833Y-12727928D01*
X22231310Y-12708881D01*
X22221786Y-12670786D01*
X22221786Y-12623167D01*
X22231310Y-12585071D01*
X22240833Y-12566024D01*
X22250357Y-12556500D01*
X22269405Y-12546976D01*
X22459881Y-12546976D02*
X22478928Y-12546976D01*
X22497976Y-12556500D01*
X22507500Y-12566024D01*
X22517024Y-12585071D01*
X22526548Y-12623167D01*
X22526548Y-12670786D01*
X22517024Y-12708881D01*
X22507500Y-12727928D01*
X22497976Y-12737452D01*
X22478928Y-12746976D01*
X22459881Y-12746976D01*
X22440833Y-12737452D01*
X22431309Y-12727928D01*
X22421786Y-12708881D01*
X22412262Y-12670786D01*
X22412262Y-12623167D01*
X22421786Y-12585071D01*
X22431309Y-12566024D01*
X22440833Y-12556500D01*
X22459881Y-12546976D01*
X22612262Y-12746976D02*
X22612262Y-12613643D01*
X22612262Y-12632690D02*
X22621786Y-12623167D01*
X22640833Y-12613643D01*
X22669405Y-12613643D01*
X22688452Y-12623167D01*
X22697976Y-12642214D01*
X22697976Y-12746976D01*
X22697976Y-12642214D02*
X22707500Y-12623167D01*
X22726548Y-12613643D01*
X22755119Y-12613643D01*
X22774167Y-12623167D01*
X22783690Y-12642214D01*
X22783690Y-12746976D01*
X22878928Y-12746976D02*
X22878928Y-12613643D01*
X22878928Y-12632690D02*
X22888452Y-12623167D01*
X22907500Y-12613643D01*
X22936071Y-12613643D01*
X22955119Y-12623167D01*
X22964643Y-12642214D01*
X22964643Y-12746976D01*
X22964643Y-12642214D02*
X22974167Y-12623167D01*
X22993214Y-12613643D01*
X23021786Y-12613643D01*
X23040833Y-12623167D01*
X23050357Y-12642214D01*
X23050357Y-12746976D01*
X23440833Y-12537452D02*
X23269405Y-12794595D01*
X23697976Y-12546976D02*
X23717024Y-12546976D01*
X23736071Y-12556500D01*
X23745595Y-12566024D01*
X23755119Y-12585071D01*
X23764643Y-12623167D01*
X23764643Y-12670786D01*
X23755119Y-12708881D01*
X23745595Y-12727928D01*
X23736071Y-12737452D01*
X23717024Y-12746976D01*
X23697976Y-12746976D01*
X23678928Y-12737452D01*
X23669405Y-12727928D01*
X23659881Y-12708881D01*
X23650357Y-12670786D01*
X23650357Y-12623167D01*
X23659881Y-12585071D01*
X23669405Y-12566024D01*
X23678928Y-12556500D01*
X23697976Y-12546976D01*
X23850357Y-12727928D02*
X23859881Y-12737452D01*
X23850357Y-12746976D01*
X23840833Y-12737452D01*
X23850357Y-12727928D01*
X23850357Y-12746976D01*
X23983690Y-12546976D02*
X24002738Y-12546976D01*
X24021786Y-12556500D01*
X24031309Y-12566024D01*
X24040833Y-12585071D01*
X24050357Y-12623167D01*
X24050357Y-12670786D01*
X24040833Y-12708881D01*
X24031309Y-12727928D01*
X24021786Y-12737452D01*
X24002738Y-12746976D01*
X23983690Y-12746976D01*
X23964643Y-12737452D01*
X23955119Y-12727928D01*
X23945595Y-12708881D01*
X23936071Y-12670786D01*
X23936071Y-12623167D01*
X23945595Y-12585071D01*
X23955119Y-12566024D01*
X23964643Y-12556500D01*
X23983690Y-12546976D01*
X24240833Y-12746976D02*
X24126548Y-12746976D01*
X24183690Y-12746976D02*
X24183690Y-12546976D01*
X24164643Y-12575548D01*
X24145595Y-12594595D01*
X24126548Y-12604119D01*
X24421786Y-12546976D02*
X24326548Y-12546976D01*
X24317024Y-12642214D01*
X24326548Y-12632690D01*
X24345595Y-12623167D01*
X24393214Y-12623167D01*
X24412262Y-12632690D01*
X24421786Y-12642214D01*
X24431309Y-12661262D01*
X24431309Y-12708881D01*
X24421786Y-12727928D01*
X24412262Y-12737452D01*
X24393214Y-12746976D01*
X24345595Y-12746976D01*
X24326548Y-12737452D01*
X24317024Y-12727928D01*
X24497976Y-12546976D02*
X24631309Y-12546976D01*
X24545595Y-12746976D01*
X24697976Y-12546976D02*
X24697976Y-12585071D01*
X24774167Y-12546976D02*
X24774167Y-12585071D01*
X25069405Y-12823167D02*
X25059881Y-12813643D01*
X25040833Y-12785071D01*
X25031309Y-12766024D01*
X25021786Y-12737452D01*
X25012262Y-12689833D01*
X25012262Y-12651738D01*
X25021786Y-12604119D01*
X25031309Y-12575548D01*
X25040833Y-12556500D01*
X25059881Y-12527928D01*
X25069405Y-12518405D01*
X25136071Y-12566024D02*
X25145595Y-12556500D01*
X25164643Y-12546976D01*
X25212262Y-12546976D01*
X25231309Y-12556500D01*
X25240833Y-12566024D01*
X25250357Y-12585071D01*
X25250357Y-12604119D01*
X25240833Y-12632690D01*
X25126548Y-12746976D01*
X25250357Y-12746976D01*
X25440833Y-12746976D02*
X25326548Y-12746976D01*
X25383690Y-12746976D02*
X25383690Y-12546976D01*
X25364643Y-12575548D01*
X25345595Y-12594595D01*
X25326548Y-12604119D01*
X25678928Y-12746976D02*
X25678928Y-12546976D01*
X25764643Y-12746976D02*
X25764643Y-12642214D01*
X25755119Y-12623167D01*
X25736071Y-12613643D01*
X25707500Y-12613643D01*
X25688452Y-12623167D01*
X25678928Y-12632690D01*
X25888452Y-12746976D02*
X25869405Y-12737452D01*
X25859881Y-12727928D01*
X25850357Y-12708881D01*
X25850357Y-12651738D01*
X25859881Y-12632690D01*
X25869405Y-12623167D01*
X25888452Y-12613643D01*
X25917024Y-12613643D01*
X25936071Y-12623167D01*
X25945595Y-12632690D01*
X25955119Y-12651738D01*
X25955119Y-12708881D01*
X25945595Y-12727928D01*
X25936071Y-12737452D01*
X25917024Y-12746976D01*
X25888452Y-12746976D01*
X26069405Y-12746976D02*
X26050357Y-12737452D01*
X26040833Y-12718405D01*
X26040833Y-12546976D01*
X26221786Y-12737452D02*
X26202738Y-12746976D01*
X26164643Y-12746976D01*
X26145595Y-12737452D01*
X26136071Y-12718405D01*
X26136071Y-12642214D01*
X26145595Y-12623167D01*
X26164643Y-12613643D01*
X26202738Y-12613643D01*
X26221786Y-12623167D01*
X26231309Y-12642214D01*
X26231309Y-12661262D01*
X26136071Y-12680309D01*
X26307500Y-12737452D02*
X26326548Y-12746976D01*
X26364643Y-12746976D01*
X26383690Y-12737452D01*
X26393214Y-12718405D01*
X26393214Y-12708881D01*
X26383690Y-12689833D01*
X26364643Y-12680309D01*
X26336071Y-12680309D01*
X26317024Y-12670786D01*
X26307500Y-12651738D01*
X26307500Y-12642214D01*
X26317024Y-12623167D01*
X26336071Y-12613643D01*
X26364643Y-12613643D01*
X26383690Y-12623167D01*
X26459881Y-12823167D02*
X26469405Y-12813643D01*
X26488452Y-12785071D01*
X26497976Y-12766024D01*
X26507500Y-12737452D01*
X26517024Y-12689833D01*
X26517024Y-12651738D01*
X26507500Y-12604119D01*
X26497976Y-12575548D01*
X26488452Y-12556500D01*
X26469405Y-12527928D01*
X26459881Y-12518405D01*
D10*
X21472500Y-12895500D02*
X21472500Y-12945500D01*
X21447500Y-12920500D02*
X21497500Y-12920500D01*
D11*
X21793214Y-12810976D02*
X21812262Y-12810976D01*
X21831310Y-12820500D01*
X21840833Y-12830024D01*
X21850357Y-12849071D01*
X21859881Y-12887167D01*
X21859881Y-12934786D01*
X21850357Y-12972881D01*
X21840833Y-12991928D01*
X21831310Y-13001452D01*
X21812262Y-13010976D01*
X21793214Y-13010976D01*
X21774167Y-13001452D01*
X21764643Y-12991928D01*
X21755119Y-12972881D01*
X21745595Y-12934786D01*
X21745595Y-12887167D01*
X21755119Y-12849071D01*
X21764643Y-12830024D01*
X21774167Y-12820500D01*
X21793214Y-12810976D01*
X21945595Y-12991928D02*
X21955119Y-13001452D01*
X21945595Y-13010976D01*
X21936071Y-13001452D01*
X21945595Y-12991928D01*
X21945595Y-13010976D01*
X22136071Y-12810976D02*
X22040833Y-12810976D01*
X22031310Y-12906214D01*
X22040833Y-12896690D01*
X22059881Y-12887167D01*
X22107500Y-12887167D01*
X22126548Y-12896690D01*
X22136071Y-12906214D01*
X22145595Y-12925262D01*
X22145595Y-12972881D01*
X22136071Y-12991928D01*
X22126548Y-13001452D01*
X22107500Y-13010976D01*
X22059881Y-13010976D01*
X22040833Y-13001452D01*
X22031310Y-12991928D01*
X22269405Y-12810976D02*
X22288452Y-12810976D01*
X22307500Y-12820500D01*
X22317024Y-12830024D01*
X22326548Y-12849071D01*
X22336071Y-12887167D01*
X22336071Y-12934786D01*
X22326548Y-12972881D01*
X22317024Y-12991928D01*
X22307500Y-13001452D01*
X22288452Y-13010976D01*
X22269405Y-13010976D01*
X22250357Y-13001452D01*
X22240833Y-12991928D01*
X22231310Y-12972881D01*
X22221786Y-12934786D01*
X22221786Y-12887167D01*
X22231310Y-12849071D01*
X22240833Y-12830024D01*
X22250357Y-12820500D01*
X22269405Y-12810976D01*
X22459881Y-12810976D02*
X22478928Y-12810976D01*
X22497976Y-12820500D01*
X22507500Y-12830024D01*
X22517024Y-12849071D01*
X22526548Y-12887167D01*
X22526548Y-12934786D01*
X22517024Y-12972881D01*
X22507500Y-12991928D01*
X22497976Y-13001452D01*
X22478928Y-13010976D01*
X22459881Y-13010976D01*
X22440833Y-13001452D01*
X22431309Y-12991928D01*
X22421786Y-12972881D01*
X22412262Y-12934786D01*
X22412262Y-12887167D01*
X22421786Y-12849071D01*
X22431309Y-12830024D01*
X22440833Y-12820500D01*
X22459881Y-12810976D01*
X22612262Y-13010976D02*
X22612262Y-12877643D01*
X22612262Y-12896690D02*
X22621786Y-12887167D01*
X22640833Y-12877643D01*
X22669405Y-12877643D01*
X22688452Y-12887167D01*
X22697976Y-12906214D01*
X22697976Y-13010976D01*
X22697976Y-12906214D02*
X22707500Y-12887167D01*
X22726548Y-12877643D01*
X22755119Y-12877643D01*
X22774167Y-12887167D01*
X22783690Y-12906214D01*
X22783690Y-13010976D01*
X22878928Y-13010976D02*
X22878928Y-12877643D01*
X22878928Y-12896690D02*
X22888452Y-12887167D01*
X22907500Y-12877643D01*
X22936071Y-12877643D01*
X22955119Y-12887167D01*
X22964643Y-12906214D01*
X22964643Y-13010976D01*
X22964643Y-12906214D02*
X22974167Y-12887167D01*
X22993214Y-12877643D01*
X23021786Y-12877643D01*
X23040833Y-12887167D01*
X23050357Y-12906214D01*
X23050357Y-13010976D01*
X23440833Y-12801452D02*
X23269405Y-13058595D01*
X23697976Y-12810976D02*
X23717024Y-12810976D01*
X23736071Y-12820500D01*
X23745595Y-12830024D01*
X23755119Y-12849071D01*
X23764643Y-12887167D01*
X23764643Y-12934786D01*
X23755119Y-12972881D01*
X23745595Y-12991928D01*
X23736071Y-13001452D01*
X23717024Y-13010976D01*
X23697976Y-13010976D01*
X23678928Y-13001452D01*
X23669405Y-12991928D01*
X23659881Y-12972881D01*
X23650357Y-12934786D01*
X23650357Y-12887167D01*
X23659881Y-12849071D01*
X23669405Y-12830024D01*
X23678928Y-12820500D01*
X23697976Y-12810976D01*
X23850357Y-12991928D02*
X23859881Y-13001452D01*
X23850357Y-13010976D01*
X23840833Y-13001452D01*
X23850357Y-12991928D01*
X23850357Y-13010976D01*
X23983690Y-12810976D02*
X24002738Y-12810976D01*
X24021786Y-12820500D01*
X24031309Y-12830024D01*
X24040833Y-12849071D01*
X24050357Y-12887167D01*
X24050357Y-12934786D01*
X24040833Y-12972881D01*
X24031309Y-12991928D01*
X24021786Y-13001452D01*
X24002738Y-13010976D01*
X23983690Y-13010976D01*
X23964643Y-13001452D01*
X23955119Y-12991928D01*
X23945595Y-12972881D01*
X23936071Y-12934786D01*
X23936071Y-12887167D01*
X23945595Y-12849071D01*
X23955119Y-12830024D01*
X23964643Y-12820500D01*
X23983690Y-12810976D01*
X24240833Y-13010976D02*
X24126548Y-13010976D01*
X24183690Y-13010976D02*
X24183690Y-12810976D01*
X24164643Y-12839548D01*
X24145595Y-12858595D01*
X24126548Y-12868119D01*
X24336071Y-13010976D02*
X24374167Y-13010976D01*
X24393214Y-13001452D01*
X24402738Y-12991928D01*
X24421786Y-12963357D01*
X24431309Y-12925262D01*
X24431309Y-12849071D01*
X24421786Y-12830024D01*
X24412262Y-12820500D01*
X24393214Y-12810976D01*
X24355119Y-12810976D01*
X24336071Y-12820500D01*
X24326548Y-12830024D01*
X24317024Y-12849071D01*
X24317024Y-12896690D01*
X24326548Y-12915738D01*
X24336071Y-12925262D01*
X24355119Y-12934786D01*
X24393214Y-12934786D01*
X24412262Y-12925262D01*
X24421786Y-12915738D01*
X24431309Y-12896690D01*
X24497976Y-12810976D02*
X24631309Y-12810976D01*
X24545595Y-13010976D01*
X24697976Y-12810976D02*
X24697976Y-12849071D01*
X24774167Y-12810976D02*
X24774167Y-12849071D01*
X25069405Y-13087167D02*
X25059881Y-13077643D01*
X25040833Y-13049071D01*
X25031309Y-13030024D01*
X25021786Y-13001452D01*
X25012262Y-12953833D01*
X25012262Y-12915738D01*
X25021786Y-12868119D01*
X25031309Y-12839548D01*
X25040833Y-12820500D01*
X25059881Y-12791928D01*
X25069405Y-12782405D01*
X25183690Y-12810976D02*
X25202738Y-12810976D01*
X25221786Y-12820500D01*
X25231309Y-12830024D01*
X25240833Y-12849071D01*
X25250357Y-12887167D01*
X25250357Y-12934786D01*
X25240833Y-12972881D01*
X25231309Y-12991928D01*
X25221786Y-13001452D01*
X25202738Y-13010976D01*
X25183690Y-13010976D01*
X25164643Y-13001452D01*
X25155119Y-12991928D01*
X25145595Y-12972881D01*
X25136071Y-12934786D01*
X25136071Y-12887167D01*
X25145595Y-12849071D01*
X25155119Y-12830024D01*
X25164643Y-12820500D01*
X25183690Y-12810976D01*
X25488452Y-13010976D02*
X25488452Y-12810976D01*
X25574167Y-13010976D02*
X25574167Y-12906214D01*
X25564643Y-12887167D01*
X25545595Y-12877643D01*
X25517024Y-12877643D01*
X25497976Y-12887167D01*
X25488452Y-12896690D01*
X25697976Y-13010976D02*
X25678928Y-13001452D01*
X25669405Y-12991928D01*
X25659881Y-12972881D01*
X25659881Y-12915738D01*
X25669405Y-12896690D01*
X25678928Y-12887167D01*
X25697976Y-12877643D01*
X25726548Y-12877643D01*
X25745595Y-12887167D01*
X25755119Y-12896690D01*
X25764643Y-12915738D01*
X25764643Y-12972881D01*
X25755119Y-12991928D01*
X25745595Y-13001452D01*
X25726548Y-13010976D01*
X25697976Y-13010976D01*
X25878928Y-13010976D02*
X25859881Y-13001452D01*
X25850357Y-12982405D01*
X25850357Y-12810976D01*
X26031309Y-13001452D02*
X26012262Y-13010976D01*
X25974167Y-13010976D01*
X25955119Y-13001452D01*
X25945595Y-12982405D01*
X25945595Y-12906214D01*
X25955119Y-12887167D01*
X25974167Y-12877643D01*
X26012262Y-12877643D01*
X26031309Y-12887167D01*
X26040833Y-12906214D01*
X26040833Y-12925262D01*
X25945595Y-12944309D01*
X26117024Y-13001452D02*
X26136071Y-13010976D01*
X26174167Y-13010976D01*
X26193214Y-13001452D01*
X26202738Y-12982405D01*
X26202738Y-12972881D01*
X26193214Y-12953833D01*
X26174167Y-12944309D01*
X26145595Y-12944309D01*
X26126548Y-12934786D01*
X26117024Y-12915738D01*
X26117024Y-12906214D01*
X26126548Y-12887167D01*
X26145595Y-12877643D01*
X26174167Y-12877643D01*
X26193214Y-12887167D01*
X26440833Y-12934786D02*
X26593214Y-12934786D01*
X26517024Y-13010976D02*
X26517024Y-12858595D01*
X26831309Y-12830024D02*
X26840833Y-12820500D01*
X26859881Y-12810976D01*
X26907500Y-12810976D01*
X26926548Y-12820500D01*
X26936071Y-12830024D01*
X26945595Y-12849071D01*
X26945595Y-12868119D01*
X26936071Y-12896690D01*
X26821786Y-13010976D01*
X26945595Y-13010976D01*
X27174167Y-13001452D02*
X27193214Y-13010976D01*
X27231309Y-13010976D01*
X27250357Y-13001452D01*
X27259881Y-12982405D01*
X27259881Y-12972881D01*
X27250357Y-12953833D01*
X27231309Y-12944309D01*
X27202738Y-12944309D01*
X27183690Y-12934786D01*
X27174167Y-12915738D01*
X27174167Y-12906214D01*
X27183690Y-12887167D01*
X27202738Y-12877643D01*
X27231309Y-12877643D01*
X27250357Y-12887167D01*
X27374167Y-13010976D02*
X27355119Y-13001452D01*
X27345595Y-12982405D01*
X27345595Y-12810976D01*
X27478928Y-13010976D02*
X27459881Y-13001452D01*
X27450357Y-12991928D01*
X27440833Y-12972881D01*
X27440833Y-12915738D01*
X27450357Y-12896690D01*
X27459881Y-12887167D01*
X27478928Y-12877643D01*
X27507500Y-12877643D01*
X27526548Y-12887167D01*
X27536071Y-12896690D01*
X27545595Y-12915738D01*
X27545595Y-12972881D01*
X27536071Y-12991928D01*
X27526548Y-13001452D01*
X27507500Y-13010976D01*
X27478928Y-13010976D01*
X27602738Y-12877643D02*
X27678928Y-12877643D01*
X27631309Y-12810976D02*
X27631309Y-12982405D01*
X27640833Y-13001452D01*
X27659881Y-13010976D01*
X27678928Y-13010976D01*
X27736071Y-13001452D02*
X27755119Y-13010976D01*
X27793214Y-13010976D01*
X27812262Y-13001452D01*
X27821786Y-12982405D01*
X27821786Y-12972881D01*
X27812262Y-12953833D01*
X27793214Y-12944309D01*
X27764643Y-12944309D01*
X27745595Y-12934786D01*
X27736071Y-12915738D01*
X27736071Y-12906214D01*
X27745595Y-12887167D01*
X27764643Y-12877643D01*
X27793214Y-12877643D01*
X27812262Y-12887167D01*
X27888452Y-13087167D02*
X27897976Y-13077643D01*
X27917024Y-13049071D01*
X27926548Y-13030024D01*
X27936071Y-13001452D01*
X27945595Y-12953833D01*
X27945595Y-12915738D01*
X27936071Y-12868119D01*
X27926548Y-12839548D01*
X27917024Y-12820500D01*
X27897976Y-12791928D01*
X27888452Y-12782405D01*
D14*
X21489446Y-13203946D02*
X21489446Y-13165054D01*
X21450554Y-13165054D01*
X21450554Y-13203946D01*
X21489446Y-13203946D01*
D11*
X21793214Y-13074976D02*
X21812262Y-13074976D01*
X21831310Y-13084500D01*
X21840833Y-13094024D01*
X21850357Y-13113071D01*
X21859881Y-13151167D01*
X21859881Y-13198786D01*
X21850357Y-13236881D01*
X21840833Y-13255928D01*
X21831310Y-13265452D01*
X21812262Y-13274976D01*
X21793214Y-13274976D01*
X21774167Y-13265452D01*
X21764643Y-13255928D01*
X21755119Y-13236881D01*
X21745595Y-13198786D01*
X21745595Y-13151167D01*
X21755119Y-13113071D01*
X21764643Y-13094024D01*
X21774167Y-13084500D01*
X21793214Y-13074976D01*
X21945595Y-13255928D02*
X21955119Y-13265452D01*
X21945595Y-13274976D01*
X21936071Y-13265452D01*
X21945595Y-13255928D01*
X21945595Y-13274976D01*
X22136071Y-13074976D02*
X22040833Y-13074976D01*
X22031310Y-13170214D01*
X22040833Y-13160690D01*
X22059881Y-13151167D01*
X22107500Y-13151167D01*
X22126548Y-13160690D01*
X22136071Y-13170214D01*
X22145595Y-13189262D01*
X22145595Y-13236881D01*
X22136071Y-13255928D01*
X22126548Y-13265452D01*
X22107500Y-13274976D01*
X22059881Y-13274976D01*
X22040833Y-13265452D01*
X22031310Y-13255928D01*
X22326548Y-13074976D02*
X22231310Y-13074976D01*
X22221786Y-13170214D01*
X22231310Y-13160690D01*
X22250357Y-13151167D01*
X22297976Y-13151167D01*
X22317024Y-13160690D01*
X22326548Y-13170214D01*
X22336071Y-13189262D01*
X22336071Y-13236881D01*
X22326548Y-13255928D01*
X22317024Y-13265452D01*
X22297976Y-13274976D01*
X22250357Y-13274976D01*
X22231310Y-13265452D01*
X22221786Y-13255928D01*
X22459881Y-13074976D02*
X22478928Y-13074976D01*
X22497976Y-13084500D01*
X22507500Y-13094024D01*
X22517024Y-13113071D01*
X22526548Y-13151167D01*
X22526548Y-13198786D01*
X22517024Y-13236881D01*
X22507500Y-13255928D01*
X22497976Y-13265452D01*
X22478928Y-13274976D01*
X22459881Y-13274976D01*
X22440833Y-13265452D01*
X22431309Y-13255928D01*
X22421786Y-13236881D01*
X22412262Y-13198786D01*
X22412262Y-13151167D01*
X22421786Y-13113071D01*
X22431309Y-13094024D01*
X22440833Y-13084500D01*
X22459881Y-13074976D01*
X22612262Y-13274976D02*
X22612262Y-13141643D01*
X22612262Y-13160690D02*
X22621786Y-13151167D01*
X22640833Y-13141643D01*
X22669405Y-13141643D01*
X22688452Y-13151167D01*
X22697976Y-13170214D01*
X22697976Y-13274976D01*
X22697976Y-13170214D02*
X22707500Y-13151167D01*
X22726548Y-13141643D01*
X22755119Y-13141643D01*
X22774167Y-13151167D01*
X22783690Y-13170214D01*
X22783690Y-13274976D01*
X22878928Y-13274976D02*
X22878928Y-13141643D01*
X22878928Y-13160690D02*
X22888452Y-13151167D01*
X22907500Y-13141643D01*
X22936071Y-13141643D01*
X22955119Y-13151167D01*
X22964643Y-13170214D01*
X22964643Y-13274976D01*
X22964643Y-13170214D02*
X22974167Y-13151167D01*
X22993214Y-13141643D01*
X23021786Y-13141643D01*
X23040833Y-13151167D01*
X23050357Y-13170214D01*
X23050357Y-13274976D01*
X23440833Y-13065452D02*
X23269405Y-13322595D01*
X23697976Y-13074976D02*
X23717024Y-13074976D01*
X23736071Y-13084500D01*
X23745595Y-13094024D01*
X23755119Y-13113071D01*
X23764643Y-13151167D01*
X23764643Y-13198786D01*
X23755119Y-13236881D01*
X23745595Y-13255928D01*
X23736071Y-13265452D01*
X23717024Y-13274976D01*
X23697976Y-13274976D01*
X23678928Y-13265452D01*
X23669405Y-13255928D01*
X23659881Y-13236881D01*
X23650357Y-13198786D01*
X23650357Y-13151167D01*
X23659881Y-13113071D01*
X23669405Y-13094024D01*
X23678928Y-13084500D01*
X23697976Y-13074976D01*
X23850357Y-13255928D02*
X23859881Y-13265452D01*
X23850357Y-13274976D01*
X23840833Y-13265452D01*
X23850357Y-13255928D01*
X23850357Y-13274976D01*
X23983690Y-13074976D02*
X24002738Y-13074976D01*
X24021786Y-13084500D01*
X24031309Y-13094024D01*
X24040833Y-13113071D01*
X24050357Y-13151167D01*
X24050357Y-13198786D01*
X24040833Y-13236881D01*
X24031309Y-13255928D01*
X24021786Y-13265452D01*
X24002738Y-13274976D01*
X23983690Y-13274976D01*
X23964643Y-13265452D01*
X23955119Y-13255928D01*
X23945595Y-13236881D01*
X23936071Y-13198786D01*
X23936071Y-13151167D01*
X23945595Y-13113071D01*
X23955119Y-13094024D01*
X23964643Y-13084500D01*
X23983690Y-13074976D01*
X24126548Y-13094024D02*
X24136071Y-13084500D01*
X24155119Y-13074976D01*
X24202738Y-13074976D01*
X24221786Y-13084500D01*
X24231309Y-13094024D01*
X24240833Y-13113071D01*
X24240833Y-13132119D01*
X24231309Y-13160690D01*
X24117024Y-13274976D01*
X24240833Y-13274976D01*
X24431309Y-13274976D02*
X24317024Y-13274976D01*
X24374167Y-13274976D02*
X24374167Y-13074976D01*
X24355119Y-13103548D01*
X24336071Y-13122595D01*
X24317024Y-13132119D01*
X24497976Y-13074976D02*
X24631309Y-13074976D01*
X24545595Y-13274976D01*
X24697976Y-13074976D02*
X24697976Y-13113071D01*
X24774167Y-13074976D02*
X24774167Y-13113071D01*
X25069405Y-13351167D02*
X25059881Y-13341643D01*
X25040833Y-13313071D01*
X25031309Y-13294024D01*
X25021786Y-13265452D01*
X25012262Y-13217833D01*
X25012262Y-13179738D01*
X25021786Y-13132119D01*
X25031309Y-13103548D01*
X25040833Y-13084500D01*
X25059881Y-13055928D01*
X25069405Y-13046405D01*
X25183690Y-13074976D02*
X25202738Y-13074976D01*
X25221786Y-13084500D01*
X25231309Y-13094024D01*
X25240833Y-13113071D01*
X25250357Y-13151167D01*
X25250357Y-13198786D01*
X25240833Y-13236881D01*
X25231309Y-13255928D01*
X25221786Y-13265452D01*
X25202738Y-13274976D01*
X25183690Y-13274976D01*
X25164643Y-13265452D01*
X25155119Y-13255928D01*
X25145595Y-13236881D01*
X25136071Y-13198786D01*
X25136071Y-13151167D01*
X25145595Y-13113071D01*
X25155119Y-13094024D01*
X25164643Y-13084500D01*
X25183690Y-13074976D01*
X25488452Y-13274976D02*
X25488452Y-13074976D01*
X25574167Y-13274976D02*
X25574167Y-13170214D01*
X25564643Y-13151167D01*
X25545595Y-13141643D01*
X25517024Y-13141643D01*
X25497976Y-13151167D01*
X25488452Y-13160690D01*
X25697976Y-13274976D02*
X25678928Y-13265452D01*
X25669405Y-13255928D01*
X25659881Y-13236881D01*
X25659881Y-13179738D01*
X25669405Y-13160690D01*
X25678928Y-13151167D01*
X25697976Y-13141643D01*
X25726548Y-13141643D01*
X25745595Y-13151167D01*
X25755119Y-13160690D01*
X25764643Y-13179738D01*
X25764643Y-13236881D01*
X25755119Y-13255928D01*
X25745595Y-13265452D01*
X25726548Y-13274976D01*
X25697976Y-13274976D01*
X25878928Y-13274976D02*
X25859881Y-13265452D01*
X25850357Y-13246405D01*
X25850357Y-13074976D01*
X26031309Y-13265452D02*
X26012262Y-13274976D01*
X25974167Y-13274976D01*
X25955119Y-13265452D01*
X25945595Y-13246405D01*
X25945595Y-13170214D01*
X25955119Y-13151167D01*
X25974167Y-13141643D01*
X26012262Y-13141643D01*
X26031309Y-13151167D01*
X26040833Y-13170214D01*
X26040833Y-13189262D01*
X25945595Y-13208309D01*
X26117024Y-13265452D02*
X26136071Y-13274976D01*
X26174167Y-13274976D01*
X26193214Y-13265452D01*
X26202738Y-13246405D01*
X26202738Y-13236881D01*
X26193214Y-13217833D01*
X26174167Y-13208309D01*
X26145595Y-13208309D01*
X26126548Y-13198786D01*
X26117024Y-13179738D01*
X26117024Y-13170214D01*
X26126548Y-13151167D01*
X26145595Y-13141643D01*
X26174167Y-13141643D01*
X26193214Y-13151167D01*
X26440833Y-13198786D02*
X26593214Y-13198786D01*
X26517024Y-13274976D02*
X26517024Y-13122595D01*
X26831309Y-13094024D02*
X26840833Y-13084500D01*
X26859881Y-13074976D01*
X26907500Y-13074976D01*
X26926548Y-13084500D01*
X26936071Y-13094024D01*
X26945595Y-13113071D01*
X26945595Y-13132119D01*
X26936071Y-13160690D01*
X26821786Y-13274976D01*
X26945595Y-13274976D01*
X27174167Y-13265452D02*
X27193214Y-13274976D01*
X27231309Y-13274976D01*
X27250357Y-13265452D01*
X27259881Y-13246405D01*
X27259881Y-13236881D01*
X27250357Y-13217833D01*
X27231309Y-13208309D01*
X27202738Y-13208309D01*
X27183690Y-13198786D01*
X27174167Y-13179738D01*
X27174167Y-13170214D01*
X27183690Y-13151167D01*
X27202738Y-13141643D01*
X27231309Y-13141643D01*
X27250357Y-13151167D01*
X27374167Y-13274976D02*
X27355119Y-13265452D01*
X27345595Y-13246405D01*
X27345595Y-13074976D01*
X27478928Y-13274976D02*
X27459881Y-13265452D01*
X27450357Y-13255928D01*
X27440833Y-13236881D01*
X27440833Y-13179738D01*
X27450357Y-13160690D01*
X27459881Y-13151167D01*
X27478928Y-13141643D01*
X27507500Y-13141643D01*
X27526548Y-13151167D01*
X27536071Y-13160690D01*
X27545595Y-13179738D01*
X27545595Y-13236881D01*
X27536071Y-13255928D01*
X27526548Y-13265452D01*
X27507500Y-13274976D01*
X27478928Y-13274976D01*
X27602738Y-13141643D02*
X27678928Y-13141643D01*
X27631309Y-13074976D02*
X27631309Y-13246405D01*
X27640833Y-13265452D01*
X27659881Y-13274976D01*
X27678928Y-13274976D01*
X27736071Y-13265452D02*
X27755119Y-13274976D01*
X27793214Y-13274976D01*
X27812262Y-13265452D01*
X27821786Y-13246405D01*
X27821786Y-13236881D01*
X27812262Y-13217833D01*
X27793214Y-13208309D01*
X27764643Y-13208309D01*
X27745595Y-13198786D01*
X27736071Y-13179738D01*
X27736071Y-13170214D01*
X27745595Y-13151167D01*
X27764643Y-13141643D01*
X27793214Y-13141643D01*
X27812262Y-13151167D01*
X27888452Y-13351167D02*
X27897976Y-13341643D01*
X27917024Y-13313071D01*
X27926548Y-13294024D01*
X27936071Y-13265452D01*
X27945595Y-13217833D01*
X27945595Y-13179738D01*
X27936071Y-13132119D01*
X27926548Y-13103548D01*
X27917024Y-13084500D01*
X27897976Y-13055928D01*
X27888452Y-13046405D01*
D15*
X21462500Y-13483500D02*
X21497500Y-13448500D01*
X21462500Y-13413500D01*
X21427500Y-13448500D01*
X21462500Y-13483500D01*
D11*
X21793214Y-13338976D02*
X21812262Y-13338976D01*
X21831310Y-13348500D01*
X21840833Y-13358024D01*
X21850357Y-13377071D01*
X21859881Y-13415167D01*
X21859881Y-13462786D01*
X21850357Y-13500881D01*
X21840833Y-13519928D01*
X21831310Y-13529452D01*
X21812262Y-13538976D01*
X21793214Y-13538976D01*
X21774167Y-13529452D01*
X21764643Y-13519928D01*
X21755119Y-13500881D01*
X21745595Y-13462786D01*
X21745595Y-13415167D01*
X21755119Y-13377071D01*
X21764643Y-13358024D01*
X21774167Y-13348500D01*
X21793214Y-13338976D01*
X21945595Y-13519928D02*
X21955119Y-13529452D01*
X21945595Y-13538976D01*
X21936071Y-13529452D01*
X21945595Y-13519928D01*
X21945595Y-13538976D01*
X22021786Y-13338976D02*
X22155119Y-13338976D01*
X22069405Y-13538976D01*
X22269405Y-13338976D02*
X22288452Y-13338976D01*
X22307500Y-13348500D01*
X22317024Y-13358024D01*
X22326548Y-13377071D01*
X22336071Y-13415167D01*
X22336071Y-13462786D01*
X22326548Y-13500881D01*
X22317024Y-13519928D01*
X22307500Y-13529452D01*
X22288452Y-13538976D01*
X22269405Y-13538976D01*
X22250357Y-13529452D01*
X22240833Y-13519928D01*
X22231310Y-13500881D01*
X22221786Y-13462786D01*
X22221786Y-13415167D01*
X22231310Y-13377071D01*
X22240833Y-13358024D01*
X22250357Y-13348500D01*
X22269405Y-13338976D01*
X22459881Y-13338976D02*
X22478928Y-13338976D01*
X22497976Y-13348500D01*
X22507500Y-13358024D01*
X22517024Y-13377071D01*
X22526548Y-13415167D01*
X22526548Y-13462786D01*
X22517024Y-13500881D01*
X22507500Y-13519928D01*
X22497976Y-13529452D01*
X22478928Y-13538976D01*
X22459881Y-13538976D01*
X22440833Y-13529452D01*
X22431309Y-13519928D01*
X22421786Y-13500881D01*
X22412262Y-13462786D01*
X22412262Y-13415167D01*
X22421786Y-13377071D01*
X22431309Y-13358024D01*
X22440833Y-13348500D01*
X22459881Y-13338976D01*
X22612262Y-13538976D02*
X22612262Y-13405643D01*
X22612262Y-13424690D02*
X22621786Y-13415167D01*
X22640833Y-13405643D01*
X22669405Y-13405643D01*
X22688452Y-13415167D01*
X22697976Y-13434214D01*
X22697976Y-13538976D01*
X22697976Y-13434214D02*
X22707500Y-13415167D01*
X22726548Y-13405643D01*
X22755119Y-13405643D01*
X22774167Y-13415167D01*
X22783690Y-13434214D01*
X22783690Y-13538976D01*
X22878928Y-13538976D02*
X22878928Y-13405643D01*
X22878928Y-13424690D02*
X22888452Y-13415167D01*
X22907500Y-13405643D01*
X22936071Y-13405643D01*
X22955119Y-13415167D01*
X22964643Y-13434214D01*
X22964643Y-13538976D01*
X22964643Y-13434214D02*
X22974167Y-13415167D01*
X22993214Y-13405643D01*
X23021786Y-13405643D01*
X23040833Y-13415167D01*
X23050357Y-13434214D01*
X23050357Y-13538976D01*
X23440833Y-13329452D02*
X23269405Y-13586595D01*
X23697976Y-13338976D02*
X23717024Y-13338976D01*
X23736071Y-13348500D01*
X23745595Y-13358024D01*
X23755119Y-13377071D01*
X23764643Y-13415167D01*
X23764643Y-13462786D01*
X23755119Y-13500881D01*
X23745595Y-13519928D01*
X23736071Y-13529452D01*
X23717024Y-13538976D01*
X23697976Y-13538976D01*
X23678928Y-13529452D01*
X23669405Y-13519928D01*
X23659881Y-13500881D01*
X23650357Y-13462786D01*
X23650357Y-13415167D01*
X23659881Y-13377071D01*
X23669405Y-13358024D01*
X23678928Y-13348500D01*
X23697976Y-13338976D01*
X23850357Y-13519928D02*
X23859881Y-13529452D01*
X23850357Y-13538976D01*
X23840833Y-13529452D01*
X23850357Y-13519928D01*
X23850357Y-13538976D01*
X23983690Y-13338976D02*
X24002738Y-13338976D01*
X24021786Y-13348500D01*
X24031309Y-13358024D01*
X24040833Y-13377071D01*
X24050357Y-13415167D01*
X24050357Y-13462786D01*
X24040833Y-13500881D01*
X24031309Y-13519928D01*
X24021786Y-13529452D01*
X24002738Y-13538976D01*
X23983690Y-13538976D01*
X23964643Y-13529452D01*
X23955119Y-13519928D01*
X23945595Y-13500881D01*
X23936071Y-13462786D01*
X23936071Y-13415167D01*
X23945595Y-13377071D01*
X23955119Y-13358024D01*
X23964643Y-13348500D01*
X23983690Y-13338976D01*
X24126548Y-13358024D02*
X24136071Y-13348500D01*
X24155119Y-13338976D01*
X24202738Y-13338976D01*
X24221786Y-13348500D01*
X24231309Y-13358024D01*
X24240833Y-13377071D01*
X24240833Y-13396119D01*
X24231309Y-13424690D01*
X24117024Y-13538976D01*
X24240833Y-13538976D01*
X24307500Y-13338976D02*
X24440833Y-13338976D01*
X24355119Y-13538976D01*
X24602738Y-13338976D02*
X24564643Y-13338976D01*
X24545595Y-13348500D01*
X24536071Y-13358024D01*
X24517024Y-13386595D01*
X24507500Y-13424690D01*
X24507500Y-13500881D01*
X24517024Y-13519928D01*
X24526548Y-13529452D01*
X24545595Y-13538976D01*
X24583690Y-13538976D01*
X24602738Y-13529452D01*
X24612262Y-13519928D01*
X24621786Y-13500881D01*
X24621786Y-13453262D01*
X24612262Y-13434214D01*
X24602738Y-13424690D01*
X24583690Y-13415167D01*
X24545595Y-13415167D01*
X24526548Y-13424690D01*
X24517024Y-13434214D01*
X24507500Y-13453262D01*
X24697976Y-13338976D02*
X24697976Y-13377071D01*
X24774167Y-13338976D02*
X24774167Y-13377071D01*
X25069405Y-13615167D02*
X25059881Y-13605643D01*
X25040833Y-13577071D01*
X25031309Y-13558024D01*
X25021786Y-13529452D01*
X25012262Y-13481833D01*
X25012262Y-13443738D01*
X25021786Y-13396119D01*
X25031309Y-13367548D01*
X25040833Y-13348500D01*
X25059881Y-13319928D01*
X25069405Y-13310405D01*
X25250357Y-13538976D02*
X25136071Y-13538976D01*
X25193214Y-13538976D02*
X25193214Y-13338976D01*
X25174167Y-13367548D01*
X25155119Y-13386595D01*
X25136071Y-13396119D01*
X25374167Y-13338976D02*
X25393214Y-13338976D01*
X25412262Y-13348500D01*
X25421786Y-13358024D01*
X25431309Y-13377071D01*
X25440833Y-13415167D01*
X25440833Y-13462786D01*
X25431309Y-13500881D01*
X25421786Y-13519928D01*
X25412262Y-13529452D01*
X25393214Y-13538976D01*
X25374167Y-13538976D01*
X25355119Y-13529452D01*
X25345595Y-13519928D01*
X25336071Y-13500881D01*
X25326548Y-13462786D01*
X25326548Y-13415167D01*
X25336071Y-13377071D01*
X25345595Y-13358024D01*
X25355119Y-13348500D01*
X25374167Y-13338976D01*
X25678928Y-13538976D02*
X25678928Y-13338976D01*
X25764643Y-13538976D02*
X25764643Y-13434214D01*
X25755119Y-13415167D01*
X25736071Y-13405643D01*
X25707500Y-13405643D01*
X25688452Y-13415167D01*
X25678928Y-13424690D01*
X25888452Y-13538976D02*
X25869405Y-13529452D01*
X25859881Y-13519928D01*
X25850357Y-13500881D01*
X25850357Y-13443738D01*
X25859881Y-13424690D01*
X25869405Y-13415167D01*
X25888452Y-13405643D01*
X25917024Y-13405643D01*
X25936071Y-13415167D01*
X25945595Y-13424690D01*
X25955119Y-13443738D01*
X25955119Y-13500881D01*
X25945595Y-13519928D01*
X25936071Y-13529452D01*
X25917024Y-13538976D01*
X25888452Y-13538976D01*
X26069405Y-13538976D02*
X26050357Y-13529452D01*
X26040833Y-13510405D01*
X26040833Y-13338976D01*
X26221786Y-13529452D02*
X26202738Y-13538976D01*
X26164643Y-13538976D01*
X26145595Y-13529452D01*
X26136071Y-13510405D01*
X26136071Y-13434214D01*
X26145595Y-13415167D01*
X26164643Y-13405643D01*
X26202738Y-13405643D01*
X26221786Y-13415167D01*
X26231309Y-13434214D01*
X26231309Y-13453262D01*
X26136071Y-13472309D01*
X26307500Y-13529452D02*
X26326548Y-13538976D01*
X26364643Y-13538976D01*
X26383690Y-13529452D01*
X26393214Y-13510405D01*
X26393214Y-13500881D01*
X26383690Y-13481833D01*
X26364643Y-13472309D01*
X26336071Y-13472309D01*
X26317024Y-13462786D01*
X26307500Y-13443738D01*
X26307500Y-13434214D01*
X26317024Y-13415167D01*
X26336071Y-13405643D01*
X26364643Y-13405643D01*
X26383690Y-13415167D01*
X26459881Y-13615167D02*
X26469405Y-13605643D01*
X26488452Y-13577071D01*
X26497976Y-13558024D01*
X26507500Y-13529452D01*
X26517024Y-13481833D01*
X26517024Y-13443738D01*
X26507500Y-13396119D01*
X26497976Y-13367548D01*
X26488452Y-13348500D01*
X26469405Y-13319928D01*
X26459881Y-13310405D01*
D16*
X21397500Y-13662500D02*
X21497500Y-13762500D01*
X21497500Y-13662500D02*
X21397500Y-13762500D01*
X21497500Y-13712500D02*
G75*
G03*
X21497500Y-13712500I-50000J0D01*
G01*
D11*
X21859881Y-13802976D02*
X21745595Y-13802976D01*
X21802738Y-13802976D02*
X21802738Y-13602976D01*
X21783690Y-13631548D01*
X21764643Y-13650595D01*
X21745595Y-13660119D01*
X21945595Y-13783928D02*
X21955119Y-13793452D01*
X21945595Y-13802976D01*
X21936071Y-13793452D01*
X21945595Y-13783928D01*
X21945595Y-13802976D01*
X22078929Y-13602976D02*
X22097976Y-13602976D01*
X22117024Y-13612500D01*
X22126548Y-13622024D01*
X22136071Y-13641071D01*
X22145595Y-13679167D01*
X22145595Y-13726786D01*
X22136071Y-13764881D01*
X22126548Y-13783928D01*
X22117024Y-13793452D01*
X22097976Y-13802976D01*
X22078929Y-13802976D01*
X22059881Y-13793452D01*
X22050357Y-13783928D01*
X22040833Y-13764881D01*
X22031310Y-13726786D01*
X22031310Y-13679167D01*
X22040833Y-13641071D01*
X22050357Y-13622024D01*
X22059881Y-13612500D01*
X22078929Y-13602976D01*
X22269405Y-13602976D02*
X22288452Y-13602976D01*
X22307500Y-13612500D01*
X22317024Y-13622024D01*
X22326548Y-13641071D01*
X22336071Y-13679167D01*
X22336071Y-13726786D01*
X22326548Y-13764881D01*
X22317024Y-13783928D01*
X22307500Y-13793452D01*
X22288452Y-13802976D01*
X22269405Y-13802976D01*
X22250357Y-13793452D01*
X22240833Y-13783928D01*
X22231310Y-13764881D01*
X22221786Y-13726786D01*
X22221786Y-13679167D01*
X22231310Y-13641071D01*
X22240833Y-13622024D01*
X22250357Y-13612500D01*
X22269405Y-13602976D01*
X22459881Y-13602976D02*
X22478928Y-13602976D01*
X22497976Y-13612500D01*
X22507500Y-13622024D01*
X22517024Y-13641071D01*
X22526548Y-13679167D01*
X22526548Y-13726786D01*
X22517024Y-13764881D01*
X22507500Y-13783928D01*
X22497976Y-13793452D01*
X22478928Y-13802976D01*
X22459881Y-13802976D01*
X22440833Y-13793452D01*
X22431309Y-13783928D01*
X22421786Y-13764881D01*
X22412262Y-13726786D01*
X22412262Y-13679167D01*
X22421786Y-13641071D01*
X22431309Y-13622024D01*
X22440833Y-13612500D01*
X22459881Y-13602976D01*
X22612262Y-13802976D02*
X22612262Y-13669643D01*
X22612262Y-13688690D02*
X22621786Y-13679167D01*
X22640833Y-13669643D01*
X22669405Y-13669643D01*
X22688452Y-13679167D01*
X22697976Y-13698214D01*
X22697976Y-13802976D01*
X22697976Y-13698214D02*
X22707500Y-13679167D01*
X22726548Y-13669643D01*
X22755119Y-13669643D01*
X22774167Y-13679167D01*
X22783690Y-13698214D01*
X22783690Y-13802976D01*
X22878928Y-13802976D02*
X22878928Y-13669643D01*
X22878928Y-13688690D02*
X22888452Y-13679167D01*
X22907500Y-13669643D01*
X22936071Y-13669643D01*
X22955119Y-13679167D01*
X22964643Y-13698214D01*
X22964643Y-13802976D01*
X22964643Y-13698214D02*
X22974167Y-13679167D01*
X22993214Y-13669643D01*
X23021786Y-13669643D01*
X23040833Y-13679167D01*
X23050357Y-13698214D01*
X23050357Y-13802976D01*
X23440833Y-13593452D02*
X23269405Y-13850595D01*
X23697976Y-13602976D02*
X23717024Y-13602976D01*
X23736071Y-13612500D01*
X23745595Y-13622024D01*
X23755119Y-13641071D01*
X23764643Y-13679167D01*
X23764643Y-13726786D01*
X23755119Y-13764881D01*
X23745595Y-13783928D01*
X23736071Y-13793452D01*
X23717024Y-13802976D01*
X23697976Y-13802976D01*
X23678928Y-13793452D01*
X23669405Y-13783928D01*
X23659881Y-13764881D01*
X23650357Y-13726786D01*
X23650357Y-13679167D01*
X23659881Y-13641071D01*
X23669405Y-13622024D01*
X23678928Y-13612500D01*
X23697976Y-13602976D01*
X23850357Y-13783928D02*
X23859881Y-13793452D01*
X23850357Y-13802976D01*
X23840833Y-13793452D01*
X23850357Y-13783928D01*
X23850357Y-13802976D01*
X23983690Y-13602976D02*
X24002738Y-13602976D01*
X24021786Y-13612500D01*
X24031309Y-13622024D01*
X24040833Y-13641071D01*
X24050357Y-13679167D01*
X24050357Y-13726786D01*
X24040833Y-13764881D01*
X24031309Y-13783928D01*
X24021786Y-13793452D01*
X24002738Y-13802976D01*
X23983690Y-13802976D01*
X23964643Y-13793452D01*
X23955119Y-13783928D01*
X23945595Y-13764881D01*
X23936071Y-13726786D01*
X23936071Y-13679167D01*
X23945595Y-13641071D01*
X23955119Y-13622024D01*
X23964643Y-13612500D01*
X23983690Y-13602976D01*
X24117024Y-13602976D02*
X24240833Y-13602976D01*
X24174167Y-13679167D01*
X24202738Y-13679167D01*
X24221786Y-13688690D01*
X24231309Y-13698214D01*
X24240833Y-13717262D01*
X24240833Y-13764881D01*
X24231309Y-13783928D01*
X24221786Y-13793452D01*
X24202738Y-13802976D01*
X24145595Y-13802976D01*
X24126548Y-13793452D01*
X24117024Y-13783928D01*
X24336071Y-13802976D02*
X24374167Y-13802976D01*
X24393214Y-13793452D01*
X24402738Y-13783928D01*
X24421786Y-13755357D01*
X24431309Y-13717262D01*
X24431309Y-13641071D01*
X24421786Y-13622024D01*
X24412262Y-13612500D01*
X24393214Y-13602976D01*
X24355119Y-13602976D01*
X24336071Y-13612500D01*
X24326548Y-13622024D01*
X24317024Y-13641071D01*
X24317024Y-13688690D01*
X24326548Y-13707738D01*
X24336071Y-13717262D01*
X24355119Y-13726786D01*
X24393214Y-13726786D01*
X24412262Y-13717262D01*
X24421786Y-13707738D01*
X24431309Y-13688690D01*
X24602738Y-13669643D02*
X24602738Y-13802976D01*
X24555119Y-13593452D02*
X24507500Y-13736309D01*
X24631309Y-13736309D01*
X24697976Y-13602976D02*
X24697976Y-13641071D01*
X24774167Y-13602976D02*
X24774167Y-13641071D01*
X25069405Y-13879167D02*
X25059881Y-13869643D01*
X25040833Y-13841071D01*
X25031309Y-13822024D01*
X25021786Y-13793452D01*
X25012262Y-13745833D01*
X25012262Y-13707738D01*
X25021786Y-13660119D01*
X25031309Y-13631548D01*
X25040833Y-13612500D01*
X25059881Y-13583928D01*
X25069405Y-13574405D01*
X25136071Y-13622024D02*
X25145595Y-13612500D01*
X25164643Y-13602976D01*
X25212262Y-13602976D01*
X25231309Y-13612500D01*
X25240833Y-13622024D01*
X25250357Y-13641071D01*
X25250357Y-13660119D01*
X25240833Y-13688690D01*
X25126548Y-13802976D01*
X25250357Y-13802976D01*
X25374167Y-13602976D02*
X25393214Y-13602976D01*
X25412262Y-13612500D01*
X25421786Y-13622024D01*
X25431309Y-13641071D01*
X25440833Y-13679167D01*
X25440833Y-13726786D01*
X25431309Y-13764881D01*
X25421786Y-13783928D01*
X25412262Y-13793452D01*
X25393214Y-13802976D01*
X25374167Y-13802976D01*
X25355119Y-13793452D01*
X25345595Y-13783928D01*
X25336071Y-13764881D01*
X25326548Y-13726786D01*
X25326548Y-13679167D01*
X25336071Y-13641071D01*
X25345595Y-13622024D01*
X25355119Y-13612500D01*
X25374167Y-13602976D01*
X25678928Y-13802976D02*
X25678928Y-13602976D01*
X25764643Y-13802976D02*
X25764643Y-13698214D01*
X25755119Y-13679167D01*
X25736071Y-13669643D01*
X25707500Y-13669643D01*
X25688452Y-13679167D01*
X25678928Y-13688690D01*
X25888452Y-13802976D02*
X25869405Y-13793452D01*
X25859881Y-13783928D01*
X25850357Y-13764881D01*
X25850357Y-13707738D01*
X25859881Y-13688690D01*
X25869405Y-13679167D01*
X25888452Y-13669643D01*
X25917024Y-13669643D01*
X25936071Y-13679167D01*
X25945595Y-13688690D01*
X25955119Y-13707738D01*
X25955119Y-13764881D01*
X25945595Y-13783928D01*
X25936071Y-13793452D01*
X25917024Y-13802976D01*
X25888452Y-13802976D01*
X26069405Y-13802976D02*
X26050357Y-13793452D01*
X26040833Y-13774405D01*
X26040833Y-13602976D01*
X26221786Y-13793452D02*
X26202738Y-13802976D01*
X26164643Y-13802976D01*
X26145595Y-13793452D01*
X26136071Y-13774405D01*
X26136071Y-13698214D01*
X26145595Y-13679167D01*
X26164643Y-13669643D01*
X26202738Y-13669643D01*
X26221786Y-13679167D01*
X26231309Y-13698214D01*
X26231309Y-13717262D01*
X26136071Y-13736309D01*
X26307500Y-13793452D02*
X26326548Y-13802976D01*
X26364643Y-13802976D01*
X26383690Y-13793452D01*
X26393214Y-13774405D01*
X26393214Y-13764881D01*
X26383690Y-13745833D01*
X26364643Y-13736309D01*
X26336071Y-13736309D01*
X26317024Y-13726786D01*
X26307500Y-13707738D01*
X26307500Y-13698214D01*
X26317024Y-13679167D01*
X26336071Y-13669643D01*
X26364643Y-13669643D01*
X26383690Y-13679167D01*
X26459881Y-13879167D02*
X26469405Y-13869643D01*
X26488452Y-13841071D01*
X26497976Y-13822024D01*
X26507500Y-13793452D01*
X26517024Y-13745833D01*
X26517024Y-13707738D01*
X26507500Y-13660119D01*
X26497976Y-13631548D01*
X26488452Y-13612500D01*
X26469405Y-13583928D01*
X26459881Y-13574405D01*
M02*
