%TF.GenerationSoftware,KiCad,Pcbnew,(6.0.9)*%
%TF.CreationDate,2022-11-19T16:26:50-05:00*%
%TF.ProjectId,EFR32MG22_module,45465233-324d-4473-9232-5f6d6f64756c,rev?*%
%TF.SameCoordinates,Original*%
%TF.FileFunction,Copper,L2,Bot*%
%TF.FilePolarity,Positive*%
%FSLAX46Y46*%
G04 Gerber Fmt 4.6, Leading zero omitted, Abs format (unit mm)*
G04 Created by KiCad (PCBNEW (6.0.9)) date 2022-11-19 16:26:50*
%MOMM*%
%LPD*%
G01*
G04 APERTURE LIST*
%TA.AperFunction,ComponentPad*%
%ADD10C,1.170000*%
%TD*%
%TA.AperFunction,ComponentPad*%
%ADD11R,1.170000X1.170000*%
%TD*%
%TA.AperFunction,ComponentPad*%
%ADD12R,1.700000X1.700000*%
%TD*%
%TA.AperFunction,ComponentPad*%
%ADD13O,1.700000X1.700000*%
%TD*%
%TA.AperFunction,ComponentPad*%
%ADD14C,0.500000*%
%TD*%
%TA.AperFunction,SMDPad,CuDef*%
%ADD15R,2.900000X2.900000*%
%TD*%
%TA.AperFunction,ComponentPad*%
%ADD16O,1.250000X0.950000*%
%TD*%
%TA.AperFunction,ComponentPad*%
%ADD17O,0.890000X1.550000*%
%TD*%
%TA.AperFunction,ViaPad*%
%ADD18C,0.800000*%
%TD*%
%TA.AperFunction,Conductor*%
%ADD19C,0.200000*%
%TD*%
G04 APERTURE END LIST*
D10*
%TO.P,J3,10,~{RESET}*%
%TO.N,/RESET_N*%
X237320000Y-103790000D03*
%TO.P,J3,9,GNDDetect*%
%TO.N,GND*%
X238590000Y-103790000D03*
%TO.P,J3,8,NC/TDI*%
%TO.N,/TDI*%
X237320000Y-105060000D03*
%TO.P,J3,7,KEY*%
%TO.N,unconnected-(J3-Pad7)*%
X238590000Y-105060000D03*
%TO.P,J3,6,SWO/TDO*%
%TO.N,/SWO*%
X237320000Y-106330000D03*
%TO.P,J3,5,GND*%
%TO.N,GND*%
X238590000Y-106330000D03*
%TO.P,J3,4,SWDCLK/TCK*%
%TO.N,/SWDCLK*%
X237320000Y-107600000D03*
%TO.P,J3,3,GND*%
%TO.N,GND*%
X238590000Y-107600000D03*
%TO.P,J3,2,SWDIO/TMS*%
%TO.N,/SWDIO*%
X237320000Y-108870000D03*
D11*
%TO.P,J3,1,VTref*%
%TO.N,+3.3V*%
X238590000Y-108870000D03*
%TD*%
D12*
%TO.P,J4,1,Pin_1*%
%TO.N,+3.3V*%
X242540000Y-84110000D03*
D13*
%TO.P,J4,2,Pin_2*%
%TO.N,/PD01*%
X242540000Y-86650000D03*
%TO.P,J4,3,Pin_3*%
%TO.N,/PA06*%
X242540000Y-89190000D03*
%TO.P,J4,4,Pin_4*%
%TO.N,/PA05*%
X242540000Y-91730000D03*
%TO.P,J4,5,Pin_5*%
%TO.N,/PA00*%
X242540000Y-94270000D03*
%TO.P,J4,6,Pin_6*%
%TO.N,/PB00*%
X242540000Y-96810000D03*
%TO.P,J4,7,Pin_7*%
%TO.N,/PB01*%
X242540000Y-99350000D03*
%TO.P,J4,8,Pin_8*%
%TO.N,/PB02*%
X242540000Y-101890000D03*
%TO.P,J4,9,Pin_9*%
%TO.N,GND*%
X242540000Y-104430000D03*
%TO.P,J4,10,Pin_10*%
%TO.N,/RESET_N*%
X242540000Y-106970000D03*
%TD*%
D14*
%TO.P,U1,33,VSS*%
%TO.N,GND*%
X228737500Y-97800000D03*
X230187500Y-99250000D03*
X228737500Y-99250000D03*
D15*
X229462500Y-98525000D03*
D14*
X230187500Y-97800000D03*
%TD*%
D12*
%TO.P,J2,1,Pin_1*%
%TO.N,VBUS*%
X217540000Y-84110000D03*
D13*
%TO.P,J2,2,Pin_2*%
%TO.N,/PD00*%
X217540000Y-86650000D03*
%TO.P,J2,3,Pin_3*%
%TO.N,/PC00*%
X217540000Y-89190000D03*
%TO.P,J2,4,Pin_4*%
%TO.N,/PC01*%
X217540000Y-91730000D03*
%TO.P,J2,5,Pin_5*%
%TO.N,GND*%
X217540000Y-94270000D03*
%TO.P,J2,6,Pin_6*%
%TO.N,/PC02*%
X217540000Y-96810000D03*
%TO.P,J2,7,Pin_7*%
%TO.N,/PC03*%
X217540000Y-99350000D03*
%TO.P,J2,8,Pin_8*%
%TO.N,/PC04*%
X217540000Y-101890000D03*
%TO.P,J2,9,Pin_9*%
%TO.N,GND*%
X217540000Y-104430000D03*
%TO.P,J2,10,Pin_10*%
%TO.N,/PC05*%
X217540000Y-106970000D03*
%TD*%
D16*
%TO.P,J1,6,Shield*%
%TO.N,GND*%
X231425000Y-86010000D03*
X226425000Y-86010000D03*
D17*
X225425000Y-83310000D03*
X232425000Y-83310000D03*
%TD*%
D18*
%TO.N,/PB02*%
X231070000Y-101790000D03*
X238670000Y-101980000D03*
%TO.N,+3.3V*%
X239300000Y-97210000D03*
%TO.N,/PB01*%
X238500000Y-100000000D03*
X232000000Y-101250000D03*
%TO.N,/PB00*%
X232943002Y-100693002D03*
%TO.N,/PA00*%
X232426244Y-99923998D03*
%TO.N,/SWDCLK*%
X235000000Y-107500000D03*
%TO.N,GND*%
X231425852Y-93033500D03*
X225400000Y-91570000D03*
X235720000Y-89170000D03*
X240150000Y-83112500D03*
X223100000Y-100173497D03*
X233968510Y-105967984D03*
X238110000Y-95300000D03*
X231110000Y-108410000D03*
X236000000Y-93000000D03*
%TO.N,/DVDD*%
X235315116Y-97590867D03*
X233260762Y-101623500D03*
%TO.N,+3.3V*%
X231920000Y-90490000D03*
X231980000Y-88940000D03*
%TD*%
D19*
%TO.N,/PB02*%
X231680000Y-101790000D02*
X232700000Y-102810000D01*
X231070000Y-101790000D02*
X231680000Y-101790000D01*
X232700000Y-102810000D02*
X237840000Y-102810000D01*
X237840000Y-102810000D02*
X238670000Y-101980000D01*
%TO.N,+3.3V*%
X238885000Y-108830000D02*
X239697000Y-108018000D01*
X239697000Y-108018000D02*
X239697000Y-97607000D01*
X239697000Y-97607000D02*
X239300000Y-97210000D01*
%TO.N,/DVDD*%
X235315116Y-99434884D02*
X233260762Y-101489238D01*
X235315116Y-97590867D02*
X235315116Y-99434884D01*
%TO.N,/PB01*%
X236250000Y-102250000D02*
X238500000Y-100000000D01*
X233000000Y-102250000D02*
X236250000Y-102250000D01*
X232000000Y-101250000D02*
X233000000Y-102250000D01*
%TO.N,/DVDD*%
X233260762Y-101489238D02*
X233260762Y-101623500D01*
%TO.N,/PB00*%
X235500000Y-96500000D02*
X233126500Y-98873500D01*
X241750000Y-96500000D02*
X235500000Y-96500000D01*
%TO.N,/PA00*%
X236730000Y-94270000D02*
X232426244Y-98573756D01*
X242540000Y-94270000D02*
X236730000Y-94270000D01*
%TO.N,/PB00*%
X233126500Y-100509504D02*
X232943002Y-100693002D01*
X233126500Y-98873500D02*
X233126500Y-100509504D01*
%TO.N,/PA00*%
X232426244Y-98573756D02*
X232426244Y-99923998D01*
%TO.N,/SWDCLK*%
X237250000Y-107560000D02*
X235060000Y-107560000D01*
X235060000Y-107560000D02*
X235000000Y-107500000D01*
%TO.N,+3.3V*%
X231920000Y-90490000D02*
X231980000Y-90430000D01*
X231980000Y-90430000D02*
X231980000Y-88940000D01*
%TD*%
%TA.AperFunction,Conductor*%
%TO.N,GND*%
G36*
X244333621Y-80528502D02*
G01*
X244380114Y-80582158D01*
X244391500Y-80634500D01*
X244391500Y-111874000D01*
X244371498Y-111942121D01*
X244317842Y-111988614D01*
X244265500Y-112000000D01*
X215634500Y-112000000D01*
X215566379Y-111979998D01*
X215519886Y-111926342D01*
X215508500Y-111874000D01*
X215508500Y-106936695D01*
X216177251Y-106936695D01*
X216177548Y-106941848D01*
X216177548Y-106941851D01*
X216183011Y-107036590D01*
X216190110Y-107159715D01*
X216191247Y-107164761D01*
X216191248Y-107164767D01*
X216211119Y-107252939D01*
X216239222Y-107377639D01*
X216323266Y-107584616D01*
X216439987Y-107775088D01*
X216586250Y-107943938D01*
X216758126Y-108086632D01*
X216951000Y-108199338D01*
X217159692Y-108279030D01*
X217164760Y-108280061D01*
X217164763Y-108280062D01*
X217232303Y-108293803D01*
X217378597Y-108323567D01*
X217383772Y-108323757D01*
X217383774Y-108323757D01*
X217596673Y-108331564D01*
X217596677Y-108331564D01*
X217601837Y-108331753D01*
X217606957Y-108331097D01*
X217606959Y-108331097D01*
X217818288Y-108304025D01*
X217818289Y-108304025D01*
X217823416Y-108303368D01*
X217855298Y-108293803D01*
X218032429Y-108240661D01*
X218032434Y-108240659D01*
X218037384Y-108239174D01*
X218237994Y-108140896D01*
X218419860Y-108011173D01*
X218578096Y-107853489D01*
X218637594Y-107770689D01*
X218705435Y-107676277D01*
X218708453Y-107672077D01*
X218744076Y-107600000D01*
X218805136Y-107476453D01*
X218805137Y-107476451D01*
X218807430Y-107471811D01*
X218872370Y-107258069D01*
X218901529Y-107036590D01*
X218903156Y-106970000D01*
X218884852Y-106747361D01*
X218830431Y-106530702D01*
X218741354Y-106325840D01*
X218701906Y-106264862D01*
X218622822Y-106142617D01*
X218622820Y-106142614D01*
X218620014Y-106138277D01*
X218469670Y-105973051D01*
X218465619Y-105969852D01*
X218465615Y-105969848D01*
X218298414Y-105837800D01*
X218298410Y-105837798D01*
X218294359Y-105834598D01*
X218252569Y-105811529D01*
X218202598Y-105761097D01*
X218187826Y-105691654D01*
X218212942Y-105625248D01*
X218240294Y-105598641D01*
X218415328Y-105473792D01*
X218423200Y-105467139D01*
X218574052Y-105316812D01*
X218580730Y-105308965D01*
X218705003Y-105136020D01*
X218710313Y-105127183D01*
X218804670Y-104936267D01*
X218808469Y-104926672D01*
X218870377Y-104722910D01*
X218872555Y-104712837D01*
X218873986Y-104701962D01*
X218871775Y-104687778D01*
X218858617Y-104684000D01*
X216223225Y-104684000D01*
X216209694Y-104687973D01*
X216208257Y-104697966D01*
X216238565Y-104832446D01*
X216241645Y-104842275D01*
X216321770Y-105039603D01*
X216326413Y-105048794D01*
X216437694Y-105230388D01*
X216443777Y-105238699D01*
X216583213Y-105399667D01*
X216590580Y-105406883D01*
X216754434Y-105542916D01*
X216762881Y-105548831D01*
X216831969Y-105589203D01*
X216880693Y-105640842D01*
X216893764Y-105710625D01*
X216867033Y-105776396D01*
X216826584Y-105809752D01*
X216813607Y-105816507D01*
X216809474Y-105819610D01*
X216809471Y-105819612D01*
X216639100Y-105947530D01*
X216634965Y-105950635D01*
X216631393Y-105954373D01*
X216490629Y-106101674D01*
X216480629Y-106112138D01*
X216477715Y-106116410D01*
X216477714Y-106116411D01*
X216448319Y-106159502D01*
X216354743Y-106296680D01*
X216260688Y-106499305D01*
X216200989Y-106714570D01*
X216177251Y-106936695D01*
X215508500Y-106936695D01*
X215508500Y-101856695D01*
X216177251Y-101856695D01*
X216177548Y-101861848D01*
X216177548Y-101861851D01*
X216188293Y-102048196D01*
X216190110Y-102079715D01*
X216191247Y-102084761D01*
X216191248Y-102084767D01*
X216208554Y-102161556D01*
X216239222Y-102297639D01*
X216277461Y-102391811D01*
X216308750Y-102468866D01*
X216323266Y-102504616D01*
X216439987Y-102695088D01*
X216586250Y-102863938D01*
X216758126Y-103006632D01*
X216831955Y-103049774D01*
X216880679Y-103101412D01*
X216893750Y-103171195D01*
X216867019Y-103236967D01*
X216826562Y-103270327D01*
X216818457Y-103274546D01*
X216809738Y-103280036D01*
X216639433Y-103407905D01*
X216631726Y-103414748D01*
X216484590Y-103568717D01*
X216478104Y-103576727D01*
X216358098Y-103752649D01*
X216353000Y-103761623D01*
X216263338Y-103954783D01*
X216259775Y-103964470D01*
X216204389Y-104164183D01*
X216205912Y-104172607D01*
X216218292Y-104176000D01*
X218858344Y-104176000D01*
X218871875Y-104172027D01*
X218873180Y-104162947D01*
X218831214Y-103995875D01*
X218827894Y-103986124D01*
X218742972Y-103790814D01*
X218738105Y-103781739D01*
X218622426Y-103602926D01*
X218616136Y-103594757D01*
X218472806Y-103437240D01*
X218465273Y-103430215D01*
X218298139Y-103298222D01*
X218289556Y-103292520D01*
X218252602Y-103272120D01*
X218202631Y-103221687D01*
X218187859Y-103152245D01*
X218212975Y-103085839D01*
X218240327Y-103059232D01*
X218263797Y-103042491D01*
X218419860Y-102931173D01*
X218462683Y-102888500D01*
X218502527Y-102848794D01*
X218578096Y-102773489D01*
X218637594Y-102690689D01*
X218705435Y-102596277D01*
X218708453Y-102592077D01*
X218712543Y-102583803D01*
X218805136Y-102396453D01*
X218805137Y-102396451D01*
X218807430Y-102391811D01*
X218872370Y-102178069D01*
X218901529Y-101956590D01*
X218901611Y-101953240D01*
X218903074Y-101893365D01*
X218903074Y-101893361D01*
X218903156Y-101890000D01*
X218884852Y-101667361D01*
X218830431Y-101450702D01*
X218741354Y-101245840D01*
X218657386Y-101116045D01*
X218622822Y-101062617D01*
X218622820Y-101062614D01*
X218620014Y-101058277D01*
X218469670Y-100893051D01*
X218465619Y-100889852D01*
X218465615Y-100889848D01*
X218298414Y-100757800D01*
X218298410Y-100757798D01*
X218294359Y-100754598D01*
X218253053Y-100731796D01*
X218203084Y-100681364D01*
X218188312Y-100611921D01*
X218213428Y-100545516D01*
X218240780Y-100518909D01*
X218284603Y-100487650D01*
X218419860Y-100391173D01*
X218578096Y-100233489D01*
X218618368Y-100177445D01*
X218705435Y-100056277D01*
X218708453Y-100052077D01*
X218724470Y-100019669D01*
X227504501Y-100019669D01*
X227504871Y-100026490D01*
X227510395Y-100077352D01*
X227514021Y-100092604D01*
X227559176Y-100213054D01*
X227567714Y-100228649D01*
X227644215Y-100330724D01*
X227656776Y-100343285D01*
X227758851Y-100419786D01*
X227774446Y-100428324D01*
X227894894Y-100473478D01*
X227910149Y-100477105D01*
X227961014Y-100482631D01*
X227967828Y-100483000D01*
X229190385Y-100483000D01*
X229205624Y-100478525D01*
X229206829Y-100477135D01*
X229208500Y-100469452D01*
X229208500Y-100464884D01*
X229716500Y-100464884D01*
X229720975Y-100480123D01*
X229722365Y-100481328D01*
X229730048Y-100482999D01*
X230957169Y-100482999D01*
X230963990Y-100482629D01*
X231014852Y-100477105D01*
X231030104Y-100473479D01*
X231150554Y-100428324D01*
X231166149Y-100419786D01*
X231268224Y-100343285D01*
X231280785Y-100330724D01*
X231360031Y-100224986D01*
X231416890Y-100182471D01*
X231487708Y-100177445D01*
X231550002Y-100211505D01*
X231580688Y-100261612D01*
X231591717Y-100295554D01*
X231594449Y-100300287D01*
X231603827Y-100370233D01*
X231573721Y-100434530D01*
X231544770Y-100458205D01*
X231543248Y-100458882D01*
X231537906Y-100462764D01*
X231537903Y-100462765D01*
X231473612Y-100509476D01*
X231388747Y-100571134D01*
X231384326Y-100576044D01*
X231384325Y-100576045D01*
X231289496Y-100681364D01*
X231260960Y-100713056D01*
X231257659Y-100718774D01*
X231200082Y-100818500D01*
X231148700Y-100867493D01*
X231090963Y-100881500D01*
X230974513Y-100881500D01*
X230968061Y-100882872D01*
X230968056Y-100882872D01*
X230902203Y-100896870D01*
X230787712Y-100921206D01*
X230781682Y-100923891D01*
X230781681Y-100923891D01*
X230619278Y-100996197D01*
X230619276Y-100996198D01*
X230613248Y-100998882D01*
X230458747Y-101111134D01*
X230330960Y-101253056D01*
X230235473Y-101418444D01*
X230176458Y-101600072D01*
X230175768Y-101606633D01*
X230175768Y-101606635D01*
X230173356Y-101629588D01*
X230156496Y-101790000D01*
X230176458Y-101979928D01*
X230235473Y-102161556D01*
X230238776Y-102167278D01*
X230238777Y-102167279D01*
X230258535Y-102201500D01*
X230330960Y-102326944D01*
X230458747Y-102468866D01*
X230613248Y-102581118D01*
X230619276Y-102583802D01*
X230619278Y-102583803D01*
X230692787Y-102616531D01*
X230787712Y-102658794D01*
X230881112Y-102678647D01*
X230968056Y-102697128D01*
X230968061Y-102697128D01*
X230974513Y-102698500D01*
X231165487Y-102698500D01*
X231171939Y-102697128D01*
X231171944Y-102697128D01*
X231258888Y-102678647D01*
X231352288Y-102658794D01*
X231358315Y-102656111D01*
X231358323Y-102656108D01*
X231505639Y-102590519D01*
X231576006Y-102581085D01*
X231640303Y-102611192D01*
X231645982Y-102616531D01*
X232235685Y-103206234D01*
X232246552Y-103218625D01*
X232266013Y-103243987D01*
X232272563Y-103249013D01*
X232297921Y-103268471D01*
X232297937Y-103268485D01*
X232329261Y-103292520D01*
X232393124Y-103341524D01*
X232541149Y-103402838D01*
X232549336Y-103403916D01*
X232549337Y-103403916D01*
X232560542Y-103405391D01*
X232591738Y-103409498D01*
X232660115Y-103418500D01*
X232660118Y-103418500D01*
X232660126Y-103418501D01*
X232691811Y-103422672D01*
X232700000Y-103423750D01*
X232731693Y-103419578D01*
X232748136Y-103418500D01*
X236121189Y-103418500D01*
X236189310Y-103438502D01*
X236235803Y-103492158D01*
X236245798Y-103561672D01*
X236245813Y-103561674D01*
X236222191Y-103761253D01*
X236235335Y-103961794D01*
X236284805Y-104156582D01*
X236368944Y-104339092D01*
X236372277Y-104343807D01*
X236372278Y-104343810D01*
X236378636Y-104352806D01*
X236401618Y-104419980D01*
X236387248Y-104484194D01*
X236305409Y-104639743D01*
X236245813Y-104831674D01*
X236222191Y-105031253D01*
X236235335Y-105231794D01*
X236284805Y-105426582D01*
X236368944Y-105609092D01*
X236372277Y-105613807D01*
X236372278Y-105613810D01*
X236378636Y-105622806D01*
X236401618Y-105689980D01*
X236387248Y-105754194D01*
X236305409Y-105909743D01*
X236245813Y-106101674D01*
X236222191Y-106301253D01*
X236235335Y-106501794D01*
X236258466Y-106592872D01*
X236268202Y-106631206D01*
X236284805Y-106696582D01*
X236287222Y-106701826D01*
X236287225Y-106701833D01*
X236319918Y-106772749D01*
X236330273Y-106842986D01*
X236301010Y-106907672D01*
X236241422Y-106946269D01*
X236205492Y-106951500D01*
X235784733Y-106951500D01*
X235716612Y-106931498D01*
X235691097Y-106909810D01*
X235615675Y-106826045D01*
X235615674Y-106826044D01*
X235611253Y-106821134D01*
X235502806Y-106742342D01*
X235462094Y-106712763D01*
X235462093Y-106712762D01*
X235456752Y-106708882D01*
X235450724Y-106706198D01*
X235450722Y-106706197D01*
X235288319Y-106633891D01*
X235288318Y-106633891D01*
X235282288Y-106631206D01*
X235188887Y-106611353D01*
X235101944Y-106592872D01*
X235101939Y-106592872D01*
X235095487Y-106591500D01*
X234904513Y-106591500D01*
X234898061Y-106592872D01*
X234898056Y-106592872D01*
X234811112Y-106611353D01*
X234717712Y-106631206D01*
X234711682Y-106633891D01*
X234711681Y-106633891D01*
X234549278Y-106706197D01*
X234549276Y-106706198D01*
X234543248Y-106708882D01*
X234537907Y-106712762D01*
X234537906Y-106712763D01*
X234497194Y-106742342D01*
X234388747Y-106821134D01*
X234384326Y-106826044D01*
X234384325Y-106826045D01*
X234267834Y-106955422D01*
X234260960Y-106963056D01*
X234165473Y-107128444D01*
X234106458Y-107310072D01*
X234105768Y-107316633D01*
X234105768Y-107316635D01*
X234098853Y-107382425D01*
X234086496Y-107500000D01*
X234087186Y-107506565D01*
X234097396Y-107603704D01*
X234106458Y-107689928D01*
X234165473Y-107871556D01*
X234260960Y-108036944D01*
X234388747Y-108178866D01*
X234419461Y-108201181D01*
X234516778Y-108271886D01*
X234543248Y-108291118D01*
X234549276Y-108293802D01*
X234549278Y-108293803D01*
X234682615Y-108353168D01*
X234717712Y-108368794D01*
X234811113Y-108388647D01*
X234898056Y-108407128D01*
X234898061Y-108407128D01*
X234904513Y-108408500D01*
X235095487Y-108408500D01*
X235101939Y-108407128D01*
X235101944Y-108407128D01*
X235188887Y-108388647D01*
X235282288Y-108368794D01*
X235317385Y-108353168D01*
X235450722Y-108293803D01*
X235450724Y-108293802D01*
X235456752Y-108291118D01*
X235483223Y-108271886D01*
X235580539Y-108201181D01*
X235592400Y-108192564D01*
X235659266Y-108168706D01*
X235666460Y-108168500D01*
X236244712Y-108168500D01*
X236312833Y-108188502D01*
X236359326Y-108242158D01*
X236369430Y-108312432D01*
X236356220Y-108353168D01*
X236305409Y-108449743D01*
X236245813Y-108641674D01*
X236222191Y-108841253D01*
X236235335Y-109041794D01*
X236284805Y-109236582D01*
X236368944Y-109419092D01*
X236484934Y-109583214D01*
X236628890Y-109723450D01*
X236795991Y-109835104D01*
X236801294Y-109837382D01*
X236801297Y-109837384D01*
X236947574Y-109900229D01*
X236980642Y-109914436D01*
X237053334Y-109930885D01*
X237171021Y-109957515D01*
X237171027Y-109957516D01*
X237176658Y-109958790D01*
X237182429Y-109959017D01*
X237182431Y-109959017D01*
X237243861Y-109961430D01*
X237377475Y-109966680D01*
X237476920Y-109952261D01*
X237570652Y-109938671D01*
X237570657Y-109938670D01*
X237576366Y-109937842D01*
X237581830Y-109935987D01*
X237581835Y-109935986D01*
X237674353Y-109904580D01*
X237745288Y-109901624D01*
X237759083Y-109905911D01*
X237887282Y-109953971D01*
X237887288Y-109953973D01*
X237894684Y-109956745D01*
X237956866Y-109963500D01*
X239223134Y-109963500D01*
X239285316Y-109956745D01*
X239421705Y-109905615D01*
X239538261Y-109818261D01*
X239625615Y-109701705D01*
X239676745Y-109565316D01*
X239683500Y-109503134D01*
X239683500Y-108944239D01*
X239703502Y-108876118D01*
X239720405Y-108855144D01*
X240093234Y-108482315D01*
X240105625Y-108471448D01*
X240124437Y-108457013D01*
X240130987Y-108451987D01*
X240155474Y-108420075D01*
X240155477Y-108420072D01*
X240228523Y-108324876D01*
X240228524Y-108324875D01*
X240237161Y-108304025D01*
X240286678Y-108184479D01*
X240289838Y-108176850D01*
X240305500Y-108057885D01*
X240305500Y-108057878D01*
X240310750Y-108018000D01*
X240306578Y-107986307D01*
X240305500Y-107969864D01*
X240305500Y-106936695D01*
X241177251Y-106936695D01*
X241177548Y-106941848D01*
X241177548Y-106941851D01*
X241183011Y-107036590D01*
X241190110Y-107159715D01*
X241191247Y-107164761D01*
X241191248Y-107164767D01*
X241211119Y-107252939D01*
X241239222Y-107377639D01*
X241323266Y-107584616D01*
X241439987Y-107775088D01*
X241586250Y-107943938D01*
X241758126Y-108086632D01*
X241951000Y-108199338D01*
X242159692Y-108279030D01*
X242164760Y-108280061D01*
X242164763Y-108280062D01*
X242232303Y-108293803D01*
X242378597Y-108323567D01*
X242383772Y-108323757D01*
X242383774Y-108323757D01*
X242596673Y-108331564D01*
X242596677Y-108331564D01*
X242601837Y-108331753D01*
X242606957Y-108331097D01*
X242606959Y-108331097D01*
X242818288Y-108304025D01*
X242818289Y-108304025D01*
X242823416Y-108303368D01*
X242855298Y-108293803D01*
X243032429Y-108240661D01*
X243032434Y-108240659D01*
X243037384Y-108239174D01*
X243237994Y-108140896D01*
X243419860Y-108011173D01*
X243578096Y-107853489D01*
X243637594Y-107770689D01*
X243705435Y-107676277D01*
X243708453Y-107672077D01*
X243744076Y-107600000D01*
X243805136Y-107476453D01*
X243805137Y-107476451D01*
X243807430Y-107471811D01*
X243872370Y-107258069D01*
X243901529Y-107036590D01*
X243903156Y-106970000D01*
X243884852Y-106747361D01*
X243830431Y-106530702D01*
X243741354Y-106325840D01*
X243701906Y-106264862D01*
X243622822Y-106142617D01*
X243622820Y-106142614D01*
X243620014Y-106138277D01*
X243469670Y-105973051D01*
X243465619Y-105969852D01*
X243465615Y-105969848D01*
X243298414Y-105837800D01*
X243298410Y-105837798D01*
X243294359Y-105834598D01*
X243252569Y-105811529D01*
X243202598Y-105761097D01*
X243187826Y-105691654D01*
X243212942Y-105625248D01*
X243240294Y-105598641D01*
X243415328Y-105473792D01*
X243423200Y-105467139D01*
X243574052Y-105316812D01*
X243580730Y-105308965D01*
X243705003Y-105136020D01*
X243710313Y-105127183D01*
X243804670Y-104936267D01*
X243808469Y-104926672D01*
X243870377Y-104722910D01*
X243872555Y-104712837D01*
X243873986Y-104701962D01*
X243871775Y-104687778D01*
X243858617Y-104684000D01*
X241223225Y-104684000D01*
X241209694Y-104687973D01*
X241208257Y-104697966D01*
X241238565Y-104832446D01*
X241241645Y-104842275D01*
X241321770Y-105039603D01*
X241326413Y-105048794D01*
X241437694Y-105230388D01*
X241443777Y-105238699D01*
X241583213Y-105399667D01*
X241590580Y-105406883D01*
X241754434Y-105542916D01*
X241762881Y-105548831D01*
X241831969Y-105589203D01*
X241880693Y-105640842D01*
X241893764Y-105710625D01*
X241867033Y-105776396D01*
X241826584Y-105809752D01*
X241813607Y-105816507D01*
X241809474Y-105819610D01*
X241809471Y-105819612D01*
X241639100Y-105947530D01*
X241634965Y-105950635D01*
X241631393Y-105954373D01*
X241490629Y-106101674D01*
X241480629Y-106112138D01*
X241477715Y-106116410D01*
X241477714Y-106116411D01*
X241448319Y-106159502D01*
X241354743Y-106296680D01*
X241260688Y-106499305D01*
X241200989Y-106714570D01*
X241177251Y-106936695D01*
X240305500Y-106936695D01*
X240305500Y-97655136D01*
X240306578Y-97638690D01*
X240309172Y-97618990D01*
X240310750Y-97607000D01*
X240305500Y-97567120D01*
X240305500Y-97567115D01*
X240289838Y-97448150D01*
X240284534Y-97435345D01*
X240228524Y-97300124D01*
X240227385Y-97298640D01*
X240211343Y-97232525D01*
X240211891Y-97225344D01*
X240212313Y-97221329D01*
X240239326Y-97155672D01*
X240297548Y-97115043D01*
X240337623Y-97108500D01*
X241113862Y-97108500D01*
X241181983Y-97128502D01*
X241228476Y-97182158D01*
X241236778Y-97206796D01*
X241239222Y-97217639D01*
X241277461Y-97311811D01*
X241315791Y-97406206D01*
X241323266Y-97424616D01*
X241325965Y-97429020D01*
X241435031Y-97607000D01*
X241439987Y-97615088D01*
X241586250Y-97783938D01*
X241758126Y-97926632D01*
X241808620Y-97956138D01*
X241831445Y-97969476D01*
X241880169Y-98021114D01*
X241893240Y-98090897D01*
X241866509Y-98156669D01*
X241826055Y-98190027D01*
X241813607Y-98196507D01*
X241809474Y-98199610D01*
X241809471Y-98199612D01*
X241639100Y-98327530D01*
X241634965Y-98330635D01*
X241631393Y-98334373D01*
X241513135Y-98458123D01*
X241480629Y-98492138D01*
X241477715Y-98496410D01*
X241477714Y-98496411D01*
X241403336Y-98605446D01*
X241354743Y-98676680D01*
X241339003Y-98710590D01*
X241292335Y-98811128D01*
X241260688Y-98879305D01*
X241200989Y-99094570D01*
X241177251Y-99316695D01*
X241177548Y-99321848D01*
X241177548Y-99321851D01*
X241184462Y-99441761D01*
X241190110Y-99539715D01*
X241191247Y-99544761D01*
X241191248Y-99544767D01*
X241202284Y-99593734D01*
X241239222Y-99757639D01*
X241276832Y-99850261D01*
X241309003Y-99929489D01*
X241323266Y-99964616D01*
X241325965Y-99969020D01*
X241399593Y-100089170D01*
X241439987Y-100155088D01*
X241586250Y-100323938D01*
X241758126Y-100466632D01*
X241785502Y-100482629D01*
X241831445Y-100509476D01*
X241880169Y-100561114D01*
X241893240Y-100630897D01*
X241866509Y-100696669D01*
X241826055Y-100730027D01*
X241813607Y-100736507D01*
X241809474Y-100739610D01*
X241809471Y-100739612D01*
X241639100Y-100867530D01*
X241634965Y-100870635D01*
X241480629Y-101032138D01*
X241477715Y-101036410D01*
X241477714Y-101036411D01*
X241392556Y-101161249D01*
X241354743Y-101216680D01*
X241260688Y-101419305D01*
X241200989Y-101634570D01*
X241177251Y-101856695D01*
X241177548Y-101861848D01*
X241177548Y-101861851D01*
X241188293Y-102048196D01*
X241190110Y-102079715D01*
X241191247Y-102084761D01*
X241191248Y-102084767D01*
X241208554Y-102161556D01*
X241239222Y-102297639D01*
X241277461Y-102391811D01*
X241308750Y-102468866D01*
X241323266Y-102504616D01*
X241439987Y-102695088D01*
X241586250Y-102863938D01*
X241758126Y-103006632D01*
X241831955Y-103049774D01*
X241880679Y-103101412D01*
X241893750Y-103171195D01*
X241867019Y-103236967D01*
X241826562Y-103270327D01*
X241818457Y-103274546D01*
X241809738Y-103280036D01*
X241639433Y-103407905D01*
X241631726Y-103414748D01*
X241484590Y-103568717D01*
X241478104Y-103576727D01*
X241358098Y-103752649D01*
X241353000Y-103761623D01*
X241263338Y-103954783D01*
X241259775Y-103964470D01*
X241204389Y-104164183D01*
X241205912Y-104172607D01*
X241218292Y-104176000D01*
X243858344Y-104176000D01*
X243871875Y-104172027D01*
X243873180Y-104162947D01*
X243831214Y-103995875D01*
X243827894Y-103986124D01*
X243742972Y-103790814D01*
X243738105Y-103781739D01*
X243622426Y-103602926D01*
X243616136Y-103594757D01*
X243472806Y-103437240D01*
X243465273Y-103430215D01*
X243298139Y-103298222D01*
X243289556Y-103292520D01*
X243252602Y-103272120D01*
X243202631Y-103221687D01*
X243187859Y-103152245D01*
X243212975Y-103085839D01*
X243240327Y-103059232D01*
X243263797Y-103042491D01*
X243419860Y-102931173D01*
X243462683Y-102888500D01*
X243502527Y-102848794D01*
X243578096Y-102773489D01*
X243637594Y-102690689D01*
X243705435Y-102596277D01*
X243708453Y-102592077D01*
X243712543Y-102583803D01*
X243805136Y-102396453D01*
X243805137Y-102396451D01*
X243807430Y-102391811D01*
X243872370Y-102178069D01*
X243901529Y-101956590D01*
X243901611Y-101953240D01*
X243903074Y-101893365D01*
X243903074Y-101893361D01*
X243903156Y-101890000D01*
X243884852Y-101667361D01*
X243830431Y-101450702D01*
X243741354Y-101245840D01*
X243657386Y-101116045D01*
X243622822Y-101062617D01*
X243622820Y-101062614D01*
X243620014Y-101058277D01*
X243469670Y-100893051D01*
X243465619Y-100889852D01*
X243465615Y-100889848D01*
X243298414Y-100757800D01*
X243298410Y-100757798D01*
X243294359Y-100754598D01*
X243253053Y-100731796D01*
X243203084Y-100681364D01*
X243188312Y-100611921D01*
X243213428Y-100545516D01*
X243240780Y-100518909D01*
X243284603Y-100487650D01*
X243419860Y-100391173D01*
X243578096Y-100233489D01*
X243618368Y-100177445D01*
X243705435Y-100056277D01*
X243708453Y-100052077D01*
X243737436Y-99993435D01*
X243805136Y-99856453D01*
X243805137Y-99856451D01*
X243807430Y-99851811D01*
X243872370Y-99638069D01*
X243901529Y-99416590D01*
X243901856Y-99403194D01*
X243903074Y-99353365D01*
X243903074Y-99353361D01*
X243903156Y-99350000D01*
X243884852Y-99127361D01*
X243830431Y-98910702D01*
X243741354Y-98705840D01*
X243650607Y-98565567D01*
X243622822Y-98522617D01*
X243622820Y-98522614D01*
X243620014Y-98518277D01*
X243469670Y-98353051D01*
X243465619Y-98349852D01*
X243465615Y-98349848D01*
X243298414Y-98217800D01*
X243298410Y-98217798D01*
X243294359Y-98214598D01*
X243253053Y-98191796D01*
X243203084Y-98141364D01*
X243188312Y-98071921D01*
X243213428Y-98005516D01*
X243240780Y-97978909D01*
X243284603Y-97947650D01*
X243419860Y-97851173D01*
X243578096Y-97693489D01*
X243637594Y-97610689D01*
X243705435Y-97516277D01*
X243708453Y-97512077D01*
X243740048Y-97448150D01*
X243805136Y-97316453D01*
X243805137Y-97316451D01*
X243807430Y-97311811D01*
X243872370Y-97098069D01*
X243901529Y-96876590D01*
X243903156Y-96810000D01*
X243884852Y-96587361D01*
X243830431Y-96370702D01*
X243741354Y-96165840D01*
X243620014Y-95978277D01*
X243469670Y-95813051D01*
X243465619Y-95809852D01*
X243465615Y-95809848D01*
X243298414Y-95677800D01*
X243298410Y-95677798D01*
X243294359Y-95674598D01*
X243253053Y-95651796D01*
X243203084Y-95601364D01*
X243188312Y-95531921D01*
X243213428Y-95465516D01*
X243240780Y-95438909D01*
X243284603Y-95407650D01*
X243419860Y-95311173D01*
X243578096Y-95153489D01*
X243708453Y-94972077D01*
X243753279Y-94881379D01*
X243805136Y-94776453D01*
X243805137Y-94776451D01*
X243807430Y-94771811D01*
X243872370Y-94558069D01*
X243901529Y-94336590D01*
X243903156Y-94270000D01*
X243884852Y-94047361D01*
X243830431Y-93830702D01*
X243741354Y-93625840D01*
X243620014Y-93438277D01*
X243469670Y-93273051D01*
X243465619Y-93269852D01*
X243465615Y-93269848D01*
X243298414Y-93137800D01*
X243298410Y-93137798D01*
X243294359Y-93134598D01*
X243253053Y-93111796D01*
X243203084Y-93061364D01*
X243188312Y-92991921D01*
X243213428Y-92925516D01*
X243240780Y-92898909D01*
X243284603Y-92867650D01*
X243419860Y-92771173D01*
X243578096Y-92613489D01*
X243637594Y-92530689D01*
X243705435Y-92436277D01*
X243708453Y-92432077D01*
X243807430Y-92231811D01*
X243872370Y-92018069D01*
X243901529Y-91796590D01*
X243903156Y-91730000D01*
X243884852Y-91507361D01*
X243830431Y-91290702D01*
X243741354Y-91085840D01*
X243620014Y-90898277D01*
X243469670Y-90733051D01*
X243465619Y-90729852D01*
X243465615Y-90729848D01*
X243298414Y-90597800D01*
X243298410Y-90597798D01*
X243294359Y-90594598D01*
X243253053Y-90571796D01*
X243203084Y-90521364D01*
X243188312Y-90451921D01*
X243213428Y-90385516D01*
X243240780Y-90358909D01*
X243284603Y-90327650D01*
X243419860Y-90231173D01*
X243578096Y-90073489D01*
X243637594Y-89990689D01*
X243705435Y-89896277D01*
X243708453Y-89892077D01*
X243730905Y-89846650D01*
X243805136Y-89696453D01*
X243805137Y-89696451D01*
X243807430Y-89691811D01*
X243872370Y-89478069D01*
X243901529Y-89256590D01*
X243903156Y-89190000D01*
X243884852Y-88967361D01*
X243830431Y-88750702D01*
X243741354Y-88545840D01*
X243620014Y-88358277D01*
X243469670Y-88193051D01*
X243465619Y-88189852D01*
X243465615Y-88189848D01*
X243298414Y-88057800D01*
X243298410Y-88057798D01*
X243294359Y-88054598D01*
X243253053Y-88031796D01*
X243203084Y-87981364D01*
X243188312Y-87911921D01*
X243213428Y-87845516D01*
X243240780Y-87818909D01*
X243284603Y-87787650D01*
X243419860Y-87691173D01*
X243578096Y-87533489D01*
X243637594Y-87450689D01*
X243705435Y-87356277D01*
X243708453Y-87352077D01*
X243807430Y-87151811D01*
X243857298Y-86987678D01*
X243870865Y-86943023D01*
X243870865Y-86943021D01*
X243872370Y-86938069D01*
X243901529Y-86716590D01*
X243903156Y-86650000D01*
X243884852Y-86427361D01*
X243830431Y-86210702D01*
X243741354Y-86005840D01*
X243620014Y-85818277D01*
X243616532Y-85814450D01*
X243472798Y-85656488D01*
X243441746Y-85592642D01*
X243450141Y-85522143D01*
X243495317Y-85467375D01*
X243521761Y-85453706D01*
X243628297Y-85413767D01*
X243636705Y-85410615D01*
X243753261Y-85323261D01*
X243840615Y-85206705D01*
X243891745Y-85070316D01*
X243898500Y-85008134D01*
X243898500Y-83211866D01*
X243891745Y-83149684D01*
X243840615Y-83013295D01*
X243753261Y-82896739D01*
X243636705Y-82809385D01*
X243500316Y-82758255D01*
X243438134Y-82751500D01*
X241641866Y-82751500D01*
X241579684Y-82758255D01*
X241443295Y-82809385D01*
X241326739Y-82896739D01*
X241239385Y-83013295D01*
X241188255Y-83149684D01*
X241181500Y-83211866D01*
X241181500Y-85008134D01*
X241188255Y-85070316D01*
X241239385Y-85206705D01*
X241326739Y-85323261D01*
X241443295Y-85410615D01*
X241451704Y-85413767D01*
X241451705Y-85413768D01*
X241560451Y-85454535D01*
X241617216Y-85497176D01*
X241641916Y-85563738D01*
X241626709Y-85633087D01*
X241607316Y-85659568D01*
X241480629Y-85792138D01*
X241354743Y-85976680D01*
X241260688Y-86179305D01*
X241200989Y-86394570D01*
X241177251Y-86616695D01*
X241177548Y-86621848D01*
X241177548Y-86621851D01*
X241183011Y-86716590D01*
X241190110Y-86839715D01*
X241191247Y-86844761D01*
X241191248Y-86844767D01*
X241198071Y-86875042D01*
X241239222Y-87057639D01*
X241323266Y-87264616D01*
X241439987Y-87455088D01*
X241586250Y-87623938D01*
X241758126Y-87766632D01*
X241828595Y-87807811D01*
X241831445Y-87809476D01*
X241880169Y-87861114D01*
X241893240Y-87930897D01*
X241866509Y-87996669D01*
X241826055Y-88030027D01*
X241813607Y-88036507D01*
X241809474Y-88039610D01*
X241809471Y-88039612D01*
X241767392Y-88071206D01*
X241634965Y-88170635D01*
X241480629Y-88332138D01*
X241354743Y-88516680D01*
X241260688Y-88719305D01*
X241200989Y-88934570D01*
X241177251Y-89156695D01*
X241177548Y-89161848D01*
X241177548Y-89161851D01*
X241183011Y-89256590D01*
X241190110Y-89379715D01*
X241191247Y-89384761D01*
X241191248Y-89384767D01*
X241210733Y-89471226D01*
X241239222Y-89597639D01*
X241277461Y-89691811D01*
X241308992Y-89769462D01*
X241323266Y-89804616D01*
X241439987Y-89995088D01*
X241586250Y-90163938D01*
X241662846Y-90227529D01*
X241742663Y-90293794D01*
X241758126Y-90306632D01*
X241828595Y-90347811D01*
X241831445Y-90349476D01*
X241880169Y-90401114D01*
X241893240Y-90470897D01*
X241866509Y-90536669D01*
X241826055Y-90570027D01*
X241813607Y-90576507D01*
X241809474Y-90579610D01*
X241809471Y-90579612D01*
X241667501Y-90686206D01*
X241634965Y-90710635D01*
X241480629Y-90872138D01*
X241354743Y-91056680D01*
X241260688Y-91259305D01*
X241200989Y-91474570D01*
X241177251Y-91696695D01*
X241177548Y-91701848D01*
X241177548Y-91701851D01*
X241183011Y-91796590D01*
X241190110Y-91919715D01*
X241191247Y-91924761D01*
X241191248Y-91924767D01*
X241211119Y-92012939D01*
X241239222Y-92137639D01*
X241323266Y-92344616D01*
X241439987Y-92535088D01*
X241586250Y-92703938D01*
X241758126Y-92846632D01*
X241828595Y-92887811D01*
X241831445Y-92889476D01*
X241880169Y-92941114D01*
X241893240Y-93010897D01*
X241866509Y-93076669D01*
X241826055Y-93110027D01*
X241813607Y-93116507D01*
X241809474Y-93119610D01*
X241809471Y-93119612D01*
X241785247Y-93137800D01*
X241634965Y-93250635D01*
X241480629Y-93412138D01*
X241477715Y-93416410D01*
X241477714Y-93416411D01*
X241465404Y-93434457D01*
X241354743Y-93596680D01*
X241353945Y-93598400D01*
X241303589Y-93647088D01*
X241245074Y-93661500D01*
X236778136Y-93661500D01*
X236761693Y-93660422D01*
X236730000Y-93656250D01*
X236721811Y-93657328D01*
X236690126Y-93661499D01*
X236690117Y-93661500D01*
X236690115Y-93661500D01*
X236690109Y-93661501D01*
X236690107Y-93661501D01*
X236590543Y-93674609D01*
X236579336Y-93676084D01*
X236579334Y-93676085D01*
X236571149Y-93677162D01*
X236423124Y-93738476D01*
X236327928Y-93811523D01*
X236327925Y-93811526D01*
X236296013Y-93836013D01*
X236290983Y-93842568D01*
X236276548Y-93861379D01*
X236265681Y-93873770D01*
X232030010Y-98109441D01*
X232017619Y-98120308D01*
X231992257Y-98139769D01*
X231967770Y-98171681D01*
X231967767Y-98171684D01*
X231967761Y-98171692D01*
X231901390Y-98258188D01*
X231894720Y-98266880D01*
X231891560Y-98274510D01*
X231859027Y-98353051D01*
X231846782Y-98382614D01*
X231833406Y-98414906D01*
X231817744Y-98533871D01*
X231817744Y-98533876D01*
X231812494Y-98573756D01*
X231813572Y-98581944D01*
X231816666Y-98605446D01*
X231817744Y-98621892D01*
X231817744Y-99193708D01*
X231797742Y-99261829D01*
X231785380Y-99278018D01*
X231711434Y-99360144D01*
X231687204Y-99387054D01*
X231668236Y-99419908D01*
X231655619Y-99441761D01*
X231604237Y-99490754D01*
X231534523Y-99504190D01*
X231468612Y-99477804D01*
X231427430Y-99419972D01*
X231420500Y-99378761D01*
X231420500Y-98797115D01*
X231416025Y-98781876D01*
X231414635Y-98780671D01*
X231406952Y-98779000D01*
X230863158Y-98779000D01*
X230852133Y-98782237D01*
X230864432Y-98809168D01*
X230860140Y-98811128D01*
X230874546Y-98839875D01*
X230866989Y-98910469D01*
X230839653Y-98951400D01*
X229887459Y-99903594D01*
X229825147Y-99937620D01*
X229754332Y-99932555D01*
X229737978Y-99925086D01*
X229719223Y-99914845D01*
X229716500Y-99922147D01*
X229716500Y-100464884D01*
X229208500Y-100464884D01*
X229208500Y-99925658D01*
X229205263Y-99914633D01*
X229178332Y-99926932D01*
X229176372Y-99922640D01*
X229147625Y-99937046D01*
X229077031Y-99929489D01*
X229036100Y-99902153D01*
X228385079Y-99251132D01*
X229096251Y-99251132D01*
X229096382Y-99252965D01*
X229100633Y-99259580D01*
X229195688Y-99354635D01*
X229205777Y-99360144D01*
X229208500Y-99352843D01*
X229208500Y-99349332D01*
X229716500Y-99349332D01*
X229719737Y-99360357D01*
X229726828Y-99357119D01*
X229821135Y-99262812D01*
X229828749Y-99248868D01*
X229828618Y-99247035D01*
X229824367Y-99240420D01*
X229729312Y-99145365D01*
X229719223Y-99139856D01*
X229716500Y-99147157D01*
X229716500Y-99349332D01*
X229208500Y-99349332D01*
X229208500Y-99150668D01*
X229205263Y-99139643D01*
X229198172Y-99142881D01*
X229103865Y-99237188D01*
X229096251Y-99251132D01*
X228385079Y-99251132D01*
X228083906Y-98949959D01*
X228049880Y-98887647D01*
X228054945Y-98816832D01*
X228062414Y-98800478D01*
X228072374Y-98782237D01*
X228627143Y-98782237D01*
X228630381Y-98789328D01*
X228724688Y-98883635D01*
X228738632Y-98891249D01*
X228740465Y-98891118D01*
X228747080Y-98886867D01*
X228842135Y-98791812D01*
X228847363Y-98782237D01*
X230077143Y-98782237D01*
X230080381Y-98789328D01*
X230174688Y-98883635D01*
X230188632Y-98891249D01*
X230190465Y-98891118D01*
X230197080Y-98886867D01*
X230292135Y-98791812D01*
X230297644Y-98781723D01*
X230290343Y-98779000D01*
X230088168Y-98779000D01*
X230077143Y-98782237D01*
X228847363Y-98782237D01*
X228847644Y-98781723D01*
X228840343Y-98779000D01*
X228638168Y-98779000D01*
X228627143Y-98782237D01*
X228072374Y-98782237D01*
X228072655Y-98781723D01*
X228065353Y-98779000D01*
X227522616Y-98779000D01*
X227507377Y-98783475D01*
X227506172Y-98784865D01*
X227504501Y-98792548D01*
X227504501Y-100019669D01*
X218724470Y-100019669D01*
X218737436Y-99993435D01*
X218805136Y-99856453D01*
X218805137Y-99856451D01*
X218807430Y-99851811D01*
X218872370Y-99638069D01*
X218901529Y-99416590D01*
X218901856Y-99403194D01*
X218903074Y-99353365D01*
X218903074Y-99353361D01*
X218903156Y-99350000D01*
X218884852Y-99127361D01*
X218830431Y-98910702D01*
X218741354Y-98705840D01*
X218650607Y-98565567D01*
X218622822Y-98522617D01*
X218622820Y-98522614D01*
X218620014Y-98518277D01*
X218469670Y-98353051D01*
X218465619Y-98349852D01*
X218465615Y-98349848D01*
X218342839Y-98252885D01*
X227504500Y-98252885D01*
X227508975Y-98268124D01*
X227510365Y-98269329D01*
X227518048Y-98271000D01*
X228061842Y-98271000D01*
X228071116Y-98268277D01*
X228627356Y-98268277D01*
X228634657Y-98271000D01*
X228836832Y-98271000D01*
X228846106Y-98268277D01*
X230077356Y-98268277D01*
X230084657Y-98271000D01*
X230286832Y-98271000D01*
X230297857Y-98267763D01*
X230294619Y-98260672D01*
X230200312Y-98166365D01*
X230186368Y-98158751D01*
X230184535Y-98158882D01*
X230177920Y-98163133D01*
X230082865Y-98258188D01*
X230077356Y-98268277D01*
X228846106Y-98268277D01*
X228847857Y-98267763D01*
X228844619Y-98260672D01*
X228750312Y-98166365D01*
X228736368Y-98158751D01*
X228734535Y-98158882D01*
X228727920Y-98163133D01*
X228632865Y-98258188D01*
X228627356Y-98268277D01*
X228071116Y-98268277D01*
X228072867Y-98267763D01*
X228060568Y-98240832D01*
X228064860Y-98238872D01*
X228050454Y-98210125D01*
X228058011Y-98139531D01*
X228085347Y-98098600D01*
X228382815Y-97801132D01*
X229096251Y-97801132D01*
X229096382Y-97802965D01*
X229100633Y-97809580D01*
X229195688Y-97904635D01*
X229205777Y-97910144D01*
X229208500Y-97902843D01*
X229208500Y-97899332D01*
X229716500Y-97899332D01*
X229719737Y-97910357D01*
X229726828Y-97907119D01*
X229821135Y-97812812D01*
X229828749Y-97798868D01*
X229828618Y-97797035D01*
X229824367Y-97790420D01*
X229729312Y-97695365D01*
X229719223Y-97689856D01*
X229716500Y-97697157D01*
X229716500Y-97899332D01*
X229208500Y-97899332D01*
X229208500Y-97700668D01*
X229205263Y-97689643D01*
X229198172Y-97692881D01*
X229103865Y-97787188D01*
X229096251Y-97801132D01*
X228382815Y-97801132D01*
X229037541Y-97146406D01*
X229099853Y-97112380D01*
X229170668Y-97117445D01*
X229187022Y-97124914D01*
X229205777Y-97135155D01*
X229208500Y-97127853D01*
X229208500Y-97124342D01*
X229716500Y-97124342D01*
X229719737Y-97135367D01*
X229746668Y-97123068D01*
X229748628Y-97127360D01*
X229777375Y-97112954D01*
X229847969Y-97120511D01*
X229888900Y-97147847D01*
X230841094Y-98100041D01*
X230875120Y-98162353D01*
X230870055Y-98233168D01*
X230862586Y-98249522D01*
X230852345Y-98268277D01*
X230859647Y-98271000D01*
X231402384Y-98271000D01*
X231417623Y-98266525D01*
X231418828Y-98265135D01*
X231420499Y-98257452D01*
X231420499Y-97030331D01*
X231420129Y-97023510D01*
X231414605Y-96972648D01*
X231410979Y-96957396D01*
X231365824Y-96836946D01*
X231357286Y-96821351D01*
X231280785Y-96719276D01*
X231268224Y-96706715D01*
X231166149Y-96630214D01*
X231150554Y-96621676D01*
X231030106Y-96576522D01*
X231014851Y-96572895D01*
X230963986Y-96567369D01*
X230957172Y-96567000D01*
X229734615Y-96567000D01*
X229719376Y-96571475D01*
X229718171Y-96572865D01*
X229716500Y-96580548D01*
X229716500Y-97124342D01*
X229208500Y-97124342D01*
X229208500Y-96585116D01*
X229204025Y-96569877D01*
X229202635Y-96568672D01*
X229194952Y-96567001D01*
X227967831Y-96567001D01*
X227961010Y-96567371D01*
X227910148Y-96572895D01*
X227894896Y-96576521D01*
X227774446Y-96621676D01*
X227758851Y-96630214D01*
X227656776Y-96706715D01*
X227644215Y-96719276D01*
X227567714Y-96821351D01*
X227559176Y-96836946D01*
X227514022Y-96957394D01*
X227510395Y-96972649D01*
X227504869Y-97023514D01*
X227504500Y-97030328D01*
X227504500Y-98252885D01*
X218342839Y-98252885D01*
X218298414Y-98217800D01*
X218298410Y-98217798D01*
X218294359Y-98214598D01*
X218253053Y-98191796D01*
X218203084Y-98141364D01*
X218188312Y-98071921D01*
X218213428Y-98005516D01*
X218240780Y-97978909D01*
X218284603Y-97947650D01*
X218419860Y-97851173D01*
X218578096Y-97693489D01*
X218637594Y-97610689D01*
X218705435Y-97516277D01*
X218708453Y-97512077D01*
X218740048Y-97448150D01*
X218805136Y-97316453D01*
X218805137Y-97316451D01*
X218807430Y-97311811D01*
X218872370Y-97098069D01*
X218901529Y-96876590D01*
X218903156Y-96810000D01*
X218884852Y-96587361D01*
X218830431Y-96370702D01*
X218741354Y-96165840D01*
X218620014Y-95978277D01*
X218469670Y-95813051D01*
X218465619Y-95809852D01*
X218465615Y-95809848D01*
X218298414Y-95677800D01*
X218298410Y-95677798D01*
X218294359Y-95674598D01*
X218252569Y-95651529D01*
X218202598Y-95601097D01*
X218187826Y-95531654D01*
X218212942Y-95465248D01*
X218240294Y-95438641D01*
X218415328Y-95313792D01*
X218423200Y-95307139D01*
X218574052Y-95156812D01*
X218580730Y-95148965D01*
X218705003Y-94976020D01*
X218710313Y-94967183D01*
X218804670Y-94776267D01*
X218808469Y-94766672D01*
X218870377Y-94562910D01*
X218872555Y-94552837D01*
X218873986Y-94541962D01*
X218871775Y-94527778D01*
X218858617Y-94524000D01*
X216223225Y-94524000D01*
X216209694Y-94527973D01*
X216208257Y-94537966D01*
X216238565Y-94672446D01*
X216241645Y-94682275D01*
X216321770Y-94879603D01*
X216326413Y-94888794D01*
X216437694Y-95070388D01*
X216443777Y-95078699D01*
X216583213Y-95239667D01*
X216590580Y-95246883D01*
X216754434Y-95382916D01*
X216762881Y-95388831D01*
X216831969Y-95429203D01*
X216880693Y-95480842D01*
X216893764Y-95550625D01*
X216867033Y-95616396D01*
X216826584Y-95649752D01*
X216813607Y-95656507D01*
X216809474Y-95659610D01*
X216809471Y-95659612D01*
X216639100Y-95787530D01*
X216634965Y-95790635D01*
X216480629Y-95952138D01*
X216354743Y-96136680D01*
X216260688Y-96339305D01*
X216200989Y-96554570D01*
X216177251Y-96776695D01*
X216177548Y-96781848D01*
X216177548Y-96781851D01*
X216183011Y-96876590D01*
X216190110Y-96999715D01*
X216191247Y-97004761D01*
X216191248Y-97004767D01*
X216211119Y-97092939D01*
X216239222Y-97217639D01*
X216277461Y-97311811D01*
X216315791Y-97406206D01*
X216323266Y-97424616D01*
X216325965Y-97429020D01*
X216435031Y-97607000D01*
X216439987Y-97615088D01*
X216586250Y-97783938D01*
X216758126Y-97926632D01*
X216808620Y-97956138D01*
X216831445Y-97969476D01*
X216880169Y-98021114D01*
X216893240Y-98090897D01*
X216866509Y-98156669D01*
X216826055Y-98190027D01*
X216813607Y-98196507D01*
X216809474Y-98199610D01*
X216809471Y-98199612D01*
X216639100Y-98327530D01*
X216634965Y-98330635D01*
X216631393Y-98334373D01*
X216513135Y-98458123D01*
X216480629Y-98492138D01*
X216477715Y-98496410D01*
X216477714Y-98496411D01*
X216403336Y-98605446D01*
X216354743Y-98676680D01*
X216339003Y-98710590D01*
X216292335Y-98811128D01*
X216260688Y-98879305D01*
X216200989Y-99094570D01*
X216177251Y-99316695D01*
X216177548Y-99321848D01*
X216177548Y-99321851D01*
X216184462Y-99441761D01*
X216190110Y-99539715D01*
X216191247Y-99544761D01*
X216191248Y-99544767D01*
X216202284Y-99593734D01*
X216239222Y-99757639D01*
X216276832Y-99850261D01*
X216309003Y-99929489D01*
X216323266Y-99964616D01*
X216325965Y-99969020D01*
X216399593Y-100089170D01*
X216439987Y-100155088D01*
X216586250Y-100323938D01*
X216758126Y-100466632D01*
X216785502Y-100482629D01*
X216831445Y-100509476D01*
X216880169Y-100561114D01*
X216893240Y-100630897D01*
X216866509Y-100696669D01*
X216826055Y-100730027D01*
X216813607Y-100736507D01*
X216809474Y-100739610D01*
X216809471Y-100739612D01*
X216639100Y-100867530D01*
X216634965Y-100870635D01*
X216480629Y-101032138D01*
X216477715Y-101036410D01*
X216477714Y-101036411D01*
X216392556Y-101161249D01*
X216354743Y-101216680D01*
X216260688Y-101419305D01*
X216200989Y-101634570D01*
X216177251Y-101856695D01*
X215508500Y-101856695D01*
X215508500Y-91696695D01*
X216177251Y-91696695D01*
X216177548Y-91701848D01*
X216177548Y-91701851D01*
X216183011Y-91796590D01*
X216190110Y-91919715D01*
X216191247Y-91924761D01*
X216191248Y-91924767D01*
X216211119Y-92012939D01*
X216239222Y-92137639D01*
X216323266Y-92344616D01*
X216439987Y-92535088D01*
X216586250Y-92703938D01*
X216758126Y-92846632D01*
X216831445Y-92889476D01*
X216831955Y-92889774D01*
X216880679Y-92941412D01*
X216893750Y-93011195D01*
X216867019Y-93076967D01*
X216826562Y-93110327D01*
X216818457Y-93114546D01*
X216809738Y-93120036D01*
X216639433Y-93247905D01*
X216631726Y-93254748D01*
X216484590Y-93408717D01*
X216478104Y-93416727D01*
X216358098Y-93592649D01*
X216353000Y-93601623D01*
X216263338Y-93794783D01*
X216259775Y-93804470D01*
X216204389Y-94004183D01*
X216205912Y-94012607D01*
X216218292Y-94016000D01*
X218858344Y-94016000D01*
X218871875Y-94012027D01*
X218873180Y-94002947D01*
X218831214Y-93835875D01*
X218827894Y-93826124D01*
X218742972Y-93630814D01*
X218738105Y-93621739D01*
X218622426Y-93442926D01*
X218616136Y-93434757D01*
X218472806Y-93277240D01*
X218465273Y-93270215D01*
X218298139Y-93138222D01*
X218289556Y-93132520D01*
X218252602Y-93112120D01*
X218202631Y-93061687D01*
X218187859Y-92992245D01*
X218212975Y-92925839D01*
X218240327Y-92899232D01*
X218263797Y-92882491D01*
X218419860Y-92771173D01*
X218578096Y-92613489D01*
X218637594Y-92530689D01*
X218705435Y-92436277D01*
X218708453Y-92432077D01*
X218807430Y-92231811D01*
X218872370Y-92018069D01*
X218901529Y-91796590D01*
X218903156Y-91730000D01*
X218884852Y-91507361D01*
X218830431Y-91290702D01*
X218741354Y-91085840D01*
X218620014Y-90898277D01*
X218469670Y-90733051D01*
X218465619Y-90729852D01*
X218465615Y-90729848D01*
X218298414Y-90597800D01*
X218298410Y-90597798D01*
X218294359Y-90594598D01*
X218253053Y-90571796D01*
X218203084Y-90521364D01*
X218196412Y-90490000D01*
X231006496Y-90490000D01*
X231007186Y-90496565D01*
X231017490Y-90594598D01*
X231026458Y-90679928D01*
X231085473Y-90861556D01*
X231088776Y-90867278D01*
X231088777Y-90867279D01*
X231104468Y-90894457D01*
X231180960Y-91026944D01*
X231185378Y-91031851D01*
X231185379Y-91031852D01*
X231207734Y-91056680D01*
X231308747Y-91168866D01*
X231463248Y-91281118D01*
X231469276Y-91283802D01*
X231469278Y-91283803D01*
X231631681Y-91356109D01*
X231637712Y-91358794D01*
X231731112Y-91378647D01*
X231818056Y-91397128D01*
X231818061Y-91397128D01*
X231824513Y-91398500D01*
X232015487Y-91398500D01*
X232021939Y-91397128D01*
X232021944Y-91397128D01*
X232108888Y-91378647D01*
X232202288Y-91358794D01*
X232208319Y-91356109D01*
X232370722Y-91283803D01*
X232370724Y-91283802D01*
X232376752Y-91281118D01*
X232531253Y-91168866D01*
X232632266Y-91056680D01*
X232654621Y-91031852D01*
X232654622Y-91031851D01*
X232659040Y-91026944D01*
X232735532Y-90894457D01*
X232751223Y-90867279D01*
X232751224Y-90867278D01*
X232754527Y-90861556D01*
X232813542Y-90679928D01*
X232822511Y-90594598D01*
X232832814Y-90496565D01*
X232833504Y-90490000D01*
X232813542Y-90300072D01*
X232754527Y-90118444D01*
X232659040Y-89953056D01*
X232620862Y-89910655D01*
X232590146Y-89846650D01*
X232588500Y-89826347D01*
X232588500Y-89670290D01*
X232608502Y-89602169D01*
X232620864Y-89585980D01*
X232714621Y-89481852D01*
X232714622Y-89481851D01*
X232719040Y-89476944D01*
X232814527Y-89311556D01*
X232873542Y-89129928D01*
X232893504Y-88940000D01*
X232873542Y-88750072D01*
X232814527Y-88568444D01*
X232782171Y-88512401D01*
X232722341Y-88408774D01*
X232719040Y-88403056D01*
X232651821Y-88328401D01*
X232595675Y-88266045D01*
X232595674Y-88266044D01*
X232591253Y-88261134D01*
X232436752Y-88148882D01*
X232430724Y-88146198D01*
X232430722Y-88146197D01*
X232268319Y-88073891D01*
X232268318Y-88073891D01*
X232262288Y-88071206D01*
X232168888Y-88051353D01*
X232081944Y-88032872D01*
X232081939Y-88032872D01*
X232075487Y-88031500D01*
X231884513Y-88031500D01*
X231878061Y-88032872D01*
X231878056Y-88032872D01*
X231791112Y-88051353D01*
X231697712Y-88071206D01*
X231691682Y-88073891D01*
X231691681Y-88073891D01*
X231529278Y-88146197D01*
X231529276Y-88146198D01*
X231523248Y-88148882D01*
X231368747Y-88261134D01*
X231364326Y-88266044D01*
X231364325Y-88266045D01*
X231308180Y-88328401D01*
X231240960Y-88403056D01*
X231237659Y-88408774D01*
X231177830Y-88512401D01*
X231145473Y-88568444D01*
X231086458Y-88750072D01*
X231066496Y-88940000D01*
X231086458Y-89129928D01*
X231145473Y-89311556D01*
X231240960Y-89476944D01*
X231245378Y-89481851D01*
X231245379Y-89481852D01*
X231339136Y-89585980D01*
X231369854Y-89649987D01*
X231371500Y-89670290D01*
X231371500Y-89701341D01*
X231351498Y-89769462D01*
X231319562Y-89803276D01*
X231314093Y-89807249D01*
X231314088Y-89807254D01*
X231308747Y-89811134D01*
X231304326Y-89816044D01*
X231304325Y-89816045D01*
X231240043Y-89887438D01*
X231180960Y-89953056D01*
X231085473Y-90118444D01*
X231026458Y-90300072D01*
X231006496Y-90490000D01*
X218196412Y-90490000D01*
X218188312Y-90451921D01*
X218213428Y-90385516D01*
X218240780Y-90358909D01*
X218284603Y-90327650D01*
X218419860Y-90231173D01*
X218578096Y-90073489D01*
X218637594Y-89990689D01*
X218705435Y-89896277D01*
X218708453Y-89892077D01*
X218730905Y-89846650D01*
X218805136Y-89696453D01*
X218805137Y-89696451D01*
X218807430Y-89691811D01*
X218872370Y-89478069D01*
X218901529Y-89256590D01*
X218903156Y-89190000D01*
X218884852Y-88967361D01*
X218830431Y-88750702D01*
X218741354Y-88545840D01*
X218620014Y-88358277D01*
X218469670Y-88193051D01*
X218465619Y-88189852D01*
X218465615Y-88189848D01*
X218298414Y-88057800D01*
X218298410Y-88057798D01*
X218294359Y-88054598D01*
X218253053Y-88031796D01*
X218203084Y-87981364D01*
X218188312Y-87911921D01*
X218213428Y-87845516D01*
X218240780Y-87818909D01*
X218284603Y-87787650D01*
X218419860Y-87691173D01*
X218578096Y-87533489D01*
X218637594Y-87450689D01*
X218705435Y-87356277D01*
X218708453Y-87352077D01*
X218807430Y-87151811D01*
X218857298Y-86987678D01*
X218870865Y-86943023D01*
X218870865Y-86943021D01*
X218872370Y-86938069D01*
X218901529Y-86716590D01*
X218903156Y-86650000D01*
X218884852Y-86427361D01*
X218846349Y-86274075D01*
X225324725Y-86274075D01*
X225384723Y-86437145D01*
X225390297Y-86448573D01*
X225488799Y-86607440D01*
X225496549Y-86617504D01*
X225624986Y-86753322D01*
X225634606Y-86761625D01*
X225787731Y-86868845D01*
X225798820Y-86875042D01*
X225970382Y-86949284D01*
X225982485Y-86953123D01*
X226153264Y-86988801D01*
X226167325Y-86987678D01*
X226171000Y-86977571D01*
X226171000Y-86969390D01*
X226679000Y-86969390D01*
X226683216Y-86983750D01*
X226695695Y-86985809D01*
X226767331Y-86978533D01*
X226779770Y-86975979D01*
X226958143Y-86920080D01*
X226969831Y-86915071D01*
X227133320Y-86824447D01*
X227143753Y-86817196D01*
X227285688Y-86695544D01*
X227294441Y-86686353D01*
X227409021Y-86538636D01*
X227415745Y-86527876D01*
X227498281Y-86360140D01*
X227502709Y-86348233D01*
X227520083Y-86281531D01*
X227519853Y-86274075D01*
X230324725Y-86274075D01*
X230384723Y-86437145D01*
X230390297Y-86448573D01*
X230488799Y-86607440D01*
X230496549Y-86617504D01*
X230624986Y-86753322D01*
X230634606Y-86761625D01*
X230787731Y-86868845D01*
X230798820Y-86875042D01*
X230970382Y-86949284D01*
X230982485Y-86953123D01*
X231153264Y-86988801D01*
X231167325Y-86987678D01*
X231171000Y-86977571D01*
X231171000Y-86969390D01*
X231679000Y-86969390D01*
X231683216Y-86983750D01*
X231695695Y-86985809D01*
X231767331Y-86978533D01*
X231779770Y-86975979D01*
X231958143Y-86920080D01*
X231969831Y-86915071D01*
X232133320Y-86824447D01*
X232143753Y-86817196D01*
X232285688Y-86695544D01*
X232294441Y-86686353D01*
X232409021Y-86538636D01*
X232415745Y-86527876D01*
X232498281Y-86360140D01*
X232502709Y-86348233D01*
X232520083Y-86281531D01*
X232519649Y-86267436D01*
X232511468Y-86264000D01*
X231697115Y-86264000D01*
X231681876Y-86268475D01*
X231680671Y-86269865D01*
X231679000Y-86277548D01*
X231679000Y-86969390D01*
X231171000Y-86969390D01*
X231171000Y-86282115D01*
X231166525Y-86266876D01*
X231165135Y-86265671D01*
X231157452Y-86264000D01*
X230339133Y-86264000D01*
X230325602Y-86267973D01*
X230324725Y-86274075D01*
X227519853Y-86274075D01*
X227519649Y-86267436D01*
X227511468Y-86264000D01*
X226697115Y-86264000D01*
X226681876Y-86268475D01*
X226680671Y-86269865D01*
X226679000Y-86277548D01*
X226679000Y-86969390D01*
X226171000Y-86969390D01*
X226171000Y-86282115D01*
X226166525Y-86266876D01*
X226165135Y-86265671D01*
X226157452Y-86264000D01*
X225339133Y-86264000D01*
X225325602Y-86267973D01*
X225324725Y-86274075D01*
X218846349Y-86274075D01*
X218830431Y-86210702D01*
X218741354Y-86005840D01*
X218620014Y-85818277D01*
X218616532Y-85814450D01*
X218547395Y-85738469D01*
X225329917Y-85738469D01*
X225330351Y-85752564D01*
X225338532Y-85756000D01*
X226152885Y-85756000D01*
X226168124Y-85751525D01*
X226169329Y-85750135D01*
X226171000Y-85742452D01*
X226171000Y-85737885D01*
X226679000Y-85737885D01*
X226683475Y-85753124D01*
X226684865Y-85754329D01*
X226692548Y-85756000D01*
X227510867Y-85756000D01*
X227524398Y-85752027D01*
X227525275Y-85745925D01*
X227522532Y-85738469D01*
X230329917Y-85738469D01*
X230330351Y-85752564D01*
X230338532Y-85756000D01*
X231152885Y-85756000D01*
X231168124Y-85751525D01*
X231169329Y-85750135D01*
X231171000Y-85742452D01*
X231171000Y-85737885D01*
X231679000Y-85737885D01*
X231683475Y-85753124D01*
X231684865Y-85754329D01*
X231692548Y-85756000D01*
X232510867Y-85756000D01*
X232524398Y-85752027D01*
X232525275Y-85745925D01*
X232465277Y-85582855D01*
X232459703Y-85571427D01*
X232361201Y-85412560D01*
X232353451Y-85402496D01*
X232225014Y-85266678D01*
X232215394Y-85258375D01*
X232062269Y-85151155D01*
X232051180Y-85144958D01*
X231879618Y-85070716D01*
X231867515Y-85066877D01*
X231696736Y-85031199D01*
X231682675Y-85032322D01*
X231679000Y-85042429D01*
X231679000Y-85737885D01*
X231171000Y-85737885D01*
X231171000Y-85050610D01*
X231166784Y-85036250D01*
X231154305Y-85034191D01*
X231082669Y-85041467D01*
X231070230Y-85044021D01*
X230891857Y-85099920D01*
X230880169Y-85104929D01*
X230716680Y-85195553D01*
X230706247Y-85202804D01*
X230564312Y-85324456D01*
X230555559Y-85333647D01*
X230440979Y-85481364D01*
X230434255Y-85492124D01*
X230351719Y-85659860D01*
X230347291Y-85671767D01*
X230329917Y-85738469D01*
X227522532Y-85738469D01*
X227465277Y-85582855D01*
X227459703Y-85571427D01*
X227361201Y-85412560D01*
X227353451Y-85402496D01*
X227225014Y-85266678D01*
X227215394Y-85258375D01*
X227062269Y-85151155D01*
X227051180Y-85144958D01*
X226879618Y-85070716D01*
X226867515Y-85066877D01*
X226696736Y-85031199D01*
X226682675Y-85032322D01*
X226679000Y-85042429D01*
X226679000Y-85737885D01*
X226171000Y-85737885D01*
X226171000Y-85050610D01*
X226166784Y-85036250D01*
X226154305Y-85034191D01*
X226082669Y-85041467D01*
X226070230Y-85044021D01*
X225891857Y-85099920D01*
X225880169Y-85104929D01*
X225716680Y-85195553D01*
X225706247Y-85202804D01*
X225564312Y-85324456D01*
X225555559Y-85333647D01*
X225440979Y-85481364D01*
X225434255Y-85492124D01*
X225351719Y-85659860D01*
X225347291Y-85671767D01*
X225329917Y-85738469D01*
X218547395Y-85738469D01*
X218472798Y-85656488D01*
X218441746Y-85592642D01*
X218450141Y-85522143D01*
X218495317Y-85467375D01*
X218521761Y-85453706D01*
X218628297Y-85413767D01*
X218636705Y-85410615D01*
X218753261Y-85323261D01*
X218840615Y-85206705D01*
X218891745Y-85070316D01*
X218898500Y-85008134D01*
X218898500Y-83685192D01*
X224472000Y-83685192D01*
X224472323Y-83691567D01*
X224486005Y-83826267D01*
X224488559Y-83838707D01*
X224542635Y-84011264D01*
X224547644Y-84022952D01*
X224635314Y-84181111D01*
X224642565Y-84191544D01*
X224760244Y-84328843D01*
X224769453Y-84337612D01*
X224912333Y-84448442D01*
X224923113Y-84455178D01*
X225085374Y-84535019D01*
X225097273Y-84539445D01*
X225153469Y-84554082D01*
X225167564Y-84553648D01*
X225171000Y-84545467D01*
X225171000Y-84543901D01*
X225679000Y-84543901D01*
X225682973Y-84557432D01*
X225689075Y-84558309D01*
X225838936Y-84503170D01*
X225850342Y-84497608D01*
X226004044Y-84402309D01*
X226014105Y-84394560D01*
X226145496Y-84270310D01*
X226153799Y-84260690D01*
X226257523Y-84112557D01*
X226263720Y-84101469D01*
X226335540Y-83935505D01*
X226339382Y-83923393D01*
X226376677Y-83744866D01*
X226377915Y-83735334D01*
X226378000Y-83732111D01*
X226378000Y-83685192D01*
X231472000Y-83685192D01*
X231472323Y-83691567D01*
X231486005Y-83826267D01*
X231488559Y-83838707D01*
X231542635Y-84011264D01*
X231547644Y-84022952D01*
X231635314Y-84181111D01*
X231642565Y-84191544D01*
X231760244Y-84328843D01*
X231769453Y-84337612D01*
X231912333Y-84448442D01*
X231923113Y-84455178D01*
X232085374Y-84535019D01*
X232097273Y-84539445D01*
X232153469Y-84554082D01*
X232167564Y-84553648D01*
X232171000Y-84545467D01*
X232171000Y-84543901D01*
X232679000Y-84543901D01*
X232682973Y-84557432D01*
X232689075Y-84558309D01*
X232838936Y-84503170D01*
X232850342Y-84497608D01*
X233004044Y-84402309D01*
X233014105Y-84394560D01*
X233145496Y-84270310D01*
X233153799Y-84260690D01*
X233257523Y-84112557D01*
X233263720Y-84101469D01*
X233335540Y-83935505D01*
X233339382Y-83923393D01*
X233376677Y-83744866D01*
X233377915Y-83735334D01*
X233378000Y-83732111D01*
X233378000Y-83582115D01*
X233373525Y-83566876D01*
X233372135Y-83565671D01*
X233364452Y-83564000D01*
X232697115Y-83564000D01*
X232681876Y-83568475D01*
X232680671Y-83569865D01*
X232679000Y-83577548D01*
X232679000Y-84543901D01*
X232171000Y-84543901D01*
X232171000Y-83582115D01*
X232166525Y-83566876D01*
X232165135Y-83565671D01*
X232157452Y-83564000D01*
X231490115Y-83564000D01*
X231474876Y-83568475D01*
X231473671Y-83569865D01*
X231472000Y-83577548D01*
X231472000Y-83685192D01*
X226378000Y-83685192D01*
X226378000Y-83582115D01*
X226373525Y-83566876D01*
X226372135Y-83565671D01*
X226364452Y-83564000D01*
X225697115Y-83564000D01*
X225681876Y-83568475D01*
X225680671Y-83569865D01*
X225679000Y-83577548D01*
X225679000Y-84543901D01*
X225171000Y-84543901D01*
X225171000Y-83582115D01*
X225166525Y-83566876D01*
X225165135Y-83565671D01*
X225157452Y-83564000D01*
X224490115Y-83564000D01*
X224474876Y-83568475D01*
X224473671Y-83569865D01*
X224472000Y-83577548D01*
X224472000Y-83685192D01*
X218898500Y-83685192D01*
X218898500Y-83211866D01*
X218891745Y-83149684D01*
X218849833Y-83037885D01*
X224472000Y-83037885D01*
X224476475Y-83053124D01*
X224477865Y-83054329D01*
X224485548Y-83056000D01*
X225152885Y-83056000D01*
X225168124Y-83051525D01*
X225169329Y-83050135D01*
X225171000Y-83042452D01*
X225171000Y-83037885D01*
X225679000Y-83037885D01*
X225683475Y-83053124D01*
X225684865Y-83054329D01*
X225692548Y-83056000D01*
X226359885Y-83056000D01*
X226375124Y-83051525D01*
X226376329Y-83050135D01*
X226378000Y-83042452D01*
X226378000Y-83037885D01*
X231472000Y-83037885D01*
X231476475Y-83053124D01*
X231477865Y-83054329D01*
X231485548Y-83056000D01*
X232152885Y-83056000D01*
X232168124Y-83051525D01*
X232169329Y-83050135D01*
X232171000Y-83042452D01*
X232171000Y-83037885D01*
X232679000Y-83037885D01*
X232683475Y-83053124D01*
X232684865Y-83054329D01*
X232692548Y-83056000D01*
X233359885Y-83056000D01*
X233375124Y-83051525D01*
X233376329Y-83050135D01*
X233378000Y-83042452D01*
X233378000Y-82934808D01*
X233377677Y-82928433D01*
X233363995Y-82793733D01*
X233361441Y-82781293D01*
X233307365Y-82608736D01*
X233302356Y-82597048D01*
X233214686Y-82438889D01*
X233207435Y-82428456D01*
X233089756Y-82291157D01*
X233080547Y-82282388D01*
X232937667Y-82171558D01*
X232926887Y-82164822D01*
X232764626Y-82084981D01*
X232752727Y-82080555D01*
X232696531Y-82065918D01*
X232682436Y-82066352D01*
X232679000Y-82074533D01*
X232679000Y-83037885D01*
X232171000Y-83037885D01*
X232171000Y-82076099D01*
X232167027Y-82062568D01*
X232160925Y-82061691D01*
X232011064Y-82116830D01*
X231999658Y-82122392D01*
X231845956Y-82217691D01*
X231835895Y-82225440D01*
X231704504Y-82349690D01*
X231696201Y-82359310D01*
X231592477Y-82507443D01*
X231586280Y-82518531D01*
X231514460Y-82684495D01*
X231510618Y-82696607D01*
X231473323Y-82875134D01*
X231472085Y-82884666D01*
X231472000Y-82887889D01*
X231472000Y-83037885D01*
X226378000Y-83037885D01*
X226378000Y-82934808D01*
X226377677Y-82928433D01*
X226363995Y-82793733D01*
X226361441Y-82781293D01*
X226307365Y-82608736D01*
X226302356Y-82597048D01*
X226214686Y-82438889D01*
X226207435Y-82428456D01*
X226089756Y-82291157D01*
X226080547Y-82282388D01*
X225937667Y-82171558D01*
X225926887Y-82164822D01*
X225764626Y-82084981D01*
X225752727Y-82080555D01*
X225696531Y-82065918D01*
X225682436Y-82066352D01*
X225679000Y-82074533D01*
X225679000Y-83037885D01*
X225171000Y-83037885D01*
X225171000Y-82076099D01*
X225167027Y-82062568D01*
X225160925Y-82061691D01*
X225011064Y-82116830D01*
X224999658Y-82122392D01*
X224845956Y-82217691D01*
X224835895Y-82225440D01*
X224704504Y-82349690D01*
X224696201Y-82359310D01*
X224592477Y-82507443D01*
X224586280Y-82518531D01*
X224514460Y-82684495D01*
X224510618Y-82696607D01*
X224473323Y-82875134D01*
X224472085Y-82884666D01*
X224472000Y-82887889D01*
X224472000Y-83037885D01*
X218849833Y-83037885D01*
X218840615Y-83013295D01*
X218753261Y-82896739D01*
X218636705Y-82809385D01*
X218500316Y-82758255D01*
X218438134Y-82751500D01*
X216641866Y-82751500D01*
X216579684Y-82758255D01*
X216443295Y-82809385D01*
X216326739Y-82896739D01*
X216239385Y-83013295D01*
X216188255Y-83149684D01*
X216181500Y-83211866D01*
X216181500Y-85008134D01*
X216188255Y-85070316D01*
X216239385Y-85206705D01*
X216326739Y-85323261D01*
X216443295Y-85410615D01*
X216451704Y-85413767D01*
X216451705Y-85413768D01*
X216560451Y-85454535D01*
X216617216Y-85497176D01*
X216641916Y-85563738D01*
X216626709Y-85633087D01*
X216607316Y-85659568D01*
X216480629Y-85792138D01*
X216354743Y-85976680D01*
X216260688Y-86179305D01*
X216200989Y-86394570D01*
X216177251Y-86616695D01*
X216177548Y-86621848D01*
X216177548Y-86621851D01*
X216183011Y-86716590D01*
X216190110Y-86839715D01*
X216191247Y-86844761D01*
X216191248Y-86844767D01*
X216198071Y-86875042D01*
X216239222Y-87057639D01*
X216323266Y-87264616D01*
X216439987Y-87455088D01*
X216586250Y-87623938D01*
X216758126Y-87766632D01*
X216828595Y-87807811D01*
X216831445Y-87809476D01*
X216880169Y-87861114D01*
X216893240Y-87930897D01*
X216866509Y-87996669D01*
X216826055Y-88030027D01*
X216813607Y-88036507D01*
X216809474Y-88039610D01*
X216809471Y-88039612D01*
X216767392Y-88071206D01*
X216634965Y-88170635D01*
X216480629Y-88332138D01*
X216354743Y-88516680D01*
X216260688Y-88719305D01*
X216200989Y-88934570D01*
X216177251Y-89156695D01*
X216177548Y-89161848D01*
X216177548Y-89161851D01*
X216183011Y-89256590D01*
X216190110Y-89379715D01*
X216191247Y-89384761D01*
X216191248Y-89384767D01*
X216210733Y-89471226D01*
X216239222Y-89597639D01*
X216277461Y-89691811D01*
X216308992Y-89769462D01*
X216323266Y-89804616D01*
X216439987Y-89995088D01*
X216586250Y-90163938D01*
X216662846Y-90227529D01*
X216742663Y-90293794D01*
X216758126Y-90306632D01*
X216828595Y-90347811D01*
X216831445Y-90349476D01*
X216880169Y-90401114D01*
X216893240Y-90470897D01*
X216866509Y-90536669D01*
X216826055Y-90570027D01*
X216813607Y-90576507D01*
X216809474Y-90579610D01*
X216809471Y-90579612D01*
X216667501Y-90686206D01*
X216634965Y-90710635D01*
X216480629Y-90872138D01*
X216354743Y-91056680D01*
X216260688Y-91259305D01*
X216200989Y-91474570D01*
X216177251Y-91696695D01*
X215508500Y-91696695D01*
X215508500Y-80634500D01*
X215528502Y-80566379D01*
X215582158Y-80519886D01*
X215634500Y-80508500D01*
X244265500Y-80508500D01*
X244333621Y-80528502D01*
G37*
%TD.AperFunction*%
%TA.AperFunction,Conductor*%
G36*
X238767403Y-106159502D02*
G01*
X238804293Y-106185083D01*
X239051595Y-106432385D01*
X239085621Y-106494697D01*
X239088500Y-106521480D01*
X239088500Y-106887754D01*
X239068498Y-106955875D01*
X239057539Y-106965371D01*
X239080557Y-106996120D01*
X239088500Y-107040150D01*
X239088500Y-107408520D01*
X239068498Y-107476641D01*
X239051595Y-107497615D01*
X238809615Y-107739595D01*
X238747303Y-107773621D01*
X238720520Y-107776500D01*
X238542906Y-107776500D01*
X238474785Y-107756498D01*
X238428292Y-107702842D01*
X238416949Y-107647202D01*
X238418088Y-107603704D01*
X238418185Y-107600000D01*
X238399796Y-107399872D01*
X238391536Y-107370584D01*
X238392296Y-107299593D01*
X238431316Y-107240281D01*
X238496209Y-107211481D01*
X238566371Y-107222336D01*
X238573192Y-107225796D01*
X238591132Y-107235592D01*
X238592965Y-107235461D01*
X238599580Y-107231210D01*
X238865051Y-106965739D01*
X238856503Y-106955875D01*
X238856212Y-106955422D01*
X238602812Y-106702022D01*
X238588868Y-106694408D01*
X238587035Y-106694539D01*
X238582547Y-106697423D01*
X238514427Y-106717425D01*
X238446306Y-106697423D01*
X238399813Y-106643768D01*
X238389730Y-106573345D01*
X238399292Y-106507396D01*
X238416680Y-106387475D01*
X238418185Y-106330000D01*
X238414517Y-106290083D01*
X238428201Y-106220418D01*
X238477378Y-106169211D01*
X238544934Y-106152651D01*
X238647475Y-106156680D01*
X238653184Y-106155852D01*
X238653188Y-106155852D01*
X238680749Y-106151856D01*
X238697118Y-106149482D01*
X238767403Y-106159502D01*
G37*
%TD.AperFunction*%
%TA.AperFunction,Conductor*%
G36*
X241317075Y-94898502D02*
G01*
X241356387Y-94938665D01*
X241439987Y-95075088D01*
X241586250Y-95243938D01*
X241758126Y-95386632D01*
X241828595Y-95427811D01*
X241831445Y-95429476D01*
X241880169Y-95481114D01*
X241893240Y-95550897D01*
X241866509Y-95616669D01*
X241826055Y-95650027D01*
X241813607Y-95656507D01*
X241809474Y-95659610D01*
X241809471Y-95659612D01*
X241639100Y-95787530D01*
X241634965Y-95790635D01*
X241608966Y-95817842D01*
X241575797Y-95852551D01*
X241514273Y-95887981D01*
X241484703Y-95891500D01*
X236273239Y-95891500D01*
X236205118Y-95871498D01*
X236158625Y-95817842D01*
X236148521Y-95747568D01*
X236178015Y-95682988D01*
X236184144Y-95676405D01*
X236945144Y-94915405D01*
X237007456Y-94881379D01*
X237034239Y-94878500D01*
X241248954Y-94878500D01*
X241317075Y-94898502D01*
G37*
%TD.AperFunction*%
%TD*%
M02*
