M48
; DRILL file {KiCad (6.0.9)} date Sat 19 Nov 2022 04:27:40 PM EST
; FORMAT={-:-/ absolute / metric / decimal}
; #@! TF.CreationDate,2022-11-19T16:27:40-05:00
; #@! TF.GenerationSoftware,Kicad,Pcbnew,(6.0.9)
; #@! TF.FileFunction,Plated,1,2,PTH
FMAT,2
METRIC
; #@! TA.AperFunction,Plated,PTH,ComponentDrill
T1C0.200
; #@! TA.AperFunction,Plated,PTH,ViaDrill
T2C0.400
; #@! TA.AperFunction,Plated,PTH,ComponentDrill
T3C0.500
; #@! TA.AperFunction,Plated,PTH,ComponentDrill
T4C0.550
; #@! TA.AperFunction,Plated,PTH,ComponentDrill
T5C0.700
; #@! TA.AperFunction,Plated,PTH,ComponentDrill
T6C1.000
%
G90
G05
T1
X228.737Y-97.8
X228.737Y-99.25
X230.188Y-97.8
X230.188Y-99.25
T2
X223.1Y-100.173
X225.4Y-91.57
X231.07Y-101.79
X231.11Y-108.41
X231.426Y-93.033
X231.92Y-90.49
X231.98Y-88.94
X232.0Y-101.25
X232.426Y-99.924
X232.943Y-100.693
X233.261Y-101.623
X233.969Y-105.968
X235.0Y-107.5
X235.315Y-97.591
X235.72Y-89.17
X236.0Y-93.0
X238.11Y-95.3
X238.5Y-100.0
X238.67Y-101.98
X239.3Y-97.21
X240.15Y-83.112
T5
X237.32Y-103.79
X237.32Y-105.06
X237.32Y-106.33
X237.32Y-107.6
X237.32Y-108.87
X238.59Y-103.79
X238.59Y-105.06
X238.59Y-106.33
X238.59Y-107.6
X238.59Y-108.87
T6
X217.54Y-84.11
X217.54Y-86.65
X217.54Y-89.19
X217.54Y-91.73
X217.54Y-94.27
X217.54Y-96.81
X217.54Y-99.35
X217.54Y-101.89
X217.54Y-104.43
X217.54Y-106.97
X242.54Y-84.11
X242.54Y-86.65
X242.54Y-89.19
X242.54Y-91.73
X242.54Y-94.27
X242.54Y-96.81
X242.54Y-99.35
X242.54Y-101.89
X242.54Y-104.43
X242.54Y-106.97
T3
X225.425Y-83.635G85X225.425Y-82.985
G05
X232.425Y-83.635G85X232.425Y-82.985
G05
T4
X226.575Y-86.01G85X226.275Y-86.01
G05
X231.575Y-86.01G85X231.275Y-86.01
G05
T0
M30
